M48
;Layer_Color=9474304
;FILE_FORMAT=4:4
METRIC,LZ
;TYPE=PLATED
T1F00S00C0.2000
T2F00S00C0.3000
T5F00S00C0.7000
T6F00S00C0.8000
;TYPE=NON_PLATED
%
T01
X02027496Y01152498
X02045Y011525
X02064635Y0118567
X021Y01175
X02100965Y011545
X021025Y01115
X021Y0109
X021175Y010875
X02145Y01079
X02165Y01095
X0216567Y0111067
X0218433Y0110933
X022Y011
X02245
X022394Y01079965
X022275Y010675
X022Y0105067
X021925Y010425
X02205Y01035
X02215Y0102
X021875
X021775Y010725
Y0117
X0215Y01145
X021425Y011425
X02125Y01135
X022575Y01125
X022694Y011256
X022925Y01165
X023094Y011656
X023475Y011525
X024075Y0123
X024094Y01275601
X0239Y012725
X024375Y012625
X024444Y013106
X02425Y0131
X0243217Y013525
X02454995Y01344997
X024744Y013456
X02475Y013725
X02479995Y01382497
X025094Y01380601
X0251Y01405
X025025Y014175
X0249Y01415
X0248
X024725
X0248Y01435
X025025
X025225Y01445
X025394Y01425601
X02555Y013925
X025625Y0139
X02515Y0133
X024375Y01383
X0243
X0239Y013875
X02385Y01335
X024325Y0145
X024535Y01444
X024575Y0144
X024675Y014775
X024725
X024575Y015135
X024535
X02455Y015375
X024545Y015455
X02453999Y01553501
X024175Y015625
Y015425
X0239Y015525
X025444Y015544
X02545Y0156
X025725Y015775
X025975Y01545
X0258Y015075
X0259Y014725
X02366Y01471
X02338059Y0145
X02324
X02315995Y01427997
X02313Y014225
X02270429Y01420932
X02264495Y01422068
X02263358Y01428002
X02257424Y01429139
X02254996Y01417497
Y01409997
X0226Y01405
X02271566Y01414997
X022775Y0141386
X0227Y0139
X02273161Y01383408
X02264996Y01384997
X02261758Y0137975
X022325Y01405
X02235Y014125
X022375Y0142
X02237496Y01427497
X022275Y0143
X02219996Y01429997
X022125Y0143
X02214Y01449
X02208496Y01452
X02202496Y01452497
X021975Y014475
X0222Y01446
X02222496Y01457497
X02228822Y01457358
X02222068Y01464495
X02214996Y01464997
X0221436Y01471281
X02213642Y01477281
X02208692Y01480817
X02244341Y01483232
X022625Y014775
X022675Y014825
X0227Y01505
X02260169Y01507331
X02257Y01513
X022525Y01501998
X0227Y0152
X02275Y01525
X0226Y0154
X02243Y01548
X022425Y01585
X0226Y01584524
X022875Y015835
X02287Y01574
X02285995Y01565997
X023025Y0155
X023475Y015525
X023755Y0154575
X02333Y01574
X02335Y01585
X02215Y01525
X02195Y01526
X02191996Y01533997
X0216Y0152
X02149686Y01519
X0215Y01501
X02154996Y01504997
X02133Y01473
X02177996Y01464997
X02182858Y01461142
X02171996Y01421997
X02170996Y01415997
X02165996Y01419997
X02162996Y01426997
X021425Y014025
Y01395
X021475Y0139
X02147496Y01384
X02155Y01375
X021625Y013775
X02207496Y01377497
Y01384997
X0221Y013975
X02205496Y014025
X0219Y01407
X021365Y01405352
X0213Y01406361
X02122145Y01407145
X02122395Y01399823
X02115Y014
X02116Y01354
X0208374Y0135
X02086Y01364
Y013775
X02075Y01422
X02076678Y0143
X02068Y01431
X02062496Y01459997
X02048Y01459
X020275Y0146
X0201Y014575
X02002Y0146
X0201Y015025
X0204
X0203Y015325
Y0154
X02025Y015375
Y01545
Y015525
X0203Y0155
Y015575
X02025Y0153
X019875Y015275
Y015525
X02055Y01575
X02072Y01572
X02095Y0156
X021Y015525
X0208475Y01541266
X02118Y01524
X02124Y01567
X02145Y015675
X021075Y01585
X02072Y01486
X0206475Y01485
X02105Y01448
X02236211Y01450353
X02242145Y01449216
X022125Y01373497
X02212496Y01367497
X022075Y013625
X0220275Y013575
X02204996Y01349997
X02205Y013425
X0219114Y013275
X02184069
X0219071Y0132
X02222Y01288
X0224Y0129
X02245Y01305
X02275Y01335
X023Y013225
X02355Y0131803
X023675Y01307902
X02336592Y012975
X023325Y01293408
X023625Y012375
X023744Y012406
X023444Y01204965
X02335Y012025
X023Y012375
X02154571Y01265027
X0211Y012175
X021306Y01194399
X0207Y0121
X020756Y012294
X02075Y012475
X02069216Y012825
X02095Y01318234
X0199Y012775
X0201Y012525
Y0124
X0203Y0122067
X020225Y012125
X019675Y012225
X0195Y0127
X019375Y01283155
X019725Y0129067
X0197Y013
X0198Y0132
X019775Y013275
X019825Y01335
X0192Y0131067
X0188Y0133
X018825Y0136067
X01854996Y01355004
X0185Y014005
Y0144067
X018775Y0145
X019Y0146
Y014725
X0192Y015025
X01925Y015175
X019206Y015394
X019525Y0154
X019806Y015494
X0196Y014925
X0195Y015025
X019325Y014375
X019Y0142067
X0185Y0148067
X018525Y0149
X0187Y0155067
X0189Y0156
X01893Y015845
X01805Y015575
X018025Y0154
X01805Y014025
X0185Y016275
X0191Y016075
X0191975Y0159775
X01929996Y01622497
X0193Y0164
X019594Y016494
X0196Y0163
X019506Y015894
X01975Y01675
X019675Y01705
X02021Y01709
X02041Y01715
X02037Y01724
X020394Y016594
X02015Y016725
X019994Y016494
X0199Y0162
X020056Y016044
X02016Y01606
X02027Y01621
X02035Y0162
X020975Y016275
X02115035Y016294
X021194
X02155035Y016094
X02159399
X021425Y0159
X021775Y015875
X021994Y016094
X02239399Y016194
X022875Y016425
X023375Y0165
X02303Y01598
X02375Y015975
Y015925
X0229Y017075
X02155Y016625
X020775Y01685
X021025Y017125
X0239
X02435Y01655
X0243Y015975
X0242325Y01598
X024275Y0159
X024525
X0246Y01592
X02385Y015975
X025375Y01625
X0254Y016525
X025725Y016125
T02
X020015Y01515
Y0152
X02048
Y01515
X02088Y015725
X0208975Y01585
X0208
X0232567Y015725
X02332588Y01595
X0234
X020875Y01605
X0208
X020725
X020625Y01665
X02055Y0167
X0242Y0163
Y016225
T05
X0197852Y0118602
X0201102Y0115352
X0202898Y0117148
X0204352Y0112102
X0206148Y0113898
X0207602Y0108852
X0209398Y0110648
X02108519Y0105602
X0212648Y0107398
X0214102Y0102352
X021625Y01045
X02175Y00993
X0219148Y0100898
X0222398Y0100898
X0225648Y0104148
X0228898Y0107398
X0232148Y0110648
X0235398Y0113898
X0238648Y0117148
X0241898Y0120398
X02451481Y0123648
X0248398Y0126898
X0251648Y0130148
X0254898Y0133398
X0258148Y0136648
X0261398Y01431481
Y0146398
Y0149648
X02612Y01528
X0258148Y0156148
X0199648Y0120398
X0194602Y0121852
X0191352Y0125102
X0188102Y0128352
X01848519Y0131602
X01817Y01349
X0181602Y0138102
X01785Y01414
X0178352Y0144602
Y0147852
X01784Y01511
X0180148Y0152898
X0181602Y0154352
Y0157602
X0183398Y0159398
X01848519Y0160852
X0186648Y0162648
X0188102Y0164102
X0189898Y0165898
X0191352Y0167352
X0193148Y01691481
X0196398
X0197852Y0170602
X0209398Y0172398
X0212648Y01691481
X02158Y01691
X02191Y01658
X0222398Y0165898
X0225648Y01691481
X0228898
X0230352Y0170602
X0241898Y0172398
X02451481Y01691481
X0248398
X0246602Y0167352
X0251648Y0165898
X0254898Y0162648
X0258148Y0159398
T06
X02505Y01478
Y015034
Y015288
Y015542
Y015796
X0222Y0121
X021946
X023596Y0165
X02385
X02505Y01605
M30
