G04 Layer_Color=8388736*
%FSLAX44Y44*%
%MOMM*%
G71*
G01*
G75*
%ADD71R,0.5000X1.4500*%
%ADD72R,4.1000X2.1000*%
%ADD73O,1.2000X2.0000*%
%ADD74O,1.3000X0.9000*%
%ADD75C,1.6000*%
%ADD76R,1.6000X1.6000*%
%ADD77O,1.1000X1.8000*%
%ADD78R,1.6000X1.6000*%
%ADD79C,1.3000*%
D71*
X2025002Y1687500D02*
D03*
X2031502D02*
D03*
X2038002D02*
D03*
X2044502D02*
D03*
X2051002D02*
D03*
D72*
X2038000Y1716500D02*
D03*
D73*
X2317500Y1702000D02*
D03*
X2399500D02*
D03*
D74*
X2013750Y1687250D02*
D03*
X2062250D02*
D03*
X2338500Y1689500D02*
D03*
X2358500D02*
D03*
Y1714500D02*
D03*
X2338500D02*
D03*
X2378500D02*
D03*
Y1689500D02*
D03*
D75*
X2194600Y1210000D02*
D03*
X2505000Y1478000D02*
D03*
Y1503400D02*
D03*
Y1528800D02*
D03*
Y1554200D02*
D03*
Y1579600D02*
D03*
X2359600Y1650000D02*
D03*
D76*
X2505000Y1605000D02*
D03*
D77*
X2001750Y1714000D02*
D03*
X2074250D02*
D03*
D78*
X2220000Y1210000D02*
D03*
X2385000Y1650000D02*
D03*
D79*
X1785000Y1414000D02*
D03*
X1817000Y1349000D02*
D03*
X1881020Y1283520D02*
D03*
X1913520Y1251020D02*
D03*
X1978520Y1186020D02*
D03*
X1996480Y1203980D02*
D03*
X2011020Y1153520D02*
D03*
X2043520Y1121020D02*
D03*
X2076020Y1088520D02*
D03*
X2141020Y1023520D02*
D03*
X2175000Y993000D02*
D03*
X2223980Y1008980D02*
D03*
X2256480Y1041480D02*
D03*
X2288980Y1073980D02*
D03*
X2321480Y1106480D02*
D03*
X2353980Y1138980D02*
D03*
X2386480Y1171480D02*
D03*
X2418980Y1203980D02*
D03*
X2451481Y1236480D02*
D03*
X2483980Y1268980D02*
D03*
X2516480Y1301480D02*
D03*
X2548980Y1333980D02*
D03*
X2581480Y1366480D02*
D03*
X2613980Y1431481D02*
D03*
Y1463980D02*
D03*
Y1496480D02*
D03*
X2612000Y1528000D02*
D03*
X2581480Y1561480D02*
D03*
Y1593980D02*
D03*
X2548980Y1626480D02*
D03*
X2516480Y1658980D02*
D03*
X2483980Y1691481D02*
D03*
X2451481D02*
D03*
X2418980Y1723980D02*
D03*
X2466020Y1673520D02*
D03*
X2288980Y1691481D02*
D03*
X2303520Y1706020D02*
D03*
X2256480Y1691481D02*
D03*
X2223980Y1658980D02*
D03*
X2158000Y1691000D02*
D03*
X2191000Y1658000D02*
D03*
X2126480Y1691481D02*
D03*
X2093980Y1723980D02*
D03*
X1978520Y1706020D02*
D03*
X1963980Y1691481D02*
D03*
X1931480D02*
D03*
X1913520Y1673520D02*
D03*
X1898980Y1658980D02*
D03*
X1881020Y1641020D02*
D03*
X1866480Y1626480D02*
D03*
X1848519Y1608520D02*
D03*
X1833980Y1593980D02*
D03*
X1816020Y1576020D02*
D03*
Y1543520D02*
D03*
X1801480Y1528980D02*
D03*
X1784000Y1511000D02*
D03*
X1783520Y1478520D02*
D03*
Y1446020D02*
D03*
X1816020Y1381020D02*
D03*
X1848519Y1316020D02*
D03*
X1946020Y1218520D02*
D03*
X2028980Y1171480D02*
D03*
X2061480Y1138980D02*
D03*
X2093980Y1106480D02*
D03*
X2108519Y1056020D02*
D03*
X2126480Y1073980D02*
D03*
X2162500Y1045000D02*
D03*
X2191480Y1008980D02*
D03*
M02*
