M48
;Layer_Color=9474304
;FILE_FORMAT=4:4
METRIC,LZ
;TYPE=PLATED
T3F00S00C0.4000
T4F00S00C0.5000
;TYPE=NON_PLATED
T7F00S00C0.4000
T8F00S00C0.5000
%
G90
G05
T03
G00X02337Y016895
M15
G01X0234
M16
G00X02357Y016895
M15
G01X0236
M16
G00X02377Y016895
M15
G01X0238
M16
G00X02377Y017145
M15
G01X0238
M16
G00X02357Y017145
M15
G01X0236
M16
G00X02337Y017145
M15
G01X0234
M16
T04
G00X023175Y01706
M15
G01Y01698
M16
G00X023995Y01698
M15
G01Y01706
M16
T07
G00X020155Y0168725
M15
G01X02012
M16
G00X020605Y0168725
M15
G01X02064
M16
T08
G00X0200175Y0171725
M15
G01Y0171075
M16
G00X0207425Y0171725
M15
G01Y0171075
M16
M17
M30
