G04 Layer_Physical_Order=1*
G04 Layer_Color=255*
%FSLAX44Y44*%
%MOMM*%
G71*
G01*
G75*
%ADD10R,0.4000X1.3500*%
%ADD11R,4.0000X2.0000*%
%ADD12C,0.5000*%
%ADD13C,1.0000*%
%ADD14C,0.3000*%
%ADD15C,0.2000*%
%ADD16C,0.7000*%
%ADD17C,0.8000*%
%ADD18C,0.4000*%
%ADD19O,1.1000X1.9000*%
%ADD20O,1.2000X0.8000*%
%ADD21C,1.5000*%
%ADD22R,1.5000X1.5000*%
%ADD23O,1.0000X1.7000*%
%ADD24R,1.5000X1.5000*%
%ADD25C,1.2000*%
%ADD26C,0.4500*%
%ADD27C,0.5000*%
%ADD28C,0.4000*%
D10*
X2025002Y1687500D02*
D03*
X2031502D02*
D03*
X2038002D02*
D03*
X2044502D02*
D03*
X2051002D02*
D03*
D11*
X2038000Y1716500D02*
D03*
D12*
X1920600Y1539400D02*
X1934400D01*
X1950600Y1555600D01*
Y1589400D01*
X1980600D01*
X1990600D01*
X2005600Y1604400D01*
X2088000Y1572500D02*
Y1582000D01*
X2085000Y1585000D01*
X2080000D01*
X2103610Y1642250D02*
X2103860Y1642000D01*
X2104938D01*
X2106938Y1640000D01*
X2260000D01*
X2302500Y1682500D01*
Y1705000D01*
X2303520Y1706020D01*
X2296000Y1723500D02*
X2396500D01*
X2412500Y1707500D01*
Y1702500D01*
X2441480Y1673520D01*
X2466020D01*
X2458750Y1606250D02*
X2442500Y1590000D01*
X2427500D01*
X2430000Y1592500D01*
Y1597500D01*
X2429500Y1598000D01*
X2423250D01*
X2425000Y1590000D02*
X2427500D01*
X2478125Y1605625D02*
X2490000Y1617500D01*
X2515000D01*
X2535000Y1597500D01*
Y1437500D01*
X2530000Y1432500D01*
Y1415000D01*
X2505000Y1390000D01*
X2444500D01*
X2437500Y1383000D01*
X2430000D01*
X2437500Y1415000D02*
X2472500D01*
X2490000D02*
Y1597500D01*
X2432500Y1450000D02*
Y1420000D01*
X2437500Y1415000D01*
X2444400Y1315600D02*
X2474400Y1345600D01*
X2509400Y1380600D02*
Y1380601D01*
X2444400Y1315600D02*
Y1310600D01*
X2444400D01*
X2409400Y1275601D01*
X2374400Y1240601D01*
Y1240600D01*
Y1234966D01*
X2344400Y1204965D01*
Y1200601D01*
X2309400Y1165600D01*
X2269400Y1125600D01*
Y1105600D01*
X2243765Y1079965D01*
X2239400D01*
Y1049400D01*
X2217500Y1027500D01*
X2192500D01*
X2175000Y1045000D01*
Y1062500D01*
X2125000Y1112500D01*
X2087500Y1150000D01*
X2052500Y1185000D01*
Y1212500D01*
X2069400Y1229400D01*
X2075600D01*
X1980600Y1549400D02*
Y1589400D01*
X1999400Y1649400D02*
X1959400D01*
X2028722Y1648500D02*
X2088448D01*
X2088698Y1648750D01*
X2106302D01*
X2106552Y1648500D01*
X2107630D01*
X2108630Y1647500D01*
X2250000D01*
X2277500Y1675000D01*
Y1705000D01*
X2296000Y1723500D01*
X2103610Y1642250D02*
X2091390D01*
X2091140Y1642000D01*
X2026030D01*
X1978520Y1689510D01*
Y1706020D01*
X1981182Y1717500D02*
X1992500Y1706182D01*
Y1684722D01*
X2028722Y1648500D01*
X1981182Y1717500D02*
X1970000D01*
X1960000Y1707500D01*
X1952500D01*
Y1707500D01*
X1950000Y1705000D01*
X1913520Y1676020D02*
Y1673520D01*
D13*
X2001500Y1517500D02*
Y1561500D01*
X2057500Y1617500D01*
X2127500D01*
X2140000Y1630000D01*
X2295000D01*
X2338500Y1673500D01*
Y1689500D01*
Y1714500D01*
X2358500D02*
Y1689500D01*
Y1651100D01*
X2359600Y1650000D01*
X2352500Y1607500D02*
X2362500Y1597500D01*
Y1582500D01*
X2368000Y1577000D01*
X2417000D01*
X2425000Y1585000D01*
Y1590000D01*
Y1592500D01*
X2427500Y1595000D01*
X2425000Y1592500D02*
X2430000D01*
X2442626D01*
X2456376Y1606250D01*
X2481250D01*
X2490000Y1597500D01*
X2420000Y1630000D02*
Y1647500D01*
X2378500Y1689000D01*
Y1714500D01*
X2420000Y1630000D02*
Y1622500D01*
X2352500Y1607500D02*
X2250000D01*
X2238750Y1596250D01*
X2148624D01*
X2146124Y1598750D01*
X2103500D01*
X2089750Y1585000D01*
X2087500Y1605000D02*
X2080000D01*
X2072500D01*
X2065000D01*
X2015000Y1555000D01*
Y1525000D01*
X2022500Y1517500D01*
X2047500D01*
X2472500Y1415000D02*
X2480000D01*
X2490000D01*
D14*
X1814500Y1358000D02*
X1820728D01*
X1823725Y1355004D01*
X1854996D01*
X1862500Y1362071D02*
Y1337500D01*
X1907500Y1292500D01*
X1935580D01*
X1996480Y1231600D01*
Y1203980D01*
X1980000Y1207732D02*
Y1240000D01*
X1950000Y1270000D01*
X1967500Y1222500D02*
X1930000Y1260000D01*
Y1275655D01*
X1937500Y1283155D01*
X1937444Y1297000D02*
X2010000Y1224444D01*
Y1190461D01*
X2028980Y1171480D01*
X2027728Y1160004D02*
X2032496D01*
X2039750Y1152750D01*
Y1150325D01*
X2051095Y1138980D01*
X2061480D01*
X2062500Y1152500D02*
X2082500Y1132500D01*
Y1105000D01*
X2090020Y1097480D01*
X2100020D01*
X2123520Y1073980D01*
X2126480D01*
X2127500Y1087500D02*
X2162500Y1052500D01*
X2162500Y1045000D01*
Y1020000D02*
X2215000D01*
X2288980Y1073980D02*
X2306480D01*
X2340000Y1107500D01*
Y1145000D01*
X2347500Y1152500D01*
X2355000Y1140000D02*
Y1170000D01*
X2417000Y1232000D01*
Y1237228D01*
X2437500Y1257728D01*
Y1262500D01*
X2451481Y1252617D02*
X2527000Y1328136D01*
Y1345864D01*
X2570000Y1388864D01*
Y1480000D01*
X2580000Y1490000D01*
Y1507500D01*
Y1525000D01*
X2565000Y1540000D01*
Y1629553D01*
X2547303Y1647250D01*
X2535250D01*
X2532520Y1649980D01*
X2490079D01*
X2479520Y1660539D01*
Y1679111D01*
X2467151Y1691481D01*
X2451481D01*
X2455248Y1682520D02*
X2469748D01*
X2475020Y1677247D01*
Y1658675D01*
X2488215Y1645480D01*
X2530656D01*
X2533386Y1642750D01*
X2545439D01*
X2560000Y1628189D01*
Y1400000D01*
X2562500Y1397500D01*
Y1390000D01*
Y1387728D01*
X2522500Y1347728D01*
Y1330000D01*
X2426000Y1233500D01*
Y1227565D01*
X2418980Y1220545D01*
Y1203980D01*
X2421500Y1229429D02*
Y1235364D01*
X2515000Y1328864D01*
Y1330000D01*
X2515114Y1309886D02*
X2531500Y1326272D01*
Y1344000D01*
X2574500Y1387000D01*
Y1477429D01*
X2587500Y1490429D01*
Y1524571D01*
X2572480Y1539591D01*
Y1577500D01*
Y1585020D02*
X2592000Y1565500D01*
Y1488565D01*
X2579000Y1475565D01*
Y1385136D01*
X2536000Y1342136D01*
Y1308272D01*
X2496708Y1268980D01*
X2483980D01*
X2515114Y1302846D02*
X2516480Y1301480D01*
X2515114Y1302846D02*
Y1309886D01*
X2451481Y1252617D02*
Y1236480D01*
X2421500Y1229429D02*
X2386480Y1194409D01*
Y1171480D01*
X2407500Y1230000D02*
X2335000Y1157500D01*
Y1120000D01*
X2321480Y1106480D01*
X2353980Y1138980D02*
X2355000Y1140000D01*
X2162500Y1020000D02*
X2100000Y1082500D01*
Y1090000D01*
X2087500D01*
X2027496Y1150004D01*
Y1152498D01*
Y1152504D01*
X1975000Y1205000D01*
Y1209571D01*
X1967500Y1217071D01*
Y1222500D01*
X1980000Y1207732D02*
X2027728Y1160004D01*
X2042480Y1177520D02*
X2047480D01*
X2093980Y1131020D01*
Y1106480D01*
X2087500Y1150000D02*
Y1151299D01*
X2130600Y1194399D01*
X2150000Y1145000D02*
Y1138799D01*
X2125000Y1113799D01*
Y1112500D01*
X2127500Y1087500D02*
X2117500D01*
X2062500Y1152500D02*
X2045000D01*
X2042480Y1177520D02*
X2022500Y1197500D01*
Y1212500D01*
X1937444Y1297000D02*
X1913000D01*
X1880000Y1330000D01*
X1862500Y1362071D02*
X1857071Y1367500D01*
X1842929D01*
X1807929Y1402500D01*
X1805000D01*
X1795000Y1377500D02*
Y1517500D01*
X1790000Y1522500D01*
Y1542500D01*
X1805000Y1557500D01*
X1802500Y1542728D02*
X1912272Y1652500D01*
X1937500D01*
X1963980Y1678980D01*
Y1691481D01*
X1964500Y1702000D02*
X1967500Y1705000D01*
X1964500Y1702000D02*
X1957000D01*
X1950000Y1695000D01*
Y1680000D01*
X1929500Y1659500D01*
X1912228D01*
X1879208Y1626480D01*
X1866480D01*
X1850000Y1627500D02*
X1890480Y1667980D01*
X1906331D01*
X1909792Y1664520D01*
X1919520D01*
X1931480Y1676480D01*
Y1691481D01*
X1927338Y1701481D02*
X1946481D01*
X1950000Y1705000D01*
X1957303Y1713000D02*
X1969804Y1725500D01*
X2009500D01*
X2012500Y1722500D01*
Y1702500D01*
X2015000Y1700000D01*
X2090000D01*
X2102500Y1712500D01*
X2077500Y1685000D02*
Y1668800D01*
X2067200Y1658500D01*
X2040299D01*
X2039400Y1659400D01*
X2033500Y1654000D02*
X2086170D01*
X2086420Y1654250D01*
X2146750D01*
X2155000Y1662500D01*
X2025002Y1687500D02*
X2014000D01*
X2013750Y1687250D01*
X2015000Y1672500D02*
X2033500Y1654000D01*
X1957303Y1713000D02*
X1939514D01*
X1936175Y1709660D01*
X1929154D01*
X1918511Y1699018D01*
X1911947D01*
X1833980Y1621051D01*
Y1593980D01*
X1833068Y1566932D02*
X1914136Y1648000D01*
X1939364D01*
X1966364Y1675000D01*
X1975000D01*
X1921480Y1683980D02*
Y1695623D01*
X1927338Y1701481D01*
X1921480Y1683980D02*
X1913520Y1676020D01*
X1987500Y1552500D02*
X1992750Y1547250D01*
Y1513614D01*
X1998614Y1507750D01*
X2034750D01*
X2040000Y1502500D01*
X2010000D02*
X1997500D01*
X1987500Y1512500D01*
Y1527500D01*
X1833068Y1540568D02*
Y1566932D01*
Y1540568D02*
X1821480Y1528980D01*
X1801480D01*
X1802500Y1540000D02*
Y1542728D01*
X1795000Y1377500D02*
X1814500Y1358000D01*
X2345000Y1632500D02*
X2382500D01*
X2400500Y1614500D01*
X2432000D01*
X2452000Y1634500D01*
X2528000D01*
X2537500Y1625000D01*
X2548980Y1626480D02*
X2555000Y1620461D01*
Y1392500D01*
X2590000Y1472500D02*
X2597500Y1480000D01*
Y1545000D01*
X2572480Y1585020D02*
Y1612480D01*
X2572500Y1612500D01*
X2548980Y1626480D02*
X2537211Y1638250D01*
X2531522D01*
X2528792Y1640980D01*
X2439020D01*
X2390000Y1690000D01*
Y1712500D01*
X2445000Y1680000D02*
X2452728D01*
X2455248Y1682520D01*
X2418980Y1706020D02*
Y1723980D01*
Y1706020D02*
X2445000Y1680000D01*
X2516480Y1658980D02*
X2533520D01*
X2540000Y1652500D01*
X2337500Y1650000D02*
Y1640000D01*
X2345000Y1632500D01*
D15*
X1877500Y1450000D02*
X1880000Y1447500D01*
X1925101D01*
X1930441Y1442159D01*
X1930441D01*
X1930533Y1442250D01*
X1932300D01*
X1932550Y1442500D01*
X2007651D01*
X2008904Y1441247D01*
X2021954D01*
X2025201Y1438000D01*
X2063333D01*
X2064583Y1439250D01*
X2070300D01*
X2076300Y1445250D01*
X2088300D01*
X2103550Y1460500D01*
X2114034D01*
X2124037Y1450497D01*
X2156080D01*
X2167330Y1439247D01*
X2167363D01*
X2191360Y1415250D01*
X2205683D01*
X2206433Y1414500D01*
X2220249D01*
X2222249Y1412500D01*
X2235000D01*
X2232500Y1405000D02*
X2224799D01*
X2218799Y1411000D01*
X2204984D01*
X2204234Y1411750D01*
X2189910D01*
X2165913Y1435747D01*
X2165880D01*
X2154630Y1446997D01*
X2122587D01*
X2112584Y1457000D01*
X2105000D01*
X2089750Y1441750D01*
X2077750D01*
X2070859Y1434859D01*
X2070859D01*
X2069967Y1435750D01*
X2066033D01*
X2064783Y1434500D01*
X2023751D01*
X2020504Y1437747D01*
X2007454D01*
X2006201Y1439000D01*
X1934000D01*
X1932500Y1437500D01*
X1931550Y1446000D02*
X2009100D01*
X2010354Y1444747D01*
X2023404D01*
X2026651Y1441500D01*
X2061883D01*
X2063133Y1442750D01*
X2068851D01*
X2074851Y1448750D01*
X2086851D01*
X2102101Y1464000D01*
X2115484D01*
X2125486Y1453997D01*
X2157529D01*
X2168779Y1442747D01*
X2168812D01*
X2192809Y1418750D01*
X2207133D01*
X2207883Y1418000D01*
X2227899D01*
X2229899Y1420000D01*
X2237500D01*
Y1425000D02*
X2237496Y1425004D01*
Y1427497D01*
X2237500Y1425000D02*
X2229950D01*
X2226450Y1421500D01*
X2209333D01*
X2208583Y1422250D01*
X2194259D01*
X2170262Y1446247D01*
X2170229D01*
X2159246Y1457231D01*
Y1457264D01*
X2159012Y1457497D01*
X2126936D01*
X2116933Y1467500D01*
X2100651D01*
X2085401Y1452250D01*
X2073401D01*
X2067401Y1446250D01*
X2061683D01*
X2060433Y1445000D01*
X2028100D01*
X2024854Y1448247D01*
X2011803D01*
X2010550Y1449500D01*
X1933000D01*
X1892500Y1490000D01*
X1852500D01*
X1855000Y1512500D02*
X1865000Y1502500D01*
X1885000D01*
X1922500Y1465000D01*
X2058636D01*
X2059886Y1466250D01*
X2079602D01*
X2094852Y1481500D01*
X2122732D01*
X2126482Y1477750D01*
X2136834D01*
X2139584Y1475000D01*
X2167993D01*
X2177996Y1464997D01*
X2176061Y1460247D02*
X2197808Y1438500D01*
X2221000D01*
X2225000Y1442500D01*
Y1446818D01*
X2244341Y1466159D01*
Y1483232D01*
X2249091Y1485199D02*
Y1463233D01*
X2236211Y1450353D01*
X2238781Y1445853D02*
X2242145Y1449216D01*
X2238781Y1445853D02*
Y1435082D01*
X2244500Y1429364D01*
Y1407000D01*
X2237500Y1400000D01*
X2224849D01*
X2217599Y1407250D01*
X2199750D01*
X2192500Y1400000D01*
Y1340000D01*
X2205000Y1327500D01*
Y1275000D01*
X2236500Y1243500D01*
Y1104000D01*
X2232500Y1100000D01*
X2200000D01*
X2173920Y1093580D02*
X2192500Y1075000D01*
Y1042500D01*
X2245000Y1100000D02*
X2240000Y1105000D01*
Y1244950D01*
X2208500Y1276450D01*
Y1331500D01*
X2200000Y1340000D01*
Y1346136D01*
X2198000Y1348136D01*
Y1360500D01*
X2202500Y1365000D01*
Y1386719D01*
X2205781Y1390000D01*
X2220000D01*
X2230000Y1380000D01*
X2255000D01*
X2260246Y1385246D01*
Y1386965D01*
X2263281Y1390000D01*
X2270000D01*
X2273161Y1383408D02*
X2281069Y1375500D01*
X2405529D01*
X2421530Y1391500D01*
X2433979D01*
X2440979Y1398500D01*
X2493500D01*
X2497750Y1402750D01*
Y1419467D01*
X2500533Y1422250D01*
X2517250D01*
X2522500Y1427500D01*
Y1445000D01*
X2502500Y1417500D02*
Y1402500D01*
X2495000Y1395000D01*
X2442429D01*
X2435429Y1388000D01*
X2422979D01*
X2406979Y1372000D01*
X2277993D01*
X2271334Y1378658D01*
X2271193D01*
X2268410Y1381441D01*
Y1381582D01*
X2264996Y1384997D01*
X2262500Y1380000D02*
X2274000Y1368500D01*
X2408429D01*
X2408614Y1368685D01*
X2408614D01*
X2408799Y1368500D01*
X2437500D01*
X2446500Y1377500D01*
X2474998D01*
X2479995Y1382497D01*
X2475000Y1372500D02*
X2470000Y1367500D01*
X2444899D01*
X2442399Y1365000D01*
X2272550D01*
X2262550Y1375000D01*
X2230000D01*
X2230000Y1375000D01*
X2220003Y1384997D01*
X2207496D01*
Y1377497D02*
X2209998Y1380000D01*
X2220050D01*
X2228965Y1371086D01*
X2261465D01*
X2269050Y1363500D01*
X2269101D01*
X2271101Y1361500D01*
X2443849D01*
X2446349Y1364000D01*
X2450992D01*
X2454995Y1359997D01*
Y1344997D01*
X2447500Y1355000D02*
X2444500Y1358000D01*
X2269651D01*
X2267651Y1360000D01*
X2267601D01*
X2260015Y1367586D01*
X2227515D01*
X2221603Y1373497D01*
X2212500D01*
X2212496Y1367497D02*
X2220003D01*
X2223414Y1364086D01*
X2258565D01*
X2266151Y1356500D01*
X2266201D01*
X2268701Y1354000D01*
X2403500D01*
X2415000Y1342500D01*
Y1300000D01*
X2390000Y1275000D01*
Y1272500D01*
X2385250Y1276967D02*
X2411500Y1303217D01*
Y1341050D01*
X2402050Y1350500D01*
X2267251D01*
X2264751Y1353000D01*
X2264701D01*
X2257115Y1360586D01*
X2209414D01*
X2207500Y1362500D01*
X2202750Y1357500D02*
Y1357250D01*
X2202914Y1357086D01*
X2255666D01*
X2263251Y1349500D01*
X2263302D01*
X2265802Y1347000D01*
X2400600D01*
X2408000Y1339601D01*
Y1304667D01*
X2381750Y1278417D01*
Y1266851D01*
X2335000Y1220101D01*
Y1202500D01*
X2330000Y1202500D02*
Y1220050D01*
X2378250Y1268300D01*
Y1279867D01*
X2404500Y1306117D01*
Y1338151D01*
X2399151Y1343500D01*
X2264352D01*
X2261852Y1346000D01*
X2261802D01*
X2254216Y1353586D01*
X2229749D01*
X2226160Y1349997D01*
X2226157Y1350000D01*
X2226155Y1349997D01*
X2204996D01*
X2205000Y1342500D02*
X2223613D01*
X2231198Y1350086D01*
X2252766D01*
X2260352Y1342500D01*
X2260402D01*
X2262902Y1340000D01*
X2397701D01*
X2401000Y1336701D01*
Y1307567D01*
X2374750Y1281317D01*
Y1269750D01*
X2326500Y1221500D01*
Y1206500D01*
X2257500Y1137500D01*
Y1125000D01*
X2292500Y1165000D02*
X2330000Y1202500D01*
X2362500Y1237500D02*
Y1242500D01*
X2385250Y1265250D01*
Y1276967D01*
X2367500Y1307902D02*
X2385000Y1325402D01*
Y1335000D01*
X2425000Y1310000D02*
X2447500Y1332500D01*
Y1355000D01*
X2350000Y1420000D02*
Y1510000D01*
X2363000Y1523000D01*
X2387899D01*
X2414900Y1550000D01*
X2442500D01*
X2447000Y1545500D01*
X2454500D01*
X2453999Y1553501D02*
X2413450D01*
X2386450Y1526500D01*
X2361550D01*
X2346500Y1511450D01*
Y1421450D01*
X2323550Y1398500D01*
X2261881D01*
X2253246Y1389864D01*
Y1388145D01*
X2252101Y1387000D01*
X2232899D01*
X2222899Y1397000D01*
X2218000D01*
X2212500Y1402500D01*
X2205496D01*
X2190000Y1406000D02*
Y1407000D01*
Y1406000D02*
X2181250Y1414750D01*
X2172243D01*
X2170996Y1415997D01*
X2162500Y1400976D02*
Y1377500D01*
X2157000Y1377000D02*
Y1401527D01*
X2139632Y1418895D01*
X2117278D01*
X2103250Y1404867D01*
Y1307152D01*
X2125000Y1285402D01*
Y1232400D01*
X2110100Y1217500D01*
X2110000D01*
X2115000Y1210000D02*
X2128500Y1223500D01*
Y1286852D01*
X2106750Y1308602D01*
Y1403417D01*
X2118727Y1415395D01*
X2138182D01*
X2147500Y1406077D01*
Y1400000D01*
X2142500Y1395000D01*
Y1402500D02*
Y1406127D01*
X2136733Y1411895D01*
X2120177D01*
X2110250Y1401968D01*
Y1310052D01*
X2132000Y1288302D01*
Y1207000D01*
X2100000Y1175000D01*
X2135600Y1145600D02*
Y1162000D01*
X2135500Y1162101D01*
Y1289751D01*
X2122500Y1302751D01*
Y1392500D01*
X2115000Y1400000D01*
X2122395Y1399823D02*
X2122670D01*
X2126000Y1396493D01*
Y1304201D01*
X2139000Y1291201D01*
Y1163550D01*
X2142500Y1160050D01*
Y1142500D01*
X2135600Y1145600D02*
X2125000Y1135000D01*
X2157500Y1102500D02*
X2165000Y1095000D01*
X2170420Y1092130D02*
Y1112637D01*
X2169250Y1113807D01*
Y1270851D01*
X2133000Y1307101D01*
Y1402134D01*
X2130000Y1405134D01*
Y1406361D01*
X2129500Y1399789D02*
X2122145Y1407145D01*
X2129500Y1399789D02*
Y1305651D01*
X2142500Y1292651D01*
Y1165000D01*
X2157500Y1150000D01*
Y1102500D01*
X2170420Y1092130D02*
X2177500Y1085050D01*
Y1072500D01*
X2173920Y1093580D02*
Y1114087D01*
X2172750Y1115257D01*
Y1272300D01*
X2136500Y1308550D01*
Y1405352D01*
X2140996Y1377500D02*
X2147496Y1384000D01*
X2140996Y1377500D02*
Y1309004D01*
X2177500Y1272500D01*
Y1170000D01*
X2115000Y1210000D02*
X2070000D01*
X2075000Y1247500D02*
X2110000D01*
X2121500Y1259000D01*
Y1283952D01*
X2099750Y1305702D01*
Y1406317D01*
X2115828Y1422395D01*
X2141082D01*
X2162500Y1400976D01*
X2157000Y1377000D02*
X2155000Y1375000D01*
X2186500Y1341000D02*
Y1383450D01*
X2187000Y1383950D01*
Y1391326D01*
X2145328Y1432997D01*
X2111564D01*
X2085317Y1406750D01*
X1999351D01*
X1985500Y1392899D01*
Y1338000D01*
X1982500Y1335000D01*
X1989000Y1334783D02*
Y1391450D01*
X2000800Y1403250D01*
X2086766D01*
X2113014Y1429497D01*
X2143879D01*
X2183500Y1389876D01*
Y1385399D01*
X2183000Y1384899D01*
Y1335640D01*
X2191140Y1327500D01*
X2195890Y1325533D02*
Y1331610D01*
X2186500Y1341000D01*
X2179500Y1332069D02*
X2184069Y1327500D01*
X2179500Y1332069D02*
Y1386349D01*
X2180000Y1386849D01*
Y1388426D01*
X2142531Y1425895D01*
X2114361D01*
X2088216Y1399750D01*
X2002250D01*
X1992500Y1390000D01*
Y1332500D01*
X1980000Y1320000D01*
X1981718Y1327500D02*
X1989000Y1334783D01*
X1981718Y1327500D02*
X1977500D01*
X1970000Y1335101D02*
X1982000Y1347101D01*
Y1394349D01*
X1997901Y1410250D01*
X2083867D01*
X2110114Y1436497D01*
X2146778D01*
X2163277Y1419999D01*
X2165997D01*
X2165996Y1419997D01*
X2171996Y1421997D02*
Y1424715D01*
X2164963Y1431747D01*
X2162596D01*
X2150846Y1443497D01*
X2107215D01*
X2080968Y1417250D01*
X1995001D01*
X1975000Y1397249D01*
Y1350000D01*
X1961500Y1336500D01*
Y1288550D01*
X2010000Y1240050D01*
Y1240000D01*
X1990000Y1277500D02*
X1977500D01*
X1965000Y1290000D01*
Y1335050D01*
X1978500Y1348550D01*
Y1395799D01*
X1996451Y1413750D01*
X2082417D01*
X2108664Y1439997D01*
X2149396D01*
X2157856Y1431538D01*
Y1431352D01*
X2161070Y1428138D01*
X2162996D01*
Y1426997D01*
X2171679Y1449747D02*
X2171712D01*
X2195709Y1425750D01*
X2210033D01*
X2210782Y1425000D01*
X2225000D01*
X2227500Y1427500D01*
Y1430000D01*
X2219996Y1429997D02*
X2214993Y1435000D01*
X2196358D01*
X2174611Y1456747D01*
X2174578D01*
X2169746Y1461580D01*
Y1461613D01*
X2163361Y1467997D01*
X2131285D01*
X2121283Y1478000D01*
X2096302D01*
X2081052Y1462750D01*
X2069052D01*
X2066302Y1460000D01*
X2062499D01*
X2062496Y1459997D01*
X2070501Y1459250D02*
X2082501D01*
X2097751Y1474500D01*
X2119833D01*
X2129836Y1464497D01*
X2161912D01*
X2166246Y1460163D01*
Y1460130D01*
X2173129Y1453247D01*
X2173162D01*
X2196409Y1430000D01*
X2212500D01*
X2214000Y1449000D02*
Y1453213D01*
X2210463Y1456750D01*
X2210200D01*
X2196746Y1470204D01*
Y1472764D01*
X2177009Y1492500D01*
X2146833D01*
X2144083Y1495250D01*
X2133731D01*
X2129981Y1499000D01*
X2087603D01*
X2073302Y1484698D01*
X2073302D01*
X2072000Y1486000D01*
X2071779Y1492497D02*
X2076151D01*
X2086154Y1502500D01*
X2131431D01*
X2135181Y1498750D01*
X2145533D01*
X2148282Y1496000D01*
X2178459D01*
X2200246Y1474213D01*
Y1471917D01*
X2220000Y1452163D01*
Y1446000D01*
X2222496Y1457497D02*
Y1457851D01*
X2235841Y1471196D01*
Y1492140D01*
X2233750Y1494231D01*
Y1526200D01*
X2217450Y1542500D01*
X2106651D01*
X2104901Y1540750D01*
X2095901D01*
X2049401Y1494250D01*
X1995143D01*
X1991393Y1498000D01*
X1967050D01*
X1947550Y1517500D01*
X1925000D01*
X1926200Y1508800D02*
X1951300D01*
X1965601Y1494500D01*
X1989944D01*
X1993694Y1490750D01*
X2050851D01*
X2097351Y1537250D01*
X2106351D01*
X2108100Y1539000D01*
X2216000D01*
X2230250Y1524750D01*
Y1492781D01*
X2232341Y1490691D01*
Y1474767D01*
X2222068Y1464495D01*
X2222000Y1471144D02*
Y1507000D01*
X2195003Y1533997D01*
X2191996D01*
X2195000Y1526000D02*
Y1524000D01*
X2218392Y1500608D01*
Y1475314D01*
X2214360Y1471281D01*
X2215000Y1466135D02*
X2215996Y1465139D01*
X2222000Y1471144D01*
X2215000Y1466135D02*
X2214996Y1466130D01*
Y1464997D01*
X2208496Y1453504D02*
X2193246Y1468754D01*
Y1471314D01*
X2175559Y1489000D01*
X2145383D01*
X2142633Y1491750D01*
X2132281D01*
X2128531Y1495500D01*
X2089053D01*
X2073803Y1480250D01*
X2054087D01*
X2052837Y1479000D01*
X1928349D01*
X1882050Y1525299D01*
X1882000D01*
Y1564601D01*
X1887899Y1570500D01*
X1906950D01*
X1928000Y1591550D01*
Y1610500D01*
X1937500Y1620000D01*
X1990000D01*
X1952500Y1540000D02*
Y1517500D01*
X1968500Y1501500D01*
X1992843D01*
X1996593Y1497750D01*
X2047951D01*
X2094451Y1544250D01*
X2103451D01*
X2105201Y1546000D01*
X2218900D01*
X2237250Y1527649D01*
Y1495681D01*
X2239341Y1493590D01*
Y1467625D01*
X2229073Y1457358D01*
X2228822D01*
X2208496Y1453504D02*
Y1452000D01*
X2257424Y1429139D02*
X2290000Y1461716D01*
Y1473050D01*
X2260000Y1503050D01*
X2260169Y1503220D01*
Y1507331D01*
X2252500Y1501998D02*
Y1532500D01*
X2260000Y1540000D01*
X2247750Y1531999D02*
X2222499Y1557250D01*
X2097750D01*
X2095000Y1560000D01*
X2100000Y1552500D02*
X2100901Y1551599D01*
X2100901D01*
X2102302Y1553000D01*
X2221799D01*
X2244250Y1530549D01*
Y1498580D01*
X2246341Y1496490D01*
Y1493659D01*
X2262500Y1477500D01*
X2262450Y1482500D02*
X2267500D01*
X2262450D02*
X2249841Y1495109D01*
Y1497939D01*
X2247750Y1500030D01*
Y1531999D01*
X2240750Y1529099D02*
Y1497131D01*
X2242841Y1495040D01*
Y1491449D01*
X2249091Y1485199D01*
X2213642Y1477281D02*
X2212179Y1475818D01*
X2206682D01*
X2203426Y1479074D01*
Y1502574D01*
X2174000Y1532000D01*
X2111000D01*
X2109250Y1530250D01*
X2100250D01*
X2053750Y1483750D01*
X1990794D01*
X1987044Y1487500D01*
X1955000D01*
X1952500Y1490000D01*
Y1500000D01*
X1950000Y1502500D01*
X1960000Y1492500D02*
X1961500Y1491000D01*
X1988494D01*
X1992244Y1487250D01*
X2052300D01*
X2098800Y1533750D01*
X2107800D01*
X2109550Y1535500D01*
X2175450D01*
X2208692Y1502258D01*
Y1480817D01*
X2293500Y1460266D02*
Y1474500D01*
X2265000Y1503000D01*
Y1521718D01*
X2268282Y1525000D01*
X2275000D01*
X2281000Y1526550D02*
Y1501849D01*
X2304000Y1478849D01*
Y1455917D01*
X2281000Y1432917D01*
Y1424431D01*
X2271566Y1414997D01*
X2277500Y1413860D02*
X2284500Y1420860D01*
Y1431467D01*
X2307500Y1454467D01*
Y1480299D01*
X2284500Y1503299D01*
Y1528000D01*
X2235000Y1577500D01*
X2155000D01*
X2142500Y1590000D01*
X2141136Y1585000D02*
X2152136Y1574000D01*
X2202500D01*
X2203975Y1572525D01*
X2235025D01*
X2281000Y1526550D01*
X2288000Y1532000D02*
Y1504749D01*
X2311000Y1481749D01*
Y1453017D01*
X2288000Y1430017D01*
Y1414899D01*
X2282101Y1409000D01*
X2268950D01*
X2260453Y1417497D01*
X2254996D01*
Y1409997D02*
X2263003D01*
X2267500Y1405500D01*
X2283550D01*
X2291500Y1413450D01*
Y1428568D01*
X2314500Y1451568D01*
Y1483199D01*
X2291500Y1506198D01*
Y1536000D01*
X2242500Y1585000D01*
X2232500Y1587500D02*
X2288000Y1532000D01*
X2295000Y1550000D02*
Y1507648D01*
X2318000Y1484648D01*
Y1450118D01*
X2295000Y1427118D01*
Y1412000D01*
X2285000Y1402000D01*
X2263000D01*
X2260000Y1405000D01*
X2256745Y1388414D02*
X2263331Y1395000D01*
X2325000D01*
X2350000Y1420000D01*
X2343000Y1422899D02*
Y1512899D01*
X2360101Y1530000D01*
X2385000D01*
X2412750Y1557750D01*
X2451532D01*
X2452032Y1558250D01*
X2455967D01*
X2459250Y1554968D01*
Y1539250D01*
X2457500Y1537500D01*
X2455000D01*
X2447500Y1567500D02*
X2460000Y1580000D01*
Y1592000D01*
X2447500Y1567500D02*
X2312500D01*
X2306000Y1574000D01*
X2287000D01*
X2282250Y1575968D02*
X2285033Y1578750D01*
X2289467D01*
X2289718Y1579000D01*
X2328000D01*
X2333000Y1574000D01*
X2303000Y1598000D02*
X2302000D01*
X2287500Y1583500D01*
X2282250Y1575968D02*
Y1567750D01*
X2284003Y1565997D01*
X2285995D01*
X2295000Y1550000D02*
X2260476Y1584524D01*
X2260000D01*
X2232500Y1587500D02*
X2177500D01*
X2220349Y1549500D02*
X2240750Y1529099D01*
X2220349Y1549500D02*
X2103751D01*
X2102001Y1547750D01*
X2093001D01*
X2092751Y1547500D01*
X2082500D01*
X2055000Y1575000D01*
X2055537Y1476750D02*
X2075253D01*
X2090503Y1492000D01*
X2127081D01*
X2130831Y1488250D01*
X2141183D01*
X2143933Y1485500D01*
X2174110D01*
X2189746Y1469864D01*
Y1467305D01*
X2202496Y1454555D01*
Y1452497D01*
X2197500Y1454601D02*
X2186246Y1465855D01*
Y1468414D01*
X2172660Y1482000D01*
X2142484D01*
X2139734Y1484750D01*
X2129382D01*
X2125632Y1488500D01*
X2091952D01*
X2076703Y1473250D01*
X2056987D01*
X2055737Y1472000D01*
X1925450D01*
X1910200Y1487250D01*
X1910150D01*
X1875000Y1522399D01*
Y1567500D01*
X1885000Y1577500D01*
X1900000D01*
X1919750Y1597250D01*
Y1597750D01*
X1920000Y1605000D02*
Y1630000D01*
X1930000Y1640000D01*
Y1630000D02*
X1960000D01*
X2016000Y1610000D02*
X2027000Y1621000D01*
X2016000Y1610000D02*
Y1606000D01*
X2054287Y1475500D02*
X2055537Y1476750D01*
X2054287Y1475500D02*
X1926900D01*
X1884925Y1517475D01*
X1884874D01*
X1878500Y1523849D01*
Y1566050D01*
X1886450Y1574000D01*
X1905500D01*
X1924500Y1593000D01*
Y1624500D01*
X1930000Y1630000D01*
X1920000Y1605000D02*
X1907525Y1592525D01*
X1884975D01*
X1858500Y1566050D01*
Y1513950D01*
X1866450Y1506000D01*
X1886450D01*
X1908700Y1483750D01*
X1908750D01*
X1924000Y1468500D01*
X2057186D01*
X2058436Y1469750D01*
X2078152D01*
X2093402Y1485000D01*
X2124182D01*
X2127932Y1481250D01*
X2138284D01*
X2141034Y1478500D01*
X2171210D01*
X2182746Y1466965D01*
Y1461254D01*
X2182858Y1461142D01*
X2176061Y1460247D02*
X2176028D01*
X2173246Y1463030D01*
Y1463062D01*
X2164811Y1471497D01*
X2134503D01*
X2133000Y1473000D01*
X2154996Y1504997D02*
Y1514996D01*
X2160000Y1520000D01*
X2160462Y1460997D02*
X2162746Y1458713D01*
Y1458680D01*
X2171679Y1449747D01*
X2160462Y1460997D02*
X2128386D01*
X2118383Y1471000D01*
X2099201D01*
X2083951Y1455750D01*
X2071951D01*
X2065951Y1449750D01*
X2060234D01*
X2058984Y1448500D01*
X2029550D01*
X2026303Y1451747D01*
X2013253D01*
X2010000Y1455000D01*
Y1457500D01*
X2027500Y1455500D02*
Y1460000D01*
Y1455500D02*
X2031000Y1452000D01*
X2057534D01*
X2058784Y1453250D01*
X2064501D01*
X2070501Y1459250D01*
X2064750Y1485000D02*
X2064283D01*
X2071779Y1492497D01*
X2197500Y1454601D02*
Y1447500D01*
X2210000Y1397500D02*
X2214000Y1393500D01*
X2221450D01*
X2231450Y1383500D01*
X2253550D01*
X2256745Y1386695D01*
Y1388414D01*
X2262007Y1380000D02*
X2262500D01*
X2262007D02*
X2261758Y1379750D01*
X2306000Y1402000D02*
X2322101D01*
X2343000Y1422899D01*
X2324000Y1450000D02*
X2298500Y1424500D01*
Y1409500D01*
X2306000Y1402000D01*
X2277500Y1428003D02*
Y1434366D01*
X2300500Y1457366D01*
Y1477399D01*
X2277500Y1500399D01*
Y1517500D01*
X2275000Y1520000D01*
X2270000D01*
Y1505000D02*
X2274000Y1501000D01*
Y1498950D01*
X2297000Y1475950D01*
Y1458816D01*
X2274000Y1435816D01*
Y1431573D01*
X2264495Y1422068D01*
X2270429Y1420932D02*
X2277500Y1428003D01*
X2270500Y1435145D02*
Y1437266D01*
X2293500Y1460266D01*
X2270500Y1435145D02*
X2263358Y1428002D01*
X2195890Y1325533D02*
X2195640Y1325282D01*
Y1324929D01*
X2190710Y1320000D01*
X1970000Y1335101D02*
Y1300000D01*
X1931550Y1446000D02*
X1905050Y1472500D01*
X1900000D01*
X1926200Y1508800D02*
X1907500Y1527500D01*
Y1552500D01*
X1900000Y1560000D01*
X1890000D01*
X1855000Y1567500D02*
X1895000Y1607500D01*
X1910000D01*
X1855000Y1567500D02*
Y1512500D01*
X2107500Y1585000D02*
X2141136D01*
D16*
X1999400Y1610600D02*
Y1649400D01*
X2014299Y1634500D01*
X2094247D01*
X2094497Y1634750D01*
X2100503D01*
X2100753Y1634500D01*
X2101831D01*
X2106931Y1629400D01*
X2119400D01*
X2155035Y1609400D02*
X2199400D01*
X2229399D01*
X2239399Y1619400D01*
X2368100D01*
X2382500Y1605000D01*
X2402500D01*
X2405500Y1608000D01*
X2440500D01*
X2460000Y1627500D01*
X2520000D01*
X2544400Y1603100D01*
Y1554400D01*
X2425000Y1590000D02*
X2377500D01*
X2375000Y1592500D01*
Y1597500D01*
X2005600Y1604400D02*
X1999400Y1610600D01*
D17*
X2080000Y1585000D02*
X2089750D01*
X2474400Y1345600D02*
X2509400Y1380600D01*
Y1380601D02*
X2539400Y1410601D01*
Y1425601D01*
X2544400Y1430602D01*
Y1554400D01*
D18*
X2051002Y1673998D02*
X2055000Y1670000D01*
X2057500D01*
X2062500Y1665000D01*
X2051002Y1673998D02*
Y1687500D01*
D19*
X2317500Y1702000D02*
D03*
X2399500D02*
D03*
D20*
X2013750Y1687250D02*
D03*
X2062250D02*
D03*
X2338500Y1689500D02*
D03*
X2358500D02*
D03*
Y1714500D02*
D03*
X2338500D02*
D03*
X2378500D02*
D03*
Y1689500D02*
D03*
D21*
X2194600Y1210000D02*
D03*
X2505000Y1478000D02*
D03*
Y1503400D02*
D03*
Y1528800D02*
D03*
Y1554200D02*
D03*
Y1579600D02*
D03*
X2359600Y1650000D02*
D03*
D22*
X2505000Y1605000D02*
D03*
D23*
X2001750Y1714000D02*
D03*
X2074250D02*
D03*
D24*
X2220000Y1210000D02*
D03*
X2385000Y1650000D02*
D03*
D25*
X1785000Y1414000D02*
D03*
X1817000Y1349000D02*
D03*
X1881020Y1283520D02*
D03*
X1913520Y1251020D02*
D03*
X1978520Y1186020D02*
D03*
X1996480Y1203980D02*
D03*
X2011020Y1153520D02*
D03*
X2043520Y1121020D02*
D03*
X2076020Y1088520D02*
D03*
X2141020Y1023520D02*
D03*
X2175000Y993000D02*
D03*
X2223980Y1008980D02*
D03*
X2256480Y1041480D02*
D03*
X2288980Y1073980D02*
D03*
X2321480Y1106480D02*
D03*
X2353980Y1138980D02*
D03*
X2386480Y1171480D02*
D03*
X2418980Y1203980D02*
D03*
X2451481Y1236480D02*
D03*
X2483980Y1268980D02*
D03*
X2516480Y1301480D02*
D03*
X2548980Y1333980D02*
D03*
X2581480Y1366480D02*
D03*
X2613980Y1431481D02*
D03*
Y1463980D02*
D03*
Y1496480D02*
D03*
X2612000Y1528000D02*
D03*
X2581480Y1561480D02*
D03*
Y1593980D02*
D03*
X2548980Y1626480D02*
D03*
X2516480Y1658980D02*
D03*
X2483980Y1691481D02*
D03*
X2451481D02*
D03*
X2418980Y1723980D02*
D03*
X2466020Y1673520D02*
D03*
X2288980Y1691481D02*
D03*
X2303520Y1706020D02*
D03*
X2256480Y1691481D02*
D03*
X2223980Y1658980D02*
D03*
X2158000Y1691000D02*
D03*
X2191000Y1658000D02*
D03*
X2126480Y1691481D02*
D03*
X2093980Y1723980D02*
D03*
X1978520Y1706020D02*
D03*
X1963980Y1691481D02*
D03*
X1931480D02*
D03*
X1913520Y1673520D02*
D03*
X1898980Y1658980D02*
D03*
X1881020Y1641020D02*
D03*
X1866480Y1626480D02*
D03*
X1848519Y1608520D02*
D03*
X1833980Y1593980D02*
D03*
X1816020Y1576020D02*
D03*
Y1543520D02*
D03*
X1801480Y1528980D02*
D03*
X1784000Y1511000D02*
D03*
X1783520Y1478520D02*
D03*
Y1446020D02*
D03*
X1816020Y1381020D02*
D03*
X1848519Y1316020D02*
D03*
X1946020Y1218520D02*
D03*
X2028980Y1171480D02*
D03*
X2061480Y1138980D02*
D03*
X2093980Y1106480D02*
D03*
X2108519Y1056020D02*
D03*
X2126480Y1073980D02*
D03*
X2162500Y1045000D02*
D03*
X2191480Y1008980D02*
D03*
D26*
X1805000Y1402500D02*
D03*
X1854996Y1355004D02*
D03*
X1882500Y1360670D02*
D03*
X1880000Y1330000D02*
D03*
X1920000Y1310670D02*
D03*
X1937500Y1283155D02*
D03*
X1967500Y1222500D02*
D03*
X2010000Y1240000D02*
D03*
Y1252500D02*
D03*
X2030000Y1220670D02*
D03*
X2022500Y1212500D02*
D03*
X2064635Y1185670D02*
D03*
X2100000Y1175000D02*
D03*
X2100965Y1154500D02*
D03*
X2102500Y1115000D02*
D03*
X2100000Y1090000D02*
D03*
X2117500Y1087500D02*
D03*
X2145000Y1079000D02*
D03*
X2200000Y1050670D02*
D03*
X2192500Y1042500D02*
D03*
X2205000Y1035000D02*
D03*
X2187500Y1020000D02*
D03*
X2215000D02*
D03*
X2227500Y1067500D02*
D03*
X2239400Y1079965D02*
D03*
X2245000Y1100000D02*
D03*
X2269400Y1125600D02*
D03*
X2347500Y1152500D02*
D03*
X2344400Y1204965D02*
D03*
X2335000Y1202500D02*
D03*
X2374400Y1240600D02*
D03*
X2407500Y1230000D02*
D03*
X2437500Y1262500D02*
D03*
X2444400Y1310600D02*
D03*
X2425000Y1310000D02*
D03*
X2474400Y1345600D02*
D03*
X2515000Y1330000D02*
D03*
X2555000Y1392500D02*
D03*
X2562500Y1390000D02*
D03*
X2539400Y1425601D02*
D03*
X2590000Y1472500D02*
D03*
X2580000Y1507500D02*
D03*
X2597500Y1545000D02*
D03*
X2572500Y1577500D02*
D03*
Y1612500D02*
D03*
X2537500Y1625000D02*
D03*
X2545000Y1560000D02*
D03*
X2544400Y1554400D02*
D03*
X2472500Y1477500D02*
D03*
X2480000Y1435000D02*
D03*
X2502500D02*
D03*
X2522500Y1445000D02*
D03*
X2502500Y1417500D02*
D03*
X2490000Y1415000D02*
D03*
X2480000D02*
D03*
X2472500D02*
D03*
X2479995Y1382497D02*
D03*
X2475000Y1372500D02*
D03*
X2509400Y1380601D02*
D03*
X2510000Y1405000D02*
D03*
X2457500Y1440000D02*
D03*
X2453500Y1444000D02*
D03*
X2432500Y1450000D02*
D03*
X2430000Y1383000D02*
D03*
X2437500D02*
D03*
X2432170Y1352500D02*
D03*
X2454995Y1344997D02*
D03*
X2390000Y1387500D02*
D03*
X2385000Y1335000D02*
D03*
X2367500Y1307902D02*
D03*
X2390000Y1272500D02*
D03*
X2409400Y1275601D02*
D03*
X2355000Y1318030D02*
D03*
X2336592Y1297500D02*
D03*
X2332500Y1293408D02*
D03*
X2362500Y1237500D02*
D03*
X2300000D02*
D03*
X2292500Y1165000D02*
D03*
X2309400Y1165600D02*
D03*
X2257500Y1125000D02*
D03*
X2177500Y1170000D02*
D03*
X2184330Y1109330D02*
D03*
X2165670Y1110670D02*
D03*
X2165000Y1095000D02*
D03*
X2177500Y1072500D02*
D03*
X2200000Y1100000D02*
D03*
X2150000Y1145000D02*
D03*
X2142500Y1142500D02*
D03*
X2125000Y1135000D02*
D03*
X2130600Y1194399D02*
D03*
X2110000Y1217500D02*
D03*
X2154571Y1265027D02*
D03*
X2190710Y1320000D02*
D03*
X2191140Y1327500D02*
D03*
X2184069D02*
D03*
X2205000Y1342500D02*
D03*
X2204996Y1349997D02*
D03*
X2202750Y1357500D02*
D03*
X2207500Y1362500D02*
D03*
X2245000Y1305000D02*
D03*
X2240000Y1290000D02*
D03*
X2275000Y1335000D02*
D03*
X2300000Y1322500D02*
D03*
X2273161Y1383408D02*
D03*
X2270000Y1390000D02*
D03*
X2264996Y1384997D02*
D03*
X2261758Y1379750D02*
D03*
X2271566Y1414997D02*
D03*
X2277500Y1413860D02*
D03*
X2315995Y1427997D02*
D03*
X2324000Y1450000D02*
D03*
X2366000Y1471000D02*
D03*
X2467500Y1477500D02*
D03*
X2457500Y1513500D02*
D03*
X2453500D02*
D03*
X2455000Y1537500D02*
D03*
X2454500Y1545500D02*
D03*
X2453999Y1553501D02*
D03*
X2452500Y1590000D02*
D03*
X2460000Y1592000D02*
D03*
X2427500Y1590000D02*
D03*
X2430000Y1597500D02*
D03*
X2423250Y1598000D02*
D03*
X2435000Y1655000D02*
D03*
X2390000Y1712500D02*
D03*
X2337500Y1650000D02*
D03*
X2335000Y1585000D02*
D03*
X2333000Y1574000D02*
D03*
X2347500Y1552500D02*
D03*
X2375500Y1545750D02*
D03*
X2390000Y1552500D02*
D03*
X2417500Y1562500D02*
D03*
Y1542500D02*
D03*
X2385000Y1597500D02*
D03*
X2375000D02*
D03*
Y1592500D02*
D03*
X2290000Y1707500D02*
D03*
X2287500Y1642500D02*
D03*
Y1583500D02*
D03*
X2303000Y1598000D02*
D03*
X2287000Y1574000D02*
D03*
X2285995Y1565997D02*
D03*
X2302500Y1550000D02*
D03*
X2275000Y1525000D02*
D03*
X2270000Y1520000D02*
D03*
Y1505000D02*
D03*
X2267500Y1482500D02*
D03*
X2262500Y1477500D02*
D03*
X2263358Y1428002D02*
D03*
X2264495Y1422068D02*
D03*
X2270429Y1420932D02*
D03*
X2244341Y1483232D02*
D03*
X2252500Y1501998D02*
D03*
X2260169Y1507331D02*
D03*
X2213642Y1477281D02*
D03*
X2208692Y1480817D02*
D03*
X2214360Y1471281D02*
D03*
X2214996Y1464997D02*
D03*
X2222068Y1464495D02*
D03*
X2222496Y1457497D02*
D03*
X2228822Y1457358D02*
D03*
X2236211Y1450353D02*
D03*
X2242145Y1449216D02*
D03*
X2220000Y1446000D02*
D03*
X2214000Y1449000D02*
D03*
X2208496Y1452000D02*
D03*
X2212500Y1430000D02*
D03*
X2219996Y1429997D02*
D03*
X2227500Y1430000D02*
D03*
X2237496Y1427497D02*
D03*
X2237500Y1420000D02*
D03*
X2257424Y1429139D02*
D03*
X2254996Y1417497D02*
D03*
Y1409997D02*
D03*
X2260000Y1405000D02*
D03*
X2232500D02*
D03*
X2235000Y1412500D02*
D03*
X2210000Y1397500D02*
D03*
X2212500Y1373497D02*
D03*
X2212496Y1367497D02*
D03*
X2197500Y1447500D02*
D03*
X2202496Y1452497D02*
D03*
X2182858Y1461142D02*
D03*
X2177996Y1464997D02*
D03*
X2171996Y1421997D02*
D03*
X2165996Y1419997D02*
D03*
X2162996Y1426997D02*
D03*
X2170996Y1415997D02*
D03*
X2190000Y1407000D02*
D03*
X2205496Y1402500D02*
D03*
X2207496Y1384997D02*
D03*
Y1377497D02*
D03*
X2162500Y1377500D02*
D03*
X2105000Y1448000D02*
D03*
X2122145Y1407145D02*
D03*
X2122395Y1399823D02*
D03*
X2115000Y1400000D02*
D03*
X2130000Y1406361D02*
D03*
X2136500Y1405352D02*
D03*
X2142500Y1402500D02*
D03*
Y1395000D02*
D03*
X2147500Y1390000D02*
D03*
X2147496Y1384000D02*
D03*
X2155000Y1375000D02*
D03*
X2116000Y1354000D02*
D03*
X2083740Y1350000D02*
D03*
X2086000Y1364000D02*
D03*
X2095000Y1318234D02*
D03*
X2069216Y1282500D02*
D03*
X2075000Y1247500D02*
D03*
X2075600Y1229400D02*
D03*
X2070000Y1210000D02*
D03*
X2045000Y1152500D02*
D03*
X2027496Y1152498D02*
D03*
X1990000Y1277500D02*
D03*
X1972500Y1290670D02*
D03*
X1970000Y1300000D02*
D03*
X1950000Y1270000D02*
D03*
X1980000Y1320000D02*
D03*
X1977500Y1327500D02*
D03*
X1982500Y1335000D02*
D03*
X2075000Y1422000D02*
D03*
X2068000Y1431000D02*
D03*
X2062496Y1459997D02*
D03*
X2133000Y1473000D02*
D03*
X2150000Y1501000D02*
D03*
X2154996Y1504997D02*
D03*
X2118000Y1524000D02*
D03*
X2160000Y1520000D02*
D03*
X2215000Y1525000D02*
D03*
X2260000Y1540000D02*
D03*
Y1584524D02*
D03*
X2242500Y1585000D02*
D03*
X2239399Y1619400D02*
D03*
X2199400Y1609400D02*
D03*
X2159399D02*
D03*
X2177500Y1587500D02*
D03*
X2191996Y1533997D02*
D03*
X2195000Y1526000D02*
D03*
X2142500Y1590000D02*
D03*
X2155035Y1609400D02*
D03*
X2119400Y1629400D02*
D03*
X2115035D02*
D03*
X2107500Y1585000D02*
D03*
X2124000Y1567000D02*
D03*
X2145000Y1567500D02*
D03*
X2097500Y1627500D02*
D03*
X2095000Y1560000D02*
D03*
X2100000Y1552500D02*
D03*
X2084750Y1541266D02*
D03*
X2072000Y1572000D02*
D03*
X2055000Y1575000D02*
D03*
X2064750Y1485000D02*
D03*
X2072000Y1486000D02*
D03*
X2030000Y1532500D02*
D03*
Y1540000D02*
D03*
X2025000Y1537500D02*
D03*
Y1545000D02*
D03*
Y1552500D02*
D03*
X2030000Y1550000D02*
D03*
Y1557500D02*
D03*
X2025000Y1530000D02*
D03*
X2010000Y1502500D02*
D03*
X2040000D02*
D03*
X2048000Y1459000D02*
D03*
X2027500Y1460000D02*
D03*
X2010000Y1457500D02*
D03*
X2002000Y1460000D02*
D03*
X1960000Y1492500D02*
D03*
X1950000Y1502500D02*
D03*
X1952500Y1540000D02*
D03*
X1980600Y1549400D02*
D03*
X1987500Y1552500D02*
D03*
Y1527500D02*
D03*
X2005600Y1604400D02*
D03*
X2016000Y1606000D02*
D03*
X2027000Y1621000D02*
D03*
X2035000Y1620000D02*
D03*
X2039400Y1659400D02*
D03*
X2015000Y1672500D02*
D03*
X1999400Y1649400D02*
D03*
X2077500Y1685000D02*
D03*
X2102500Y1712500D02*
D03*
X2155000Y1662500D02*
D03*
X1967500Y1705000D02*
D03*
X1975000Y1675000D02*
D03*
X1959400Y1649400D02*
D03*
X1960000Y1630000D02*
D03*
X1990000Y1620000D02*
D03*
X1950600Y1589400D02*
D03*
X1930000Y1640000D02*
D03*
X1929996Y1622497D02*
D03*
X1919750Y1597750D02*
D03*
X1910000Y1607500D02*
D03*
X1893000Y1584500D02*
D03*
X1920600Y1539400D02*
D03*
X1925000Y1517500D02*
D03*
X1920000Y1502500D02*
D03*
X1900000Y1472500D02*
D03*
Y1460000D02*
D03*
Y1420670D02*
D03*
X1932500Y1437500D02*
D03*
X1850000Y1480670D02*
D03*
X1852500Y1490000D02*
D03*
X1850000Y1440670D02*
D03*
X1877500Y1450000D02*
D03*
X1850000Y1400500D02*
D03*
X1870000Y1550670D02*
D03*
X1890000Y1560000D02*
D03*
X1850000Y1627500D02*
D03*
X1805000Y1557500D02*
D03*
X1802500Y1540000D02*
D03*
X2540000Y1652500D02*
D03*
D27*
X2001500Y1515000D02*
D03*
Y1520000D02*
D03*
X2048000D02*
D03*
Y1515000D02*
D03*
X2088000Y1572500D02*
D03*
X2089750Y1585000D02*
D03*
X2080000D02*
D03*
Y1605000D02*
D03*
X2087500D02*
D03*
X2072500D02*
D03*
X2062500Y1665000D02*
D03*
X2055000Y1670000D02*
D03*
X2325670Y1572500D02*
D03*
X2332588Y1595000D02*
D03*
X2340000D02*
D03*
X2420000Y1622500D02*
D03*
Y1630000D02*
D03*
D28*
X2021000Y1709000D02*
D03*
X2041000Y1715000D02*
D03*
X2037000Y1724000D02*
D03*
X2149686Y1519000D02*
D03*
X2076678Y1430000D02*
D03*
X2086000Y1377500D02*
D03*
X2222000Y1288000D02*
D03*
X2338059Y1450000D02*
D03*
X2313000Y1422500D02*
D03*
X2257000Y1513000D02*
D03*
X2243000Y1548000D02*
D03*
M02*
