G04 Layer_Color=65535*
%FSLAX44Y44*%
%MOMM*%
G71*
G01*
G75*
%ADD12C,0.5000*%
%ADD14C,0.3000*%
%ADD15C,0.2000*%
%ADD29C,0.1500*%
D12*
X2190000Y1460000D02*
G03*
X2190000Y1460000I-180000J0D01*
G01*
X2220000Y1300000D02*
X2470000D01*
Y1600000D01*
X2220000D01*
Y1300000D01*
D14*
X2001000Y1687500D02*
X2005000D01*
X2001000D02*
Y1702500D01*
Y1725500D02*
Y1736500D01*
X2075000D01*
Y1725500D01*
Y1702500D02*
Y1687500D01*
X2071000D01*
X2315500Y1667500D02*
Y1689500D01*
Y1714500D02*
Y1736500D01*
X2401500D01*
Y1714500D01*
Y1689500D02*
Y1667500D01*
X2315500D01*
D15*
X2050000Y1220000D02*
X2054713D01*
Y1215287D01*
X2061781Y1222356D01*
Y1217644D02*
X2062959Y1216466D01*
X2058247Y1211753D01*
X2059425Y1210575D01*
X2057069Y1212931D01*
X2067672Y1211753D02*
X2070028Y1209397D01*
X2068850Y1210575D01*
X2067672Y1211753D01*
X2070028D02*
X2068850Y1210575D01*
X2065316Y1207041D01*
X2065316Y1204684D01*
X2072384D02*
X2074741Y1204684D01*
X2077097Y1202328D01*
Y1199972D01*
X2073563Y1196437D01*
X2068850Y1201150D02*
X2072384Y1204684D01*
X2075919Y1208219D02*
X2068850Y1201150D01*
X2067069Y1187069D02*
X2060000Y1180000D01*
X2063534Y1176466D01*
X2065891D01*
X2067069Y1177644D01*
X2067069Y1180000D01*
X2063534Y1183534D01*
X2067069Y1180000D01*
X2069425D01*
X2070603Y1181178D01*
Y1183534D01*
X2067069Y1187069D01*
X2068247Y1174109D02*
Y1171753D01*
X2071781Y1168219D01*
X2070603Y1167041D01*
X2068247D01*
X2067069Y1168219D01*
X2071781D02*
X2076494Y1172931D01*
X2071781Y1177644D02*
X2068247Y1174109D01*
X2082988Y1187012D02*
X2087700Y1182300D01*
X2091235Y1181122D02*
Y1178765D01*
X2093591Y1176409D01*
X2095947Y1176409D01*
X2098303Y1178765D01*
Y1181122D01*
X2095947Y1183478D01*
X2093591Y1183478D01*
X2091235Y1181122D01*
X2101838Y1177587D02*
X2099482Y1170518D01*
X2106550Y1172875D01*
X2107728Y1169340D02*
X2110085D01*
X2112441Y1166984D01*
Y1164628D01*
X2111263Y1163450D01*
X2106550Y1168162D01*
X2105372Y1166984D02*
X2107728Y1169340D01*
X2105372Y1166984D02*
Y1164628D01*
X2107728Y1162272D01*
X2103591Y1145834D02*
X2097700Y1147012D01*
X2098878Y1141122D01*
X2102413Y1137587D02*
X2105947Y1134053D01*
X2108303D01*
Y1136409D01*
X2105947Y1138765D01*
Y1141122D01*
X2108303D01*
X2111838Y1137587D01*
X2114194Y1135231D02*
X2110660Y1131697D01*
Y1129340D01*
X2114194Y1125806D01*
X2113016Y1124628D01*
X2110660D01*
X2109482Y1125806D01*
X2114194D02*
X2118907Y1130518D01*
X2121263Y1128162D02*
X2122441Y1126984D01*
Y1124628D01*
X2118907Y1121093D01*
X2122441Y1124628D01*
X2124797Y1124628D01*
Y1122272D01*
X2121263Y1118737D01*
X2116550Y1123450D02*
X2121263Y1128162D01*
X2130688Y1109312D02*
X2137757Y1116381D01*
X2135400Y1104600D01*
X2142469Y1111668D01*
X2143647Y1105778D02*
X2146004Y1103421D01*
Y1101065D01*
X2142469Y1097531D01*
X2138935Y1101065D01*
Y1103421D01*
X2141291Y1103421D01*
X2144825Y1099887D01*
X2149538Y1099887D02*
X2146004Y1096353D01*
Y1093996D01*
X2149538Y1090462D01*
X2154250Y1095174D01*
X2151894Y1088106D02*
X2156607Y1092818D01*
X2157785Y1091640D01*
Y1089284D01*
X2154250Y1085750D01*
X2157785Y1089284D01*
X2160141D01*
Y1086928D01*
X2156607Y1083393D01*
X2160141Y1082215D02*
Y1079859D01*
X2163676Y1076324D01*
X2166032Y1073968D02*
X2169566Y1077503D01*
X2171922Y1077503D01*
X2174279Y1075146D01*
Y1072790D01*
X2170744Y1069256D01*
X2174279Y1068077D02*
Y1065721D01*
X2177813Y1062187D01*
X2182526Y1066899D01*
Y1062187D02*
X2188416Y1061009D01*
X2187238Y1066899D02*
X2180169Y1059831D01*
X2182526Y1062187D02*
X2183704Y1056296D01*
X2177813Y1071612D02*
X2174279Y1068077D01*
X2173101Y1081037D02*
X2166032Y1073968D01*
X2168388Y1081037D02*
X2164854Y1084571D01*
X2162498Y1084571D01*
X2160141Y1082215D01*
X2232700Y1197300D02*
Y1222700D01*
X2181900D01*
Y1197300D01*
X2232700D01*
X2057069Y1227069D02*
X2050000Y1220000D01*
X2082988Y1187012D02*
X2090056Y1194081D01*
X2088275Y1165862D02*
Y1161150D01*
X2092988D01*
X2085919Y1154081D01*
X2089453Y1152903D02*
X2091810Y1152903D01*
X2095344Y1149369D01*
X2096522Y1150547D02*
X2092988Y1147012D01*
X2089453Y1150547D01*
Y1152903D01*
X2094166Y1155259D02*
X2096522Y1152903D01*
Y1150547D01*
X2095344Y1144656D02*
X2102413Y1151725D01*
X2081206Y1158794D02*
X2088275Y1165862D01*
X2492300Y1465300D02*
Y1617700D01*
X2517700D01*
Y1465300D01*
X2492300D01*
X2397700Y1637300D02*
Y1662700D01*
X2346900D01*
Y1637300D01*
X2397700D01*
D29*
X2011166Y1320000D02*
X2010000Y1321166D01*
X2011166Y1320000D02*
X2013499D01*
X2014665Y1321166D01*
Y1322333D01*
X2013499Y1323499D01*
X2011166D01*
X2010000Y1324665D01*
Y1325831D01*
X2011166Y1326998D01*
X2013499D01*
X2014665Y1325831D01*
X2016998Y1324665D02*
X2020497D01*
X2021663Y1323499D01*
Y1321166D01*
X2020497Y1320000D01*
X2016998D01*
Y1317667D02*
Y1324665D01*
X2023996Y1323499D02*
X2025162Y1324665D01*
X2027494D01*
X2028661Y1323499D01*
Y1322333D01*
X2023996D01*
Y1321166D02*
Y1323499D01*
Y1321166D02*
X2025162Y1320000D01*
X2027494D01*
X2032159D02*
X2030993Y1321166D01*
X2032159Y1322333D01*
X2035658D01*
Y1323499D02*
Y1320000D01*
X2032159D01*
Y1324665D02*
X2034492D01*
X2035658Y1323499D01*
X2037991Y1322333D02*
X2041490Y1324665D01*
X2044989Y1323499D02*
X2046155Y1324665D01*
X2048488D01*
X2049654Y1323499D01*
Y1322333D01*
X2044989D01*
Y1321166D02*
Y1323499D01*
Y1321166D02*
X2046155Y1320000D01*
X2048488D01*
X2041490D02*
X2037991Y1322333D01*
Y1320000D02*
Y1326998D01*
X2051987Y1324665D02*
Y1320000D01*
Y1322333D01*
X2053153Y1323499D01*
X2054319Y1324665D01*
X2055485D01*
X2065982Y1325831D02*
X2067148Y1326998D01*
X2069481D01*
X2070647Y1325831D01*
Y1324665D01*
X2069481Y1323499D01*
X2068315D01*
X2069481D01*
X2070647Y1322333D01*
Y1321166D01*
X2069481Y1320000D01*
X2067148D01*
X2065982Y1321166D01*
X2072980D02*
X2074146Y1320000D01*
X2076479D01*
X2077645Y1321166D01*
Y1322333D01*
X2076479Y1323499D01*
X2072980D01*
Y1321166D01*
Y1323499D02*
X2075312Y1325831D01*
X2077645Y1326998D01*
X2079978Y1324665D02*
X2081144D01*
X2082310Y1323499D01*
Y1320000D01*
Y1323499D01*
X2083476Y1324665D01*
X2084643Y1323499D01*
Y1320000D01*
X2086975D02*
Y1324665D01*
X2088141D01*
X2089308Y1323499D01*
Y1320000D01*
Y1323499D01*
X2090474Y1324665D01*
X2091640Y1323499D01*
Y1320000D01*
X2079978D02*
Y1324665D01*
X2310000Y1313499D02*
X2313499D01*
X2310000D01*
Y1310000D02*
X2313499D01*
X2314665Y1311166D01*
Y1312333D01*
X2313499Y1313499D01*
X2314665Y1314665D01*
Y1315831D01*
X2313499Y1316998D01*
X2310000D01*
Y1310000D01*
X2318164D02*
X2316998Y1311166D01*
X2318164Y1312333D01*
X2321663D01*
Y1313499D02*
Y1310000D01*
X2318164D01*
X2321663Y1313499D02*
X2320497Y1314665D01*
X2318164D01*
X2323996D02*
X2326328D01*
X2325162D01*
X2323996D01*
X2325162D02*
Y1311166D01*
X2326328Y1310000D01*
X2330993Y1311166D02*
X2332159Y1310000D01*
X2330993Y1311166D02*
Y1314665D01*
X2329827D01*
X2332159D01*
X2330993D01*
Y1315831D01*
X2325162D02*
Y1314665D01*
X2336825D02*
X2339157D01*
X2340324Y1313499D01*
Y1312333D01*
X2335658D01*
Y1311166D02*
Y1313499D01*
X2336825Y1314665D01*
X2342656D02*
Y1310000D01*
Y1312333D01*
X2343822Y1313499D01*
X2344989Y1314665D01*
X2346155D01*
X2349654D02*
Y1311166D01*
X2350820Y1310000D01*
X2354319D01*
Y1308834D01*
X2353153Y1307667D01*
X2351987D01*
X2354319Y1310000D02*
Y1314665D01*
X2363649Y1315831D02*
X2364816Y1316998D01*
X2367148D01*
X2368315Y1315831D01*
Y1314665D01*
X2367148Y1313499D01*
X2365982D01*
X2367148D01*
X2368315Y1312333D01*
Y1311166D01*
X2367148Y1310000D01*
X2364816D01*
X2363649Y1311166D01*
X2339157Y1310000D02*
X2336825D01*
X2335658Y1311166D01*
X2370647D02*
X2371814D01*
Y1310000D01*
X2370647D01*
Y1311166D01*
X2376479D02*
Y1310000D01*
Y1311166D02*
X2381144Y1315831D01*
Y1316998D01*
X2376479D01*
X2383476D02*
Y1312333D01*
X2385809Y1310000D01*
X2388142Y1312333D01*
Y1316998D01*
X2397472Y1315831D02*
X2398638Y1316998D01*
X2400971D01*
X2402137Y1315831D01*
Y1314665D01*
X2400971Y1313499D01*
X2399805D01*
X2400971D01*
X2402137Y1312333D01*
Y1311166D01*
X2400971Y1310000D01*
X2398638D01*
X2397472Y1311166D01*
X2404470D02*
Y1315831D01*
X2405636Y1316998D01*
X2407968D01*
X2409135Y1315831D01*
Y1311166D01*
X2407968Y1310000D01*
X2405636D01*
X2404470Y1311166D01*
X2411467Y1310000D02*
X2416133Y1314665D01*
X2413800Y1312333D01*
X2416133Y1310000D01*
X2411467Y1314665D01*
X2418465Y1310000D02*
X2423130Y1314665D01*
Y1315831D01*
X2421964Y1316998D01*
X2419631D01*
X2418465Y1315831D01*
X2425463Y1316998D02*
Y1313499D01*
X2427796Y1314665D01*
X2428962D01*
X2430128Y1313499D01*
Y1311166D01*
X2428962Y1310000D01*
X2426629D01*
X2425463Y1311166D01*
X2423130Y1310000D02*
X2418465D01*
X2432461D02*
X2437126Y1314665D01*
X2434793Y1312333D01*
X2437126Y1310000D01*
X2432461Y1314665D01*
X2430128Y1316998D02*
X2425463D01*
X2441791Y1315831D02*
X2439458Y1313499D01*
Y1311166D01*
X2440625Y1310000D01*
X2442957D01*
X2444124Y1311166D01*
Y1312333D01*
X2442957Y1313499D01*
X2439458D01*
X2448789D02*
Y1310000D01*
Y1313499D01*
X2449955Y1314665D01*
X2451121Y1313499D01*
Y1310000D01*
X2453454D02*
Y1314665D01*
X2454620D01*
X2455786Y1313499D01*
Y1310000D01*
Y1313499D01*
X2456953Y1314665D01*
X2458119Y1313499D01*
Y1310000D01*
X2446456D02*
Y1314665D01*
X2447622D01*
X2448789Y1313499D01*
X2444124Y1316998D02*
X2441791Y1315831D01*
M02*
