G04 Layer_Physical_Order=3*
G04 Layer_Color=16440176*
%FSLAX44Y44*%
%MOMM*%
G71*
G01*
G75*
%ADD12C,0.5000*%
%ADD13C,1.0000*%
%ADD14C,0.3000*%
%ADD15C,0.2000*%
%ADD16C,0.7000*%
%ADD25C,1.2000*%
%ADD26C,0.4500*%
%ADD27C,0.5000*%
%ADD28C,0.4000*%
%ADD31C,0.2000*%
%ADD32C,1.2000*%
D12*
X2086000Y1377500D02*
Y1393500D01*
X2117500Y1425000D01*
X2125000D01*
X2145000Y1445000D01*
X2231250Y1531250D01*
X2257000D01*
X2325670D01*
Y1572500D02*
Y1590670D01*
X2330000Y1595000D01*
X2332588D01*
X2340000D01*
X2360000Y1616997D02*
X2344497Y1632500D01*
X2192500D01*
X2167500Y1607500D01*
Y1575000D01*
X2160000Y1567500D01*
X2145000D01*
X2149686Y1529686D02*
X2167500Y1547500D01*
X2168000Y1548000D01*
X2243000D01*
X2257000Y1531250D02*
Y1513000D01*
X2295000Y1425000D02*
X2297673Y1422327D01*
X2312827D01*
X2295000Y1425000D02*
Y1475000D01*
X2305000Y1485000D01*
X2325670Y1505670D01*
Y1572500D01*
X2360000Y1572500D02*
X2375500Y1557000D01*
Y1545750D01*
X2360000Y1616997D02*
Y1572500D01*
X2295000Y1425000D02*
Y1375000D01*
X2222000Y1302000D01*
Y1288000D01*
X2117500Y1425000D02*
X2099589Y1407089D01*
X2076678Y1430000D01*
X2149686Y1519000D02*
Y1529686D01*
D13*
X2075600Y1229400D02*
X2110600Y1194399D01*
X2130600D01*
X2150300Y1174700D01*
Y1145000D01*
X2176530Y1118770D01*
Y1103470D01*
X2200000Y1080000D01*
X2239365D01*
X2239400Y1079965D01*
Y1079400D01*
X2269400Y1109400D01*
Y1125600D01*
X2270475D01*
X2374400Y1229526D01*
Y1240600D01*
X2444400Y1310600D01*
X2474400Y1340600D01*
Y1345600D01*
X2539400Y1410600D01*
Y1425601D01*
X2540000Y1426201D01*
Y1447500D01*
X2545000Y1452500D01*
Y1560000D01*
Y1562500D01*
X2472500Y1477500D02*
X2467500D01*
X2470000Y1480000D01*
Y1482500D01*
D14*
X2305000Y1483059D02*
X2338059Y1450000D01*
X2305000Y1483059D02*
Y1485000D01*
X2570000Y1427500D02*
Y1550000D01*
X2581480Y1561480D01*
X2570000Y1427500D02*
X2581480Y1416020D01*
Y1366480D01*
D15*
X1967500Y1437500D02*
X2022500Y1382500D01*
Y1212500D01*
X2046000Y1178217D02*
X2117500Y1106718D01*
Y1087500D01*
X2137500Y1091667D02*
Y1052500D01*
X2181020Y1008980D01*
X2191480D01*
X2223980Y1008980D02*
Y1041020D01*
X2202500Y1062500D01*
X2171617D01*
X2053000Y1181117D01*
Y1371900D01*
X1981500Y1443400D01*
Y1531550D01*
X1996000Y1546050D01*
Y1608550D01*
X2031599Y1644150D01*
X2136650D01*
X2141000Y1648500D01*
X2213500D01*
X2223980Y1658980D01*
X2230000Y1645000D02*
X2256480Y1671480D01*
Y1691481D01*
X2239000Y1641500D02*
X2288980Y1691481D01*
X2239000Y1641500D02*
X2162500D01*
X2158150Y1637150D01*
X2045000D01*
X2040000Y1632150D01*
Y1618282D01*
X2019218Y1597500D01*
X2007500D01*
X2003000Y1593000D01*
Y1530550D01*
X1988500Y1516050D01*
Y1446299D01*
X2060000Y1374799D01*
Y1202500D01*
X2107500Y1155000D01*
Y1136516D01*
X2166516Y1077500D01*
X2184500D01*
X2192500Y1069500D01*
X2206107D01*
X2220632Y1054975D01*
X2249975D01*
X2268980Y1073980D01*
X2288980D01*
X2256480Y1041480D02*
X2229177D01*
X2204657Y1066000D01*
X2173067D01*
X2056500Y1182567D01*
Y1373349D01*
X1985000Y1444849D01*
Y1517500D01*
X1999500Y1532000D01*
Y1607101D01*
X2033049Y1640650D01*
X2145650D01*
X2150000Y1645000D01*
X2230000D01*
X2158000Y1691000D02*
X2118150Y1651150D01*
X2028700D01*
X2016550Y1639000D01*
X1991450D01*
X1974500Y1622050D01*
Y1440450D01*
X1981225Y1433725D01*
X1981275D01*
X2046000Y1369000D01*
Y1178217D01*
X2049500Y1179667D02*
Y1370450D01*
X1978200Y1441750D01*
X1978150D01*
X1978000Y1441900D01*
Y1533000D01*
X1992500Y1547500D01*
Y1610000D01*
X2030150Y1647650D01*
X2127650D01*
X2135000Y1655000D01*
X2188000D01*
X2191000Y1658000D01*
X2126480Y1691481D02*
Y1673980D01*
X2107150Y1654650D01*
X2027250D01*
X2015101Y1642500D01*
X1990000D01*
X1971000Y1623500D01*
Y1439000D01*
X2042500Y1367500D01*
Y1155000D01*
X2045000Y1152500D01*
X2049500Y1179667D02*
X2137500Y1091667D01*
X2145000Y1445000D02*
X2120000Y1470000D01*
X2005000D01*
X2002000Y1467000D01*
Y1460000D01*
X2048000Y1459000D02*
Y1470000D01*
X1967500Y1437500D02*
Y1642500D01*
X1990000Y1665000D01*
X2027500D01*
X2040000Y1677500D01*
X2080000D01*
X2093980Y1691480D01*
Y1723980D01*
D16*
X2119400Y1618100D02*
Y1629400D01*
X2115035D01*
X2119400Y1625035D01*
Y1618100D02*
X2128100Y1609400D01*
X2159399D01*
D25*
X2093980Y1723980D02*
D03*
X2126480Y1691481D02*
D03*
X2191000Y1658000D02*
D03*
X2223980Y1658980D02*
D03*
X2288980Y1691481D02*
D03*
X2256480D02*
D03*
X2158000Y1691000D02*
D03*
X2581480Y1366480D02*
D03*
Y1561480D02*
D03*
X2288980Y1073980D02*
D03*
X2256480Y1041480D02*
D03*
X2223980Y1008980D02*
D03*
X2191480Y1008980D02*
D03*
D26*
X2045000Y1152500D02*
D03*
X2117500Y1087500D02*
D03*
X2239400Y1079965D02*
D03*
X2269400Y1125600D02*
D03*
X2344400Y1204965D02*
D03*
X2374400Y1240600D02*
D03*
X2444400Y1310600D02*
D03*
X2474400Y1345600D02*
D03*
X2509400Y1380601D02*
D03*
X2539400Y1425601D02*
D03*
X2472500Y1477500D02*
D03*
X2544400Y1554400D02*
D03*
X2545000Y1560000D02*
D03*
X2467500Y1477500D02*
D03*
X2375500Y1545750D02*
D03*
X2409400Y1275601D02*
D03*
X2309400Y1165600D02*
D03*
X2048000Y1459000D02*
D03*
X2002000Y1460000D02*
D03*
X2145000Y1567500D02*
D03*
X2155035Y1609400D02*
D03*
X2115035Y1629400D02*
D03*
X2022500Y1212500D02*
D03*
D27*
X2325670Y1572500D02*
D03*
X2332588Y1595000D02*
D03*
X2340000D02*
D03*
D28*
X2086000Y1377500D02*
D03*
X2076678Y1430000D02*
D03*
X2149686Y1519000D02*
D03*
X2257000Y1513000D02*
D03*
X2313000Y1422500D02*
D03*
X2338059Y1450000D02*
D03*
X2243000Y1548000D02*
D03*
X2222000Y1288000D02*
D03*
D31*
X2075600Y1229400D02*
D03*
X2130600Y1194399D02*
D03*
X2150000Y1145000D02*
D03*
X2453500Y1513500D02*
D03*
X2457500D02*
D03*
X2159399Y1609400D02*
D03*
X2119400Y1629400D02*
D03*
D32*
X2470000Y1482500D02*
Y1610000D01*
X2482500Y1622500D01*
X2527555D01*
X2544400Y1605655D01*
Y1554400D01*
M02*
