G04 Layer_Color=16711935*
%FSLAX44Y44*%
%MOMM*%
G71*
G01*
G75*
%ADD73O,1.2000X2.0000*%
%ADD74O,1.3000X0.9000*%
%ADD75C,1.6000*%
%ADD76R,1.6000X1.6000*%
%ADD77O,1.1000X1.8000*%
%ADD78R,1.6000X1.6000*%
%ADD79C,1.3000*%
%ADD80R,1.2000X1.8000*%
%ADD81R,0.9000X0.7000*%
G04:AMPARAMS|DCode=82|XSize=0.7mm|YSize=0.6mm|CornerRadius=0mm|HoleSize=0mm|Usage=FLASHONLY|Rotation=315.000|XOffset=0mm|YOffset=0mm|HoleType=Round|Shape=Rectangle|*
%AMROTATEDRECTD82*
4,1,4,-0.4596,0.0353,-0.0353,0.4596,0.4596,-0.0353,0.0353,-0.4596,-0.4596,0.0353,0.0*
%
%ADD82ROTATEDRECTD82*%

G04:AMPARAMS|DCode=83|XSize=0.7mm|YSize=0.6mm|CornerRadius=0mm|HoleSize=0mm|Usage=FLASHONLY|Rotation=280.000|XOffset=0mm|YOffset=0mm|HoleType=Round|Shape=Rectangle|*
%AMROTATEDRECTD83*
4,1,4,-0.3562,0.2926,0.2347,0.3968,0.3562,-0.2926,-0.2347,-0.3968,-0.3562,0.2926,0.0*
%
%ADD83ROTATEDRECTD83*%

G04:AMPARAMS|DCode=84|XSize=0.7mm|YSize=0.6mm|CornerRadius=0mm|HoleSize=0mm|Usage=FLASHONLY|Rotation=255.000|XOffset=0mm|YOffset=0mm|HoleType=Round|Shape=Rectangle|*
%AMROTATEDRECTD84*
4,1,4,-0.1992,0.4157,0.3804,0.2604,0.1992,-0.4157,-0.3804,-0.2604,-0.1992,0.4157,0.0*
%
%ADD84ROTATEDRECTD84*%

G04:AMPARAMS|DCode=85|XSize=0.7mm|YSize=0.6mm|CornerRadius=0mm|HoleSize=0mm|Usage=FLASHONLY|Rotation=225.000|XOffset=0mm|YOffset=0mm|HoleType=Round|Shape=Rectangle|*
%AMROTATEDRECTD85*
4,1,4,0.0353,0.4596,0.4596,0.0353,-0.0353,-0.4596,-0.4596,-0.0353,0.0353,0.4596,0.0*
%
%ADD85ROTATEDRECTD85*%

G04:AMPARAMS|DCode=86|XSize=0.7mm|YSize=0.6mm|CornerRadius=0mm|HoleSize=0mm|Usage=FLASHONLY|Rotation=215.000|XOffset=0mm|YOffset=0mm|HoleType=Round|Shape=Rectangle|*
%AMROTATEDRECTD86*
4,1,4,0.1146,0.4465,0.4588,-0.0450,-0.1146,-0.4465,-0.4588,0.0450,0.1146,0.4465,0.0*
%
%ADD86ROTATEDRECTD86*%

G04:AMPARAMS|DCode=87|XSize=0.7mm|YSize=0.6mm|CornerRadius=0mm|HoleSize=0mm|Usage=FLASHONLY|Rotation=200.000|XOffset=0mm|YOffset=0mm|HoleType=Round|Shape=Rectangle|*
%AMROTATEDRECTD87*
4,1,4,0.2263,0.4016,0.4315,-0.1622,-0.2263,-0.4016,-0.4315,0.1622,0.2263,0.4016,0.0*
%
%ADD87ROTATEDRECTD87*%

G04:AMPARAMS|DCode=88|XSize=0.7mm|YSize=0.6mm|CornerRadius=0mm|HoleSize=0mm|Usage=FLASHONLY|Rotation=160.000|XOffset=0mm|YOffset=0mm|HoleType=Round|Shape=Rectangle|*
%AMROTATEDRECTD88*
4,1,4,0.4315,0.1622,0.2263,-0.4016,-0.4315,-0.1622,-0.2263,0.4016,0.4315,0.1622,0.0*
%
%ADD88ROTATEDRECTD88*%

G04:AMPARAMS|DCode=89|XSize=1.4mm|YSize=1.2mm|CornerRadius=0mm|HoleSize=0mm|Usage=FLASHONLY|Rotation=225.000|XOffset=0mm|YOffset=0mm|HoleType=Round|Shape=Rectangle|*
%AMROTATEDRECTD89*
4,1,4,0.0707,0.9192,0.9192,0.0707,-0.0707,-0.9192,-0.9192,-0.0707,0.0707,0.9192,0.0*
%
%ADD89ROTATEDRECTD89*%

G04:AMPARAMS|DCode=90|XSize=0.7mm|YSize=1.8mm|CornerRadius=0mm|HoleSize=0mm|Usage=FLASHONLY|Rotation=225.000|XOffset=0mm|YOffset=0mm|HoleType=Round|Shape=Round|*
%AMOVALD90*
21,1,1.1000,0.7000,0.0000,0.0000,315.0*
1,1,0.7000,-0.3889,0.3889*
1,1,0.7000,0.3889,-0.3889*
%
%ADD90OVALD90*%

G04:AMPARAMS|DCode=91|XSize=0.4mm|YSize=2.2mm|CornerRadius=0mm|HoleSize=0mm|Usage=FLASHONLY|Rotation=315.000|XOffset=0mm|YOffset=0mm|HoleType=Round|Shape=Round|*
%AMOVALD91*
21,1,1.8000,0.4000,0.0000,0.0000,45.0*
1,1,0.4000,-0.6364,-0.6364*
1,1,0.4000,0.6364,0.6364*
%
%ADD91OVALD91*%

G04:AMPARAMS|DCode=92|XSize=0.4mm|YSize=2.2mm|CornerRadius=0mm|HoleSize=0mm|Usage=FLASHONLY|Rotation=225.000|XOffset=0mm|YOffset=0mm|HoleType=Round|Shape=Round|*
%AMOVALD92*
21,1,1.8000,0.4000,0.0000,0.0000,315.0*
1,1,0.4000,-0.6364,0.6364*
1,1,0.4000,0.6364,-0.6364*
%
%ADD92OVALD92*%

%ADD93R,0.7000X0.6500*%
G04:AMPARAMS|DCode=94|XSize=0.9mm|YSize=0.7mm|CornerRadius=0mm|HoleSize=0mm|Usage=FLASHONLY|Rotation=45.000|XOffset=0mm|YOffset=0mm|HoleType=Round|Shape=Rectangle|*
%AMROTATEDRECTD94*
4,1,4,-0.0707,-0.5657,-0.5657,-0.0707,0.0707,0.5657,0.5657,0.0707,-0.0707,-0.5657,0.0*
%
%ADD94ROTATEDRECTD94*%

G04:AMPARAMS|DCode=95|XSize=0.9mm|YSize=0.7mm|CornerRadius=0mm|HoleSize=0mm|Usage=FLASHONLY|Rotation=315.000|XOffset=0mm|YOffset=0mm|HoleType=Round|Shape=Rectangle|*
%AMROTATEDRECTD95*
4,1,4,-0.5657,0.0707,-0.0707,0.5657,0.5657,-0.0707,0.0707,-0.5657,-0.5657,0.0707,0.0*
%
%ADD95ROTATEDRECTD95*%

%ADD96R,0.7000X0.9000*%
G04:AMPARAMS|DCode=97|XSize=0.7mm|YSize=1.25mm|CornerRadius=0mm|HoleSize=0mm|Usage=FLASHONLY|Rotation=225.000|XOffset=0mm|YOffset=0mm|HoleType=Round|Shape=Rectangle|*
%AMROTATEDRECTD97*
4,1,4,-0.1945,0.6894,0.6894,-0.1945,0.1945,-0.6894,-0.6894,0.1945,-0.1945,0.6894,0.0*
%
%ADD97ROTATEDRECTD97*%

G04:AMPARAMS|DCode=98|XSize=0.7mm|YSize=1.25mm|CornerRadius=0mm|HoleSize=0mm|Usage=FLASHONLY|Rotation=315.000|XOffset=0mm|YOffset=0mm|HoleType=Round|Shape=Rectangle|*
%AMROTATEDRECTD98*
4,1,4,-0.6894,-0.1945,0.1945,0.6894,0.6894,0.1945,-0.1945,-0.6894,-0.6894,-0.1945,0.0*
%
%ADD98ROTATEDRECTD98*%

%ADD99O,1.3000X0.4000*%
%ADD100O,0.4000X0.8000*%
%ADD101R,2.3000X2.1000*%
%ADD102R,1.2500X0.7000*%
%ADD103R,0.7000X1.2500*%
G04:AMPARAMS|DCode=104|XSize=1.5mm|YSize=3.6mm|CornerRadius=0mm|HoleSize=0mm|Usage=FLASHONLY|Rotation=45.000|XOffset=0mm|YOffset=0mm|HoleType=Round|Shape=Rectangle|*
%AMROTATEDRECTD104*
4,1,4,0.7425,-1.8031,-1.8031,0.7425,-0.7425,1.8031,1.8031,-0.7425,0.7425,-1.8031,0.0*
%
%ADD104ROTATEDRECTD104*%

%ADD105R,1.9000X3.5000*%
%ADD106O,2.0000X0.7000*%
G04:AMPARAMS|DCode=107|XSize=0.7mm|YSize=0.6mm|CornerRadius=0mm|HoleSize=0mm|Usage=FLASHONLY|Rotation=145.000|XOffset=0mm|YOffset=0mm|HoleType=Round|Shape=Rectangle|*
%AMROTATEDRECTD107*
4,1,4,0.4588,0.0450,0.1146,-0.4465,-0.4588,-0.0450,-0.1146,0.4465,0.4588,0.0450,0.0*
%
%ADD107ROTATEDRECTD107*%

G04:AMPARAMS|DCode=108|XSize=0.7mm|YSize=0.6mm|CornerRadius=0mm|HoleSize=0mm|Usage=FLASHONLY|Rotation=285.000|XOffset=0mm|YOffset=0mm|HoleType=Round|Shape=Rectangle|*
%AMROTATEDRECTD108*
4,1,4,-0.3804,0.2604,0.1992,0.4157,0.3804,-0.2604,-0.1992,-0.4157,-0.3804,0.2604,0.0*
%
%ADD108ROTATEDRECTD108*%

G04:AMPARAMS|DCode=109|XSize=0.7mm|YSize=0.6mm|CornerRadius=0mm|HoleSize=0mm|Usage=FLASHONLY|Rotation=260.000|XOffset=0mm|YOffset=0mm|HoleType=Round|Shape=Rectangle|*
%AMROTATEDRECTD109*
4,1,4,-0.2347,0.3968,0.3562,0.2926,0.2347,-0.3968,-0.3562,-0.2926,-0.2347,0.3968,0.0*
%
%ADD109ROTATEDRECTD109*%

G04:AMPARAMS|DCode=110|XSize=1.8mm|YSize=1.2mm|CornerRadius=0mm|HoleSize=0mm|Usage=FLASHONLY|Rotation=45.000|XOffset=0mm|YOffset=0mm|HoleType=Round|Shape=Rectangle|*
%AMROTATEDRECTD110*
4,1,4,-0.2121,-1.0607,-1.0607,-0.2121,0.2121,1.0607,1.0607,0.2121,-0.2121,-1.0607,0.0*
%
%ADD110ROTATEDRECTD110*%

G04:AMPARAMS|DCode=111|XSize=1.8mm|YSize=1.2mm|CornerRadius=0mm|HoleSize=0mm|Usage=FLASHONLY|Rotation=135.000|XOffset=0mm|YOffset=0mm|HoleType=Round|Shape=Rectangle|*
%AMROTATEDRECTD111*
4,1,4,1.0607,-0.2121,0.2121,-1.0607,-1.0607,0.2121,-0.2121,1.0607,1.0607,-0.2121,0.0*
%
%ADD111ROTATEDRECTD111*%

G04:AMPARAMS|DCode=112|XSize=1.5mm|YSize=3.6mm|CornerRadius=0mm|HoleSize=0mm|Usage=FLASHONLY|Rotation=135.000|XOffset=0mm|YOffset=0mm|HoleType=Round|Shape=Rectangle|*
%AMROTATEDRECTD112*
4,1,4,1.8031,0.7425,-0.7425,-1.8031,-1.8031,-0.7425,0.7425,1.8031,1.8031,0.7425,0.0*
%
%ADD112ROTATEDRECTD112*%

%ADD113R,1.8000X1.2000*%
%ADD114R,0.7500X1.0000*%
%ADD115R,1.8000X1.7000*%
%ADD116R,2.2000X2.2500*%
D73*
X2317500Y1702000D02*
D03*
X2399500D02*
D03*
D74*
X2013750Y1687250D02*
D03*
X2062250D02*
D03*
X2338500Y1689500D02*
D03*
X2358500D02*
D03*
Y1714500D02*
D03*
X2338500D02*
D03*
X2378500D02*
D03*
Y1689500D02*
D03*
D75*
X2194600Y1210000D02*
D03*
X2505000Y1478000D02*
D03*
Y1503400D02*
D03*
Y1528800D02*
D03*
Y1554200D02*
D03*
Y1579600D02*
D03*
X2359600Y1650000D02*
D03*
D76*
X2505000Y1605000D02*
D03*
D77*
X2001750Y1714000D02*
D03*
X2074250D02*
D03*
D78*
X2220000Y1210000D02*
D03*
X2385000Y1650000D02*
D03*
D79*
X1785000Y1414000D02*
D03*
X1817000Y1349000D02*
D03*
X1881020Y1283520D02*
D03*
X1913520Y1251020D02*
D03*
X1978520Y1186020D02*
D03*
X1996480Y1203980D02*
D03*
X2011020Y1153520D02*
D03*
X2043520Y1121020D02*
D03*
X2076020Y1088520D02*
D03*
X2141020Y1023520D02*
D03*
X2175000Y993000D02*
D03*
X2223980Y1008980D02*
D03*
X2256480Y1041480D02*
D03*
X2288980Y1073980D02*
D03*
X2321480Y1106480D02*
D03*
X2353980Y1138980D02*
D03*
X2386480Y1171480D02*
D03*
X2418980Y1203980D02*
D03*
X2451481Y1236480D02*
D03*
X2483980Y1268980D02*
D03*
X2516480Y1301480D02*
D03*
X2548980Y1333980D02*
D03*
X2581480Y1366480D02*
D03*
X2613980Y1431481D02*
D03*
Y1463980D02*
D03*
Y1496480D02*
D03*
X2612000Y1528000D02*
D03*
X2581480Y1561480D02*
D03*
Y1593980D02*
D03*
X2548980Y1626480D02*
D03*
X2516480Y1658980D02*
D03*
X2483980Y1691481D02*
D03*
X2451481D02*
D03*
X2418980Y1723980D02*
D03*
X2466020Y1673520D02*
D03*
X2288980Y1691481D02*
D03*
X2303520Y1706020D02*
D03*
X2256480Y1691481D02*
D03*
X2223980Y1658980D02*
D03*
X2158000Y1691000D02*
D03*
X2191000Y1658000D02*
D03*
X2126480Y1691481D02*
D03*
X2093980Y1723980D02*
D03*
X1978520Y1706020D02*
D03*
X1963980Y1691481D02*
D03*
X1931480D02*
D03*
X1913520Y1673520D02*
D03*
X1898980Y1658980D02*
D03*
X1881020Y1641020D02*
D03*
X1866480Y1626480D02*
D03*
X1848519Y1608520D02*
D03*
X1833980Y1593980D02*
D03*
X1816020Y1576020D02*
D03*
Y1543520D02*
D03*
X1801480Y1528980D02*
D03*
X1784000Y1511000D02*
D03*
X1783520Y1478520D02*
D03*
Y1446020D02*
D03*
X1816020Y1381020D02*
D03*
X1848519Y1316020D02*
D03*
X1946020Y1218520D02*
D03*
X2028980Y1171480D02*
D03*
X2061480Y1138980D02*
D03*
X2093980Y1106480D02*
D03*
X2108519Y1056020D02*
D03*
X2126480Y1073980D02*
D03*
X2162500Y1045000D02*
D03*
X2191480Y1008980D02*
D03*
D80*
X2111500Y1555000D02*
D03*
X2138500D02*
D03*
D81*
X1890000Y1362000D02*
D03*
X1930000Y1312000D02*
D03*
X1980000Y1308000D02*
D03*
Y1292000D02*
D03*
X2000000Y1252000D02*
D03*
X2040000Y1238000D02*
D03*
Y1222000D02*
D03*
X2015000Y1203000D02*
D03*
Y1187000D02*
D03*
X2075000D02*
D03*
X2090000D02*
D03*
Y1203000D02*
D03*
X2075000D02*
D03*
X2110000Y1154500D02*
D03*
X2125000Y1147000D02*
D03*
X2110000Y1128000D02*
D03*
Y1112000D02*
D03*
X2122500Y1110500D02*
D03*
Y1094500D02*
D03*
X2180000Y1100500D02*
D03*
Y1084500D02*
D03*
X2225000Y1042000D02*
D03*
Y1058000D02*
D03*
X2210000Y1052000D02*
D03*
Y1068000D02*
D03*
X2250000Y1117000D02*
D03*
Y1133000D02*
D03*
X2290000Y1157000D02*
D03*
Y1173000D02*
D03*
X2325000Y1192000D02*
D03*
Y1208000D02*
D03*
X2385000Y1203000D02*
D03*
X2400000Y1202000D02*
D03*
X2385000Y1187000D02*
D03*
X2400000Y1218000D02*
D03*
X2425000Y1302000D02*
D03*
X2485000Y1303000D02*
D03*
Y1287000D02*
D03*
X2505000Y1312000D02*
D03*
X2550000Y1352000D02*
D03*
Y1368000D02*
D03*
X2520000Y1433000D02*
D03*
X2502500Y1427000D02*
D03*
Y1443000D02*
D03*
X2487500Y1442000D02*
D03*
Y1458000D02*
D03*
X2490000Y1388000D02*
D03*
Y1372000D02*
D03*
X2520000Y1417000D02*
D03*
X2505000Y1328000D02*
D03*
X2447500Y1367000D02*
D03*
Y1383000D02*
D03*
X2455000Y1353000D02*
D03*
Y1337000D02*
D03*
X2425000Y1318000D02*
D03*
X2390000Y1280500D02*
D03*
Y1264500D02*
D03*
X2355000Y1248000D02*
D03*
Y1232000D02*
D03*
X2185000Y1163000D02*
D03*
Y1147000D02*
D03*
X2175000Y1130500D02*
D03*
Y1114500D02*
D03*
X2150000Y1187000D02*
D03*
Y1203000D02*
D03*
X2125000Y1163000D02*
D03*
X2110000Y1170500D02*
D03*
X2000000Y1268000D02*
D03*
X1930000Y1328000D02*
D03*
X1890000Y1378000D02*
D03*
X1860000Y1402000D02*
D03*
Y1418000D02*
D03*
X1910000Y1422000D02*
D03*
Y1438000D02*
D03*
Y1462000D02*
D03*
X1990000Y1494500D02*
D03*
Y1510500D02*
D03*
X1940000Y1532000D02*
D03*
Y1548000D02*
D03*
X1910000Y1518000D02*
D03*
Y1502000D02*
D03*
Y1478000D02*
D03*
X1880000Y1552000D02*
D03*
Y1568000D02*
D03*
X1860000Y1498000D02*
D03*
Y1482000D02*
D03*
Y1458000D02*
D03*
Y1442000D02*
D03*
X2025000Y1597000D02*
D03*
Y1613000D02*
D03*
X2045000Y1618000D02*
D03*
Y1602000D02*
D03*
X1950000Y1682000D02*
D03*
X1970000Y1598000D02*
D03*
Y1582000D02*
D03*
X1940000Y1638000D02*
D03*
Y1622000D02*
D03*
X1910000Y1600500D02*
D03*
Y1584500D02*
D03*
X2050000Y1702000D02*
D03*
Y1718000D02*
D03*
X1950000Y1698000D02*
D03*
X2145000Y1672000D02*
D03*
Y1688000D02*
D03*
X2210000Y1658000D02*
D03*
Y1642000D02*
D03*
X2260000Y1652000D02*
D03*
Y1668000D02*
D03*
X2205000Y1560500D02*
D03*
Y1544500D02*
D03*
X2220000D02*
D03*
X2235000D02*
D03*
Y1560500D02*
D03*
X2220000D02*
D03*
X2360000Y1568000D02*
D03*
Y1552000D02*
D03*
X2375000D02*
D03*
Y1568000D02*
D03*
X2402500Y1574500D02*
D03*
X2430000Y1558000D02*
D03*
Y1542000D02*
D03*
X2487500Y1488000D02*
D03*
Y1472000D02*
D03*
X2440000Y1458000D02*
D03*
Y1442000D02*
D03*
X2402500Y1590500D02*
D03*
X2390000Y1612000D02*
D03*
Y1628000D02*
D03*
X2060000Y1510500D02*
D03*
Y1494500D02*
D03*
D82*
X1872829Y1337172D02*
D03*
X1867173Y1342828D02*
D03*
X1932173Y1277828D02*
D03*
X1937829Y1272172D02*
D03*
X1982173Y1222829D02*
D03*
X1987829Y1217172D02*
D03*
X2042173Y1162828D02*
D03*
X2047829Y1157172D02*
D03*
X2102173Y1097829D02*
D03*
X2107830Y1092172D02*
D03*
X2162173Y1032829D02*
D03*
X2167829Y1027171D02*
D03*
X2532172Y1642829D02*
D03*
X2537828Y1637173D02*
D03*
X2162827Y1667172D02*
D03*
X2157170Y1672828D02*
D03*
D83*
X1805696Y1411060D02*
D03*
X1804306Y1418938D02*
D03*
D84*
X1798965Y1546135D02*
D03*
X1801036Y1553863D02*
D03*
D85*
X1852171Y1637170D02*
D03*
X1857829Y1642827D02*
D03*
X2237171Y1667172D02*
D03*
X2242827Y1672828D02*
D03*
X2532827Y1342828D02*
D03*
X2527171Y1337172D02*
D03*
X2467827Y1277828D02*
D03*
X2462170Y1272172D02*
D03*
X2417827Y1222829D02*
D03*
X2412170Y1217172D02*
D03*
X2357827Y1162828D02*
D03*
X2352171Y1157172D02*
D03*
X2297827Y1097829D02*
D03*
X2292171Y1092172D02*
D03*
X2237827Y1032829D02*
D03*
X2232170Y1027171D02*
D03*
D86*
X1911723Y1690204D02*
D03*
X1918277Y1694793D02*
D03*
D87*
X1976241Y1718631D02*
D03*
X1983758Y1721367D02*
D03*
X2296240Y1718633D02*
D03*
X2303758Y1721369D02*
D03*
D88*
X2106240Y1721368D02*
D03*
X2113757Y1718632D02*
D03*
X2396241Y1721369D02*
D03*
X2403759Y1718633D02*
D03*
D89*
X2096071Y1488285D02*
D03*
X2108799Y1475557D02*
D03*
X2125063Y1491820D02*
D03*
X2112335Y1504548D02*
D03*
D90*
X2276427Y1511632D02*
D03*
X2285408Y1520612D02*
D03*
X2326632Y1461427D02*
D03*
X2335612Y1470408D02*
D03*
X2344592Y1479388D02*
D03*
X2353573Y1488368D02*
D03*
X2303368Y1538573D02*
D03*
X2294388Y1529593D02*
D03*
D91*
X2128582Y1363937D02*
D03*
X2132118Y1360402D02*
D03*
X2135653Y1356866D02*
D03*
X2139189Y1353331D02*
D03*
X2142724Y1349796D02*
D03*
X2146260Y1346260D02*
D03*
X2149796Y1342724D02*
D03*
X2153331Y1339189D02*
D03*
X2181615Y1310905D02*
D03*
X2185151Y1307369D02*
D03*
X2188687Y1303833D02*
D03*
X2178080Y1314440D02*
D03*
X2174544Y1317975D02*
D03*
X2171009Y1321511D02*
D03*
X2167473Y1325047D02*
D03*
X2163938Y1328582D02*
D03*
X2160402Y1332118D02*
D03*
X2156866Y1335653D02*
D03*
X2125047Y1367473D02*
D03*
X2121511Y1371009D02*
D03*
X2117975Y1374544D02*
D03*
X2114440Y1378080D02*
D03*
X2110905Y1381615D02*
D03*
X2107369Y1385151D02*
D03*
X2103833Y1388686D02*
D03*
X2257276Y1450204D02*
D03*
X2253740Y1453740D02*
D03*
X2250205Y1457276D02*
D03*
X2246669Y1460811D02*
D03*
X2243133Y1464347D02*
D03*
X2239598Y1467882D02*
D03*
X2236063Y1471418D02*
D03*
X2289095Y1418385D02*
D03*
X2292631Y1414849D02*
D03*
X2296167Y1411314D02*
D03*
X2285560Y1421920D02*
D03*
X2282024Y1425456D02*
D03*
X2278489Y1428991D02*
D03*
X2274953Y1432527D02*
D03*
X2271418Y1436063D02*
D03*
X2267882Y1439598D02*
D03*
X2264346Y1443134D02*
D03*
X2260811Y1446669D02*
D03*
X2232527Y1474953D02*
D03*
X2228991Y1478489D02*
D03*
X2225456Y1482025D02*
D03*
X2221920Y1485560D02*
D03*
X2218385Y1489095D02*
D03*
X2214849Y1492631D02*
D03*
X2211314Y1496167D02*
D03*
D92*
X2103833Y1411314D02*
D03*
X2107369Y1414849D02*
D03*
X2110905Y1418385D02*
D03*
X2156866Y1464347D02*
D03*
X2160402Y1467882D02*
D03*
X2163938Y1471418D02*
D03*
X2167473Y1474953D02*
D03*
X2171009Y1478489D02*
D03*
X2174544Y1482025D02*
D03*
X2178080Y1485560D02*
D03*
X2181615Y1489095D02*
D03*
X2185151Y1492631D02*
D03*
X2188687Y1496167D02*
D03*
X2153331Y1460811D02*
D03*
X2149796Y1457276D02*
D03*
X2146260Y1453740D02*
D03*
X2142724Y1450204D02*
D03*
X2139189Y1446669D02*
D03*
X2135653Y1443134D02*
D03*
X2132118Y1439598D02*
D03*
X2128582Y1436063D02*
D03*
X2125047Y1432527D02*
D03*
X2121511Y1428991D02*
D03*
X2117975Y1425456D02*
D03*
X2114440Y1421920D02*
D03*
X2228991Y1321511D02*
D03*
X2225456Y1317975D02*
D03*
X2221920Y1314440D02*
D03*
X2232527Y1325047D02*
D03*
X2236063Y1328582D02*
D03*
X2239598Y1332118D02*
D03*
X2243133Y1335653D02*
D03*
X2246669Y1339189D02*
D03*
X2250205Y1342724D02*
D03*
X2253740Y1346260D02*
D03*
X2257276Y1349796D02*
D03*
X2218385Y1310905D02*
D03*
X2214849Y1307369D02*
D03*
X2211314Y1303833D02*
D03*
X2260811Y1353331D02*
D03*
X2264346Y1356866D02*
D03*
X2267882Y1360402D02*
D03*
X2271418Y1363937D02*
D03*
X2274953Y1367473D02*
D03*
X2278489Y1371009D02*
D03*
X2282024Y1374544D02*
D03*
X2285560Y1378080D02*
D03*
X2289095Y1381615D02*
D03*
X2292631Y1385151D02*
D03*
X2296167Y1388686D02*
D03*
D93*
X2462000Y1538000D02*
D03*
Y1546000D02*
D03*
Y1554000D02*
D03*
Y1562000D02*
D03*
X2478000D02*
D03*
Y1554000D02*
D03*
Y1546000D02*
D03*
Y1538000D02*
D03*
D94*
X2038632Y1291870D02*
D03*
X2049946Y1280556D02*
D03*
X2095343Y1256657D02*
D03*
X2106657Y1245343D02*
D03*
X2116414Y1235302D02*
D03*
X2127728Y1223988D02*
D03*
X2170154Y1266414D02*
D03*
X2158840Y1277728D02*
D03*
X2116414Y1320154D02*
D03*
X2113586Y1344196D02*
D03*
X2127728Y1308841D02*
D03*
X2137343Y1299657D02*
D03*
X2148657Y1288343D02*
D03*
X2102272Y1355510D02*
D03*
X2073988Y1277728D02*
D03*
X2085301Y1266414D02*
D03*
X2090657Y1369343D02*
D03*
X2079343Y1380657D02*
D03*
Y1470657D02*
D03*
X2090657Y1459343D02*
D03*
X2140657Y1509343D02*
D03*
X2129343Y1520657D02*
D03*
X2219343D02*
D03*
X2230657Y1509343D02*
D03*
X2239343Y1500657D02*
D03*
X2250657Y1489343D02*
D03*
X2269343Y1470657D02*
D03*
X2290657Y1469343D02*
D03*
X2289343Y1450657D02*
D03*
X2280657Y1459343D02*
D03*
X2300657Y1439343D02*
D03*
X2309343Y1430657D02*
D03*
X2320657Y1419343D02*
D03*
X2333840Y1353439D02*
D03*
X2345154Y1342125D02*
D03*
X2362125Y1325155D02*
D03*
X2373439Y1313840D02*
D03*
X2277979Y1232523D02*
D03*
X2266665Y1243837D02*
D03*
X2279343Y1480657D02*
D03*
D95*
X2038632Y1315912D02*
D03*
X2049946Y1327226D02*
D03*
X2066917Y1344196D02*
D03*
X2078230Y1355510D02*
D03*
X2148234Y1248737D02*
D03*
X2159548Y1260050D02*
D03*
X2219343Y1279343D02*
D03*
X2230657Y1290657D02*
D03*
X2239343Y1299343D02*
D03*
X2250657Y1310657D02*
D03*
X2253230Y1275657D02*
D03*
X2241917Y1264343D02*
D03*
X2284343Y1221917D02*
D03*
X2295657Y1233231D02*
D03*
X2305556Y1243130D02*
D03*
X2316870Y1254444D02*
D03*
X2373439Y1289799D02*
D03*
X2362125Y1278485D02*
D03*
X2338083Y1275657D02*
D03*
X2326770Y1264343D02*
D03*
X2295657Y1318083D02*
D03*
X2298485Y1342125D02*
D03*
X2309799Y1353439D02*
D03*
X2270657Y1330657D02*
D03*
X2284343Y1306770D02*
D03*
X2274444Y1296870D02*
D03*
X2263130Y1285556D02*
D03*
X2259343Y1319343D02*
D03*
X2349343Y1454343D02*
D03*
X2360657Y1465657D02*
D03*
X2270657Y1535657D02*
D03*
X2279343Y1544343D02*
D03*
X2290657Y1555657D02*
D03*
X2250657Y1535657D02*
D03*
X2259343Y1524343D02*
D03*
X2239343D02*
D03*
X2165657Y1525657D02*
D03*
X2155657Y1535657D02*
D03*
X2175657Y1515657D02*
D03*
X2164343Y1504343D02*
D03*
X2155657Y1495657D02*
D03*
X2154343Y1514343D02*
D03*
X2144343Y1524343D02*
D03*
Y1484343D02*
D03*
X2120657Y1460657D02*
D03*
X2109343Y1449343D02*
D03*
X2100657Y1440657D02*
D03*
X2089343Y1429343D02*
D03*
D96*
X1832000Y1530000D02*
D03*
X1848000D02*
D03*
X1902000Y1565000D02*
D03*
X1918000D02*
D03*
X1962000Y1525000D02*
D03*
X1978000D02*
D03*
X2002000Y1510000D02*
D03*
Y1495000D02*
D03*
X2018000D02*
D03*
X2032000D02*
D03*
Y1510000D02*
D03*
X2018000D02*
D03*
X2048000D02*
D03*
Y1495000D02*
D03*
X2072000Y1550000D02*
D03*
Y1565000D02*
D03*
X2088000D02*
D03*
Y1550000D02*
D03*
X2112000Y1610000D02*
D03*
X2128000D02*
D03*
X2152000Y1590000D02*
D03*
X2157000Y1557500D02*
D03*
X2173000D02*
D03*
X2208000Y1590000D02*
D03*
X2231675Y1596849D02*
D03*
X2247675D02*
D03*
X2302000Y1630000D02*
D03*
X2318000D02*
D03*
X2362000D02*
D03*
X2417000Y1590000D02*
D03*
Y1575000D02*
D03*
X2375500Y1540000D02*
D03*
X2433000Y1575000D02*
D03*
Y1590000D02*
D03*
X2452000Y1600000D02*
D03*
X2468000D02*
D03*
X2428000Y1655000D02*
D03*
X2412000D02*
D03*
X2378000Y1630000D02*
D03*
X2343000Y1565000D02*
D03*
X2327000D02*
D03*
X2359500Y1540000D02*
D03*
X2382000Y1387500D02*
D03*
X2398000D02*
D03*
X2414500Y1345000D02*
D03*
X2430500D02*
D03*
X2502000Y1405000D02*
D03*
X2518000D02*
D03*
Y1460000D02*
D03*
X2502000D02*
D03*
X2582000Y1440000D02*
D03*
X2598000D02*
D03*
X2553000Y1535000D02*
D03*
X2537000D02*
D03*
X2547000Y1595000D02*
D03*
X2563000D02*
D03*
X2443000Y1250000D02*
D03*
X2427000D02*
D03*
X2338000Y1140000D02*
D03*
X2322000D02*
D03*
X2328000Y1125000D02*
D03*
X2312000D02*
D03*
X2283000Y1055000D02*
D03*
X2267000D02*
D03*
X2253000Y1100000D02*
D03*
X2237000D02*
D03*
X2065500Y1255000D02*
D03*
X2049500D02*
D03*
X2168000Y1590000D02*
D03*
X2192000D02*
D03*
X2178000Y1650000D02*
D03*
X2162000D02*
D03*
X2128000Y1670000D02*
D03*
X2112000D02*
D03*
X2088000Y1660000D02*
D03*
Y1645000D02*
D03*
X2072000D02*
D03*
Y1660000D02*
D03*
Y1580000D02*
D03*
X2088000D02*
D03*
X2048000Y1640000D02*
D03*
X2032000D02*
D03*
X2008000Y1630000D02*
D03*
X2002000Y1580000D02*
D03*
X2018000D02*
D03*
X1992000Y1630000D02*
D03*
X1968000D02*
D03*
X1952000D02*
D03*
Y1615000D02*
D03*
X1968000D02*
D03*
X1928000Y1660000D02*
D03*
X1912000D02*
D03*
X1982000Y1690000D02*
D03*
X1998000D02*
D03*
D97*
X2307487Y1330762D02*
D03*
X2341810Y1310354D02*
D03*
X2364437Y1301162D02*
D03*
X2351002Y1287727D02*
D03*
X2330114Y1321569D02*
D03*
X2320922Y1344197D02*
D03*
D98*
X2047874Y1302993D02*
D03*
X2061310Y1289558D02*
D03*
X2070502Y1312185D02*
D03*
X2104344Y1333073D02*
D03*
X2090909Y1346508D02*
D03*
X2081716Y1323881D02*
D03*
D99*
X2065000Y1609000D02*
D03*
X2095000D02*
D03*
X2405000Y1619000D02*
D03*
X2435000D02*
D03*
D100*
X2070250Y1592750D02*
D03*
X2076750D02*
D03*
X2083250D02*
D03*
X2089750D02*
D03*
Y1627250D02*
D03*
X2083250D02*
D03*
X2076750D02*
D03*
X2070250D02*
D03*
X2410250Y1602750D02*
D03*
X2416750D02*
D03*
X2423250D02*
D03*
X2429750D02*
D03*
Y1637250D02*
D03*
X2423250D02*
D03*
X2416750D02*
D03*
X2410250D02*
D03*
D101*
X2080000Y1614000D02*
D03*
X2420000Y1624000D02*
D03*
D102*
X1818100Y1410170D02*
D03*
X1870600Y1360670D02*
D03*
X1888100Y1320170D02*
D03*
X1910600Y1310670D02*
D03*
X1938100Y1300170D02*
D03*
X1958100Y1260170D02*
D03*
X1980600Y1250670D02*
D03*
X2033100Y1195170D02*
D03*
X2090600Y1153170D02*
D03*
X2093100Y1137170D02*
D03*
Y1118170D02*
D03*
X2070600Y1127670D02*
D03*
X2134030Y1085170D02*
D03*
X2190600Y1050670D02*
D03*
X2239400Y1065330D02*
D03*
Y1084330D02*
D03*
X2221900Y1099830D02*
D03*
X2261900Y1074830D02*
D03*
X2269400Y1115330D02*
D03*
Y1134330D02*
D03*
X2291900Y1124830D02*
D03*
X2309400Y1155330D02*
D03*
X2331900Y1164830D02*
D03*
X2344400Y1190330D02*
D03*
X2366900Y1199830D02*
D03*
X2374400Y1230330D02*
D03*
Y1249330D02*
D03*
X2396900Y1239830D02*
D03*
X2431900Y1274830D02*
D03*
X2444400Y1300330D02*
D03*
X2466900Y1309830D02*
D03*
X2474400Y1335330D02*
D03*
Y1354330D02*
D03*
X2496900Y1344830D02*
D03*
X2531900Y1379830D02*
D03*
X2539400Y1415330D02*
D03*
Y1434330D02*
D03*
X2561900Y1424830D02*
D03*
X2509400Y1389330D02*
D03*
Y1370330D02*
D03*
X2444400Y1319330D02*
D03*
X2409400Y1284330D02*
D03*
Y1265330D02*
D03*
X2344400Y1209330D02*
D03*
X2309400Y1174330D02*
D03*
X2165600Y1164670D02*
D03*
Y1145670D02*
D03*
X2155600Y1129670D02*
D03*
Y1110670D02*
D03*
X2199400Y1109330D02*
D03*
Y1090330D02*
D03*
X2190600Y1069670D02*
D03*
X2168100Y1060170D02*
D03*
X2156530Y1075670D02*
D03*
Y1094670D02*
D03*
X2133100Y1120170D02*
D03*
X2143100Y1155170D02*
D03*
X2130600Y1185670D02*
D03*
Y1204670D02*
D03*
X2108100Y1195170D02*
D03*
X2075600Y1220670D02*
D03*
Y1239670D02*
D03*
X2053100Y1230170D02*
D03*
X2055600Y1204670D02*
D03*
Y1185670D02*
D03*
X2068100Y1162670D02*
D03*
X2090600Y1172170D02*
D03*
X2020600Y1220670D02*
D03*
Y1239670D02*
D03*
X1998100Y1230170D02*
D03*
X1980600Y1269670D02*
D03*
X1960600Y1290670D02*
D03*
Y1309670D02*
D03*
X1910600Y1329670D02*
D03*
X1870600Y1379670D02*
D03*
X1848100Y1370170D02*
D03*
X1840600Y1400670D02*
D03*
Y1419670D02*
D03*
Y1440670D02*
D03*
Y1459670D02*
D03*
X1868100Y1470170D02*
D03*
X1890600Y1460670D02*
D03*
Y1439670D02*
D03*
Y1420670D02*
D03*
X1868100Y1430170D02*
D03*
X1890600Y1479670D02*
D03*
Y1500670D02*
D03*
Y1519670D02*
D03*
X1868100Y1510170D02*
D03*
X1840600Y1499670D02*
D03*
Y1480670D02*
D03*
X1898100Y1540170D02*
D03*
X1920600Y1549670D02*
D03*
Y1530670D02*
D03*
X1958100Y1550170D02*
D03*
X1980600Y1559670D02*
D03*
Y1540670D02*
D03*
X2005600Y1595670D02*
D03*
Y1614670D02*
D03*
X2078800Y1674730D02*
D03*
Y1693730D02*
D03*
X2101300Y1684230D02*
D03*
X1983100Y1605170D02*
D03*
X1950600Y1599670D02*
D03*
Y1580670D02*
D03*
X1920600Y1639670D02*
D03*
X1898100Y1630170D02*
D03*
X1920600Y1620670D02*
D03*
X1928100Y1590170D02*
D03*
X1890600Y1590670D02*
D03*
Y1609670D02*
D03*
X1868100Y1600170D02*
D03*
X1860600Y1569670D02*
D03*
Y1550670D02*
D03*
X1838100Y1560170D02*
D03*
X1818100Y1490170D02*
D03*
Y1450170D02*
D03*
X2389400Y1542830D02*
D03*
Y1561830D02*
D03*
X2411900Y1552330D02*
D03*
D103*
X1950670Y1649400D02*
D03*
X1969670D02*
D03*
X1990670D02*
D03*
X1960170Y1671900D02*
D03*
X2000170D02*
D03*
X2009670Y1649400D02*
D03*
X2030670Y1659400D02*
D03*
X2049670D02*
D03*
X2040170Y1681900D02*
D03*
X2110670Y1629400D02*
D03*
X2129670D02*
D03*
X2150670Y1609400D02*
D03*
X2169670D02*
D03*
X2190670D02*
D03*
X2209670D02*
D03*
X2230670Y1619400D02*
D03*
X2249670D02*
D03*
X2300670Y1649400D02*
D03*
X2310170Y1671900D02*
D03*
X2335170Y1606900D02*
D03*
X2325670Y1584400D02*
D03*
X2344670D02*
D03*
X2365670D02*
D03*
X2384670D02*
D03*
X2375170Y1606900D02*
D03*
X2450670Y1619400D02*
D03*
X2469670D02*
D03*
X2460170Y1641900D02*
D03*
X2545170Y1576900D02*
D03*
X2554670Y1554400D02*
D03*
X2535670D02*
D03*
X2422670Y1384400D02*
D03*
X2432170Y1361900D02*
D03*
X2413170D02*
D03*
X2195660Y1036900D02*
D03*
X2205160Y1014400D02*
D03*
X2214660Y1036900D02*
D03*
X2319670Y1649400D02*
D03*
X2240170Y1641900D02*
D03*
X2200170Y1631900D02*
D03*
X2160170D02*
D03*
X2120170Y1651900D02*
D03*
D104*
X2280101Y1260101D02*
D03*
X2299899Y1279899D02*
D03*
D105*
X2025000Y1545000D02*
D03*
D106*
X2001500Y1525950D02*
D03*
Y1538650D02*
D03*
Y1551350D02*
D03*
Y1564050D02*
D03*
X2048500D02*
D03*
Y1551350D02*
D03*
Y1538650D02*
D03*
Y1525950D02*
D03*
D107*
X2459223Y1699796D02*
D03*
X2465777Y1695207D02*
D03*
D108*
X2596035Y1521135D02*
D03*
X2593964Y1528863D02*
D03*
D109*
X2594305Y1411060D02*
D03*
X2595694Y1418938D02*
D03*
D110*
X2305203Y1304294D02*
D03*
X2324295Y1285203D02*
D03*
D111*
X2087776Y1287274D02*
D03*
X2106868Y1306366D02*
D03*
D112*
X2112601Y1282399D02*
D03*
X2132399Y1262600D02*
D03*
D113*
X2470000Y1441500D02*
D03*
Y1468500D02*
D03*
Y1486500D02*
D03*
Y1513500D02*
D03*
D114*
X2470500Y1403000D02*
D03*
X2480000D02*
D03*
X2489500D02*
D03*
Y1427000D02*
D03*
X2480000D02*
D03*
X2470500D02*
D03*
D115*
X2395250Y1505000D02*
D03*
X2434750D02*
D03*
D116*
X2415000Y1408750D02*
D03*
Y1471250D02*
D03*
M02*
