M48
;Layer_Color=9474304
;FILE_FORMAT=4:4
METRIC,LZ
;TYPE=PLATED
T1F00S00C0.7000
%
T01
X0236352Y0116102
X0239602
X0242852
X0241398Y0114648
X0242852Y0112852
X0239602
X0242852Y0109602
X0246102
Y0112852
X0244648Y0111398
Y0114648
X0246102Y0116102
X0249352
X0247898Y0114648
X0249352Y0112852
X0247898Y0111398
X0249352Y0109602
X0247898Y0108148
X0249352Y0106352
X0246102
X0249352Y0103102
X0252602
Y0106352
X0251148Y0104898
Y0108148
X0252602Y0109602
Y0112852
X0251148Y0111398
Y0114648
X0252602Y0116102
X0255852
X0254398Y0114648
X0255852Y0112852
X0254398Y0111398
X0255852Y0109602
X0254398Y0108148
X0255852Y0106352
X0254398Y0104898
X0257648Y0108148
X0259102Y0109602
Y0112852
X0257648Y0111398
Y0114648
X0259102Y0116102
X0262352
X0260898Y0114648
Y0111398
X0262352Y0112852
X0264148Y0114648
X0265602Y0116102
X0264148Y0117898
X0267398
X0260898
X0257648
X0254398
X0251148
X0247898
X0244648
X0241398
X0238148
X0278602Y0129102
Y0132352
Y0135602
X0280398Y0134148
X0281852Y0135602
Y0132352
X0280398Y0130898
Y0137398
X0281852Y0138852
Y0142102
X0280398Y0140648
X0278602Y0142102
Y0138852
Y0145352
Y0148602
X0280398Y0147148
X0281852Y0148602
Y0145352
X0280398Y0143898
X0283648
X0285102Y0145352
Y0148602
X0283648Y0147148
Y0150398
X0285102Y0151852
X0288352
X0286898Y0150398
X0288352Y0148602
X0286898Y0147148
X0288352Y0145352
X0286898Y0143898
X0288352Y0142102
X0286898Y0140648
X0285102Y0142102
X0283648Y0140648
X0285102Y0138852
X0283648Y0137398
Y0134148
X0285102Y0135602
X0286898Y0137398
X0288352Y0138852
X0290148Y0140648
Y0143898
X0291602Y0145352
Y0148602
X0290148Y0147148
Y0150398
X0291602Y0151852
Y0155102
X0290148Y0153648
X0286898
X0288352Y0155102
Y0158352
X0286898Y0156898
X0285102Y0158352
X0283648Y0156898
X0281852Y0158352
X0280398Y0156898
X0278602Y0158352
Y0155102
X0281852
X0280398Y0153648
X0281852Y0151852
X0280398Y0150398
X0278602Y0151852
X0283648Y0153648
X0285102Y0155102
X0290148Y0156898
X0293398
Y0153648
Y0150398
Y0147148
X0277148
X0275352Y0148602
X0273898Y0147148
X0272102Y0148602
X0270648Y0147148
X0268852Y0148602
X0267398Y0147148
X0265602Y0148602
X0264148Y0147148
X0262352Y0148602
X0260898Y0147148
X0259102Y0148602
X0257648Y0147148
X0255852Y0148602
X0254398Y0147148
X0252602Y0148602
X0251148Y0147148
X0249352Y0148602
X0247898Y0147148
X0246102Y0148602
X0244648Y0147148
X0242852Y0148602
X0241398Y0147148
X0239602Y0148602
X0238148Y0147148
Y0150398
X0239602Y0151852
X0242852
X0241398Y0150398
X0244648
X0246102Y0151852
X0249352
X0247898Y0150398
X0251148
X0252602Y0151852
X0255852
X0254398Y0150398
X0257648
X0259102Y0151852
Y0155102
X0257648Y0153648
X0254398
X0255852Y0155102
Y0158352
X0254398Y0156898
X0252602Y0158352
X0251148Y0156898
X0249352Y0158352
X0247898Y0156898
X0246102Y0158352
X0244648Y0156898
X0242852Y0158352
X0241398Y0156898
X0239602Y0158352
X0238148Y0156898
X0239602Y0155102
X0238148Y0153648
X0241398
X0242852Y0155102
X0246102
X0244648Y0153648
X0247898
X0249352Y0155102
X0252602
X0251148Y0153648
X0257648Y0156898
X0259102Y0158352
X0260898Y0156898
X0262352Y0158352
X0265602
X0264148Y0156898
X0265602Y0155102
X0264148Y0153648
X0265602Y0151852
X0264148Y0150398
X0267398
X0268852Y0151852
X0272102
X0270648Y0150398
X0273898
X0275352Y0151852
Y0155102
X0273898Y0153648
X0270648
X0272102Y0155102
Y0158352
X0270648Y0156898
X0268852Y0158352
X0267398Y0156898
X0268852Y0155102
X0267398Y0153648
X0262352Y0155102
X0260898Y0153648
X0262352Y0151852
X0260898Y0150398
X0262352Y0145352
X0260898Y0143898
Y0140648
X0262352Y0142102
X0265602
X0264148Y0140648
Y0143898
X0265602Y0145352
X0268852
X0267398Y0143898
Y0140648
X0268852Y0142102
X0272102
X0270648Y0140648
Y0143898
X0272102Y0145352
X0275352
X0273898Y0143898
Y0140648
X0275352Y0142102
Y0138852
X0273898Y0137398
X0270648
X0272102Y0138852
X0268852
X0267398Y0137398
X0264148
X0265602Y0138852
X0262352
X0260898Y0137398
Y0134148
X0262352Y0135602
X0265602
X0264148Y0134148
X0265602Y0132352
X0264148Y0130898
X0265602Y0129102
X0264148Y0127648
X0262352Y0129102
X0260898Y0127648
X0259102Y0129102
X0257648Y0127648
X0255852Y0129102
X0254398Y0127648
X0252602Y0129102
X0251148Y0127648
X0249352Y0129102
X0247898Y0127648
X0246102Y0129102
X0244648Y0127648
X0242852Y0129102
X0241398Y0127648
X0239602Y0129102
X0238148Y0127648
Y0130898
X0239602Y0132352
Y0135602
X0238148Y0134148
Y0137398
X0239602Y0138852
Y0142102
X0238148Y0140648
Y0143898
X0239602Y0145352
X0242852
X0241398Y0143898
X0242852Y0142102
X0241398Y0140648
X0242852Y0138852
X0241398Y0137398
X0242852Y0135602
X0241398Y0134148
X0242852Y0132352
X0241398Y0130898
X0244648
X0246102Y0132352
Y0135602
X0244648Y0134148
Y0137398
X0246102Y0138852
Y0142102
X0244648Y0140648
Y0143898
X0246102Y0145352
X0249352
X0247898Y0143898
X0249352Y0142102
X0247898Y0140648
X0249352Y0138852
X0247898Y0137398
X0249352Y0135602
X0247898Y0134148
X0249352Y0132352
X0247898Y0130898
X0251148
X0252602Y0132352
Y0135602
X0251148Y0134148
Y0137398
X0252602Y0138852
Y0142102
X0251148Y0140648
Y0143898
X0252602Y0145352
X0255852
X0254398Y0143898
X0255852Y0142102
X0254398Y0140648
X0255852Y0138852
X0254398Y0137398
X0255852Y0135602
X0254398Y0134148
X0255852Y0132352
X0254398Y0130898
X0257648
X0259102Y0132352
Y0135602
X0257648Y0134148
Y0137398
X0259102Y0138852
Y0142102
X0257648Y0140648
Y0143898
X0259102Y0145352
X0262352Y0132352
X0260898Y0130898
X0267398
X0268852Y0132352
Y0135602
X0267398Y0134148
X0270648
X0272102Y0135602
Y0132352
X0270648Y0130898
X0272102Y0129102
X0270648Y0127648
X0268852Y0129102
X0267398Y0127648
X0268852Y0125852
X0267398Y0124398
X0265602Y0125852
X0264148Y0124398
X0262352Y0125852
X0260898Y0124398
X0262352Y0122602
X0260898Y0121148
X0259102Y0122602
X0257648Y0121148
X0254398
X0255852Y0122602
Y0125852
X0254398Y0124398
X0252602Y0125852
X0251148Y0124398
X0252602Y0122602
X0251148Y0121148
X0247898
X0249352Y0122602
Y0125852
X0247898Y0124398
X0246102Y0125852
X0244648Y0124398
X0246102Y0122602
X0244648Y0121148
X0241398
X0242852Y0122602
Y0125852
X0241398Y0124398
X0239602Y0125852
X0238148Y0124398
X0239602Y0122602
X0238148Y0121148
X0239602Y0119352
X0242852
X0246102
X0249352
X0252602
X0255852
X0259102
X0262352
X0265602
X0264148Y0121148
X0265602Y0122602
X0268852
X0267398Y0121148
X0268852Y0119352
X0270648Y0121148
X0272102Y0122602
X0270648Y0124398
X0272102Y0125852
X0275352
X0273898Y0124398
Y0127648
X0275352Y0129102
X0277148Y0127648
Y0130898
X0275352Y0132352
X0273898Y0130898
Y0134148
X0275352Y0135602
X0277148Y0134148
Y0137398
Y0140648
Y0143898
Y0150398
Y0153648
Y0156898
X0275352Y0158352
X0273898Y0156898
X0259102Y0125852
X0257648Y0124398
X0236352Y0125852
X0234898Y0124398
X0233102Y0125852
X0231648Y0124398
X0233102Y0122602
X0229852
Y0125852
Y0129102
X0228398Y0127648
X0226602Y0129102
X0223352
Y0132352
Y0135602
X0221898Y0134148
X0220102Y0135602
X0216852
Y0138852
Y0142102
X0215398Y0140648
X0213602Y0142102
Y0138852
Y0145352
Y0148602
X0212148Y0147148
X0210352Y0148602
Y0145352
Y0151852
X0213602
X0212148Y0150398
X0215398
X0216852Y0151852
X0220102
X0218648Y0150398
X0220102Y0148602
X0218648Y0147148
X0216852Y0148602
X0215398Y0147148
X0216852Y0145352
X0215398Y0143898
X0218648
X0220102Y0145352
X0223352
X0221898Y0143898
Y0140648
X0223352Y0142102
X0226602
X0225148Y0140648
Y0143898
X0226602Y0145352
Y0148602
X0225148Y0147148
X0223352Y0148602
X0221898Y0147148
Y0150398
X0223352Y0151852
X0226602
X0225148Y0150398
X0228398
X0229852Y0151852
Y0155102
X0228398Y0153648
X0225148
X0226602Y0155102
Y0158352
X0225148Y0156898
X0223352Y0158352
X0221898Y0156898
X0220102Y0158352
X0218648Y0156898
X0216852Y0158352
X0215398Y0156898
X0213602Y0158352
X0212148Y0156898
X0213602Y0155102
X0212148Y0153648
X0215398
X0216852Y0155102
X0220102
X0218648Y0153648
X0221898
X0223352Y0155102
X0228398Y0156898
X0229852Y0158352
X0231648Y0156898
X0233102Y0158352
X0236352
X0234898Y0156898
X0236352Y0155102
X0234898Y0153648
X0236352Y0151852
X0234898Y0150398
X0236352Y0148602
X0234898Y0147148
X0233102Y0148602
X0231648Y0147148
X0229852Y0148602
X0228398Y0147148
X0229852Y0145352
X0228398Y0143898
Y0140648
X0229852Y0142102
Y0138852
X0228398Y0137398
X0225148
X0226602Y0138852
X0223352
X0221898Y0137398
X0218648
X0220102Y0138852
Y0142102
X0218648Y0140648
X0220102Y0132352
X0226602
X0225148Y0130898
X0228398
X0229852Y0132352
Y0135602
X0228398Y0134148
X0226602Y0135602
X0225148Y0134148
X0231648
X0233102Y0135602
X0236352
X0234898Y0134148
Y0137398
X0236352Y0138852
Y0142102
X0234898Y0140648
X0233102Y0142102
X0231648Y0140648
Y0143898
X0233102Y0145352
X0236352
X0234898Y0143898
X0233102Y0138852
X0231648Y0137398
X0233102Y0132352
X0231648Y0130898
Y0127648
X0233102Y0129102
X0236352
X0234898Y0127648
Y0130898
X0236352Y0132352
Y0122602
X0234898Y0121148
X0236352Y0119352
X0233102
X0226602Y0125852
X0231648Y0150398
X0233102Y0151852
Y0155102
X0231648Y0153648
X0210352Y0155102
X0213602Y0161602
X0216852
X0215398Y0160148
Y0163398
X0216852Y0164852
X0218648Y0163398
X0220102Y0164852
X0218648Y0166648
X0220102Y0168102
X0223352
X0221898Y0166648
Y0163398
X0223352Y0164852
X0225148Y0163398
X0226602Y0164852
X0225148Y0166648
X0226602Y0168102
Y0171352
X0225148Y0169898
X0223352Y0171352
X0221898Y0169898
X0225148Y0173148
X0228398
X0229852Y0174602
X0233102
X0231648Y0173148
Y0169898
X0233102Y0171352
X0236352
X0234898Y0169898
Y0173148
X0236352Y0174602
X0234898Y0176398
X0231648
X0229852Y0171352
X0228398Y0169898
X0229852Y0168102
X0228398Y0166648
Y0163398
X0229852Y0164852
Y0161602
X0228398Y0160148
X0225148
X0226602Y0161602
X0223352
X0221898Y0160148
X0218648
X0220102Y0161602
X0233102
X0231648Y0160148
Y0163398
X0233102Y0164852
X0234898Y0163398
X0236352Y0164852
X0234898Y0166648
X0236352Y0168102
X0233102
X0231648Y0166648
X0236352Y0161602
X0234898Y0160148
X0238148
X0239602Y0161602
Y0164852
X0238148Y0163398
Y0166648
X0239602Y0168102
Y0171352
X0238148Y0169898
Y0173148
X0239602Y0174602
X0238148Y0176398
X0241398
Y0173148
X0242852Y0171352
X0241398Y0169898
X0242852Y0168102
X0241398Y0166648
X0242852Y0164852
X0241398Y0163398
X0242852Y0161602
X0241398Y0160148
X0244648
X0246102Y0161602
Y0164852
X0244648Y0163398
Y0166648
X0246102Y0168102
Y0171352
X0244648Y0169898
Y0173148
X0247898
Y0169898
X0249352Y0168102
X0247898Y0166648
X0249352Y0164852
X0247898Y0163398
X0249352Y0161602
X0247898Y0160148
X0251148
X0252602Y0161602
Y0164852
X0251148Y0163398
Y0166648
X0252602Y0168102
X0255852
X0254398Y0166648
X0255852Y0164852
X0254398Y0163398
X0255852Y0161602
X0254398Y0160148
X0257648
X0259102Y0161602
Y0164852
X0257648Y0163398
Y0166648
X0259102Y0168102
Y0171352
X0257648Y0169898
X0255852Y0171352
X0254398Y0169898
X0251148
X0257648Y0173148
X0260898
X0262352Y0174602
X0265602
X0264148Y0173148
X0265602Y0171352
X0264148Y0169898
X0262352Y0171352
X0260898Y0169898
X0262352Y0168102
X0260898Y0166648
Y0163398
X0262352Y0164852
X0265602
X0264148Y0163398
Y0166648
X0265602Y0168102
X0268852
X0267398Y0166648
Y0163398
X0268852Y0164852
X0272102
X0270648Y0163398
Y0166648
X0272102Y0168102
Y0171352
X0270648Y0169898
X0268852Y0171352
X0267398Y0169898
Y0173148
X0268852Y0174602
X0272102
X0270648Y0173148
X0273898
Y0169898
X0275352Y0171352
Y0168102
X0273898Y0166648
Y0163398
X0275352Y0164852
Y0161602
X0273898Y0160148
X0270648
X0272102Y0161602
X0268852
X0267398Y0160148
X0264148
X0265602Y0161602
X0262352
X0260898Y0160148
X0277148
Y0163398
Y0166648
Y0169898
Y0173148
X0273898Y0176398
X0270648
X0267398
X0264148
X0278602Y0171352
Y0168102
X0281852
X0280398Y0166648
Y0163398
X0281852Y0164852
Y0161602
X0280398Y0160148
X0278602Y0161602
Y0164852
X0283648Y0163398
X0285102Y0164852
Y0161602
X0283648Y0160148
X0286898
X0288352Y0161602
X0286898Y0163398
Y0166648
X0283648
Y0169898
X0280398
Y0173148
X0290148Y0163398
Y0160148
M30
