G04 Layer_Color=65535*
%FSLAX44Y44*%
%MOMM*%
G71*
G01*
G75*
%ADD12C,0.3000*%
%ADD13C,0.2000*%
D12*
X2108644Y1447075D02*
G03*
X2127925Y1466356I3856J15425D01*
G01*
X2148674Y1477198D02*
G03*
X2130302Y1458826I-3674J-14698D01*
G01*
X2141144Y1447075D02*
G03*
X2160425Y1466356I3856J15425D01*
G01*
X2181174Y1477198D02*
G03*
X2162802Y1458826I-3674J-14698D01*
G01*
X2173644Y1447075D02*
G03*
X2192925Y1466356I3856J15425D01*
G01*
X2213674Y1477198D02*
G03*
X2195302Y1458826I-3674J-14698D01*
G01*
X2206144Y1447075D02*
G03*
X2225425Y1466356I3856J15425D01*
G01*
X2246174Y1477198D02*
G03*
X2227802Y1458826I-3674J-14698D01*
G01*
X2238644Y1447075D02*
G03*
X2257925Y1466356I3856J15425D01*
G01*
X2278674Y1477198D02*
G03*
X2260302Y1458826I-3674J-14698D01*
G01*
X2271144Y1447075D02*
G03*
X2290425Y1466356I3856J15425D01*
G01*
X2311174Y1477198D02*
G03*
X2292802Y1458826I-3674J-14698D01*
G01*
X2271144Y1414575D02*
G03*
X2290425Y1433856I3856J15425D01*
G01*
X2311174Y1444698D02*
G03*
X2292802Y1426326I-3674J-14698D01*
G01*
X2278674Y1444698D02*
G03*
X2260302Y1426326I-3674J-14698D01*
G01*
X2238644Y1414575D02*
G03*
X2257925Y1433856I3856J15425D01*
G01*
X2246174Y1444698D02*
G03*
X2227802Y1426326I-3674J-14698D01*
G01*
X2206144Y1414575D02*
G03*
X2225425Y1433856I3856J15425D01*
G01*
X2213674Y1444698D02*
G03*
X2195302Y1426326I-3674J-14698D01*
G01*
X2173644Y1414575D02*
G03*
X2192925Y1433856I3856J15425D01*
G01*
X2173644Y1382075D02*
G03*
X2192925Y1401356I3856J15425D01*
G01*
X2213674Y1412198D02*
G03*
X2195302Y1393826I-3674J-14698D01*
G01*
X2206144Y1382075D02*
G03*
X2225425Y1401356I3856J15425D01*
G01*
X2246174Y1412198D02*
G03*
X2227802Y1393826I-3674J-14698D01*
G01*
X2238644Y1382075D02*
G03*
X2257925Y1401356I3856J15425D01*
G01*
X2278674Y1412198D02*
G03*
X2260302Y1393826I-3674J-14698D01*
G01*
X2271144Y1382075D02*
G03*
X2290425Y1401356I3856J15425D01*
G01*
X2311174Y1412198D02*
G03*
X2292802Y1393826I-3674J-14698D01*
G01*
X2271144Y1349575D02*
G03*
X2290425Y1368856I3856J15425D01*
G01*
X2311174Y1379698D02*
G03*
X2292802Y1361326I-3674J-14698D01*
G01*
X2278674Y1379698D02*
G03*
X2260302Y1361326I-3674J-14698D01*
G01*
X2238644Y1349575D02*
G03*
X2257925Y1368856I3856J15425D01*
G01*
X2246174Y1379698D02*
G03*
X2227802Y1361326I-3674J-14698D01*
G01*
X2206144Y1349575D02*
G03*
X2225425Y1368856I3856J15425D01*
G01*
X2213674Y1379698D02*
G03*
X2195302Y1361326I-3674J-14698D01*
G01*
X2173644Y1349575D02*
G03*
X2192925Y1368856I3856J15425D01*
G01*
X2213674Y1347198D02*
G03*
X2195302Y1328826I-3674J-14698D01*
G01*
X2206144Y1317075D02*
G03*
X2225425Y1336356I3856J15425D01*
G01*
X2246174Y1347198D02*
G03*
X2227802Y1328826I-3674J-14698D01*
G01*
X2238644Y1317075D02*
G03*
X2257925Y1336356I3856J15425D01*
G01*
X2278674Y1347198D02*
G03*
X2260302Y1328826I-3674J-14698D01*
G01*
X2271144Y1317075D02*
G03*
X2290425Y1336356I3856J15425D01*
G01*
X2311174Y1347198D02*
G03*
X2292802Y1328826I-3674J-14698D01*
G01*
X2271144Y1284575D02*
G03*
X2290425Y1303856I3856J15425D01*
G01*
X2278674Y1314698D02*
G03*
X2260302Y1296326I-3674J-14698D01*
G01*
X2278674Y1282198D02*
G03*
X2260302Y1263826I-3674J-14698D01*
G01*
X2271144Y1252075D02*
G03*
X2290425Y1271356I3856J15425D01*
G01*
X2311174Y1282198D02*
G03*
X2292802Y1263826I-3674J-14698D01*
G01*
X2311174Y1314698D02*
G03*
X2292802Y1296326I-3674J-14698D01*
G01*
X2311174Y1249698D02*
G03*
X2292802Y1231326I-3674J-14698D01*
G01*
X2376174Y1184698D02*
G03*
X2357802Y1166326I-3674J-14698D01*
G01*
X2368644Y1154575D02*
G03*
X2387925Y1173856I3856J15425D01*
G01*
X2408674Y1184698D02*
G03*
X2390302Y1166326I-3674J-14698D01*
G01*
X2401144Y1154575D02*
G03*
X2420425Y1173856I3856J15425D01*
G01*
X2441174Y1184698D02*
G03*
X2422802Y1166326I-3674J-14698D01*
G01*
X2433644Y1154575D02*
G03*
X2452925Y1173856I3856J15425D01*
G01*
X2473674Y1184698D02*
G03*
X2455302Y1166326I-3674J-14698D01*
G01*
X2466144Y1154575D02*
G03*
X2485425Y1173856I3856J15425D01*
G01*
X2506174Y1184698D02*
G03*
X2487802Y1166326I-3674J-14698D01*
G01*
X2498644Y1154575D02*
G03*
X2517925Y1173856I3856J15425D01*
G01*
X2538674Y1184698D02*
G03*
X2520302Y1166326I-3674J-14698D01*
G01*
X2531144Y1154575D02*
G03*
X2550425Y1173856I3856J15425D01*
G01*
X2571174Y1184698D02*
G03*
X2552802Y1166326I-3674J-14698D01*
G01*
X2563644Y1154575D02*
G03*
X2582925Y1173856I3856J15425D01*
G01*
X2603674Y1184698D02*
G03*
X2585302Y1166326I-3674J-14698D01*
G01*
X2563644Y1122075D02*
G03*
X2582925Y1141356I3856J15425D01*
G01*
X2603674Y1152198D02*
G03*
X2585302Y1133826I-3674J-14698D01*
G01*
X2571174Y1152198D02*
G03*
X2552802Y1133826I-3674J-14698D01*
G01*
X2531144Y1122075D02*
G03*
X2550425Y1141356I3856J15425D01*
G01*
X2538674Y1152198D02*
G03*
X2520302Y1133826I-3674J-14698D01*
G01*
X2498644Y1122075D02*
G03*
X2517925Y1141356I3856J15425D01*
G01*
X2506174Y1152198D02*
G03*
X2487802Y1133826I-3674J-14698D01*
G01*
X2466144Y1122075D02*
G03*
X2485425Y1141356I3856J15425D01*
G01*
X2466144Y1089575D02*
G03*
X2485425Y1108856I3856J15425D01*
G01*
X2506174Y1119698D02*
G03*
X2487802Y1101326I-3674J-14698D01*
G01*
X2498644Y1089575D02*
G03*
X2517925Y1108856I3856J15425D01*
G01*
X2538674Y1119698D02*
G03*
X2520302Y1101326I-3674J-14698D01*
G01*
X2531144Y1089575D02*
G03*
X2550425Y1108856I3856J15425D01*
G01*
X2571174Y1119698D02*
G03*
X2552802Y1101326I-3674J-14698D01*
G01*
X2563644Y1089575D02*
G03*
X2582925Y1108856I3856J15425D01*
G01*
X2603674Y1119698D02*
G03*
X2585302Y1101326I-3674J-14698D01*
G01*
X2563644Y1057075D02*
G03*
X2582925Y1076356I3856J15425D01*
G01*
X2571174Y1087198D02*
G03*
X2552802Y1068826I-3674J-14698D01*
G01*
X2531144Y1057075D02*
G03*
X2550425Y1076356I3856J15425D01*
G01*
X2538674Y1087198D02*
G03*
X2520302Y1068826I-3674J-14698D01*
G01*
X2498644Y1057075D02*
G03*
X2517925Y1076356I3856J15425D01*
G01*
X2506174Y1087198D02*
G03*
X2487802Y1068826I-3674J-14698D01*
G01*
X2466144Y1057075D02*
G03*
X2485425Y1076356I3856J15425D01*
G01*
X2506174Y1054698D02*
G03*
X2487802Y1036326I-3674J-14698D01*
G01*
X2498644Y1024575D02*
G03*
X2517925Y1043856I3856J15425D01*
G01*
X2538674Y1054698D02*
G03*
X2520302Y1036326I-3674J-14698D01*
G01*
X2531144Y1024575D02*
G03*
X2550425Y1043856I3856J15425D01*
G01*
X2596144Y1089575D02*
G03*
X2615425Y1108856I3856J15425D01*
G01*
X2661144Y1154575D02*
G03*
X2680425Y1173856I3856J15425D01*
G01*
X2693644Y1187075D02*
G03*
X2712925Y1206356I3856J15425D01*
G01*
X2726144Y1219575D02*
G03*
X2745425Y1238856I3856J15425D01*
G01*
X2733674Y1249698D02*
G03*
X2715302Y1231326I-3674J-14698D01*
G01*
X2758644Y1252075D02*
G03*
X2777925Y1271356I3856J15425D01*
G01*
X2791144Y1284575D02*
G03*
X2810425Y1303856I3856J15425D01*
G01*
X2798674Y1314698D02*
G03*
X2780302Y1296326I-3674J-14698D01*
G01*
X2831174Y1347198D02*
G03*
X2812802Y1328826I-3674J-14698D01*
G01*
X2791144Y1317075D02*
G03*
X2810425Y1336356I3856J15425D01*
G01*
X2798674Y1347198D02*
G03*
X2780302Y1328826I-3674J-14698D01*
G01*
X2758644Y1317075D02*
G03*
X2777925Y1336356I3856J15425D01*
G01*
X2791144Y1349575D02*
G03*
X2810425Y1368856I3856J15425D01*
G01*
X2831174Y1379698D02*
G03*
X2812802Y1361326I-3674J-14698D01*
G01*
X2823644Y1382075D02*
G03*
X2842925Y1401356I3856J15425D01*
G01*
X2863674Y1412198D02*
G03*
X2845302Y1393826I-3674J-14698D01*
G01*
X2856144Y1382075D02*
G03*
X2875425Y1401356I3856J15425D01*
G01*
X2896174Y1412198D02*
G03*
X2877802Y1393826I-3674J-14698D01*
G01*
X2888644Y1382075D02*
G03*
X2907925Y1401356I3856J15425D01*
G01*
X2888644Y1414575D02*
G03*
X2907925Y1433856I3856J15425D01*
G01*
X2896174Y1444698D02*
G03*
X2877802Y1426326I-3674J-14698D01*
G01*
X2856144Y1414575D02*
G03*
X2875425Y1433856I3856J15425D01*
G01*
X2863674Y1444698D02*
G03*
X2845302Y1426326I-3674J-14698D01*
G01*
X2823644Y1414575D02*
G03*
X2842925Y1433856I3856J15425D01*
G01*
X2831174Y1444698D02*
G03*
X2812802Y1426326I-3674J-14698D01*
G01*
X2791144Y1414575D02*
G03*
X2810425Y1433856I3856J15425D01*
G01*
X2798674Y1444698D02*
G03*
X2780302Y1426326I-3674J-14698D01*
G01*
X2758644Y1414575D02*
G03*
X2777925Y1433856I3856J15425D01*
G01*
X2791144Y1447075D02*
G03*
X2810425Y1466356I3856J15425D01*
G01*
X2831174Y1477198D02*
G03*
X2812802Y1458826I-3674J-14698D01*
G01*
X2823644Y1447075D02*
G03*
X2842925Y1466356I3856J15425D01*
G01*
X2863674Y1477198D02*
G03*
X2845302Y1458826I-3674J-14698D01*
G01*
X2856144Y1447075D02*
G03*
X2875425Y1466356I3856J15425D01*
G01*
X2896174Y1477198D02*
G03*
X2877802Y1458826I-3674J-14698D01*
G01*
X2888644Y1447075D02*
G03*
X2907925Y1466356I3856J15425D01*
G01*
X2928674Y1477198D02*
G03*
X2910302Y1458826I-3674J-14698D01*
G01*
X2921144Y1447075D02*
G03*
X2940425Y1466356I3856J15425D01*
G01*
X2921144Y1479575D02*
G03*
X2940425Y1498856I3856J15425D01*
G01*
X2928674Y1509698D02*
G03*
X2910302Y1491326I-3674J-14698D01*
G01*
X2888644Y1479575D02*
G03*
X2907925Y1498856I3856J15425D01*
G01*
X2896174Y1509698D02*
G03*
X2877802Y1491326I-3674J-14698D01*
G01*
X2856144Y1479575D02*
G03*
X2875425Y1498856I3856J15425D01*
G01*
X2863674Y1509698D02*
G03*
X2845302Y1491326I-3674J-14698D01*
G01*
X2823644Y1479575D02*
G03*
X2842925Y1498856I3856J15425D01*
G01*
X2831174Y1509698D02*
G03*
X2812802Y1491326I-3674J-14698D01*
G01*
X2791144Y1479575D02*
G03*
X2810425Y1498856I3856J15425D01*
G01*
X2798674Y1509698D02*
G03*
X2780302Y1491326I-3674J-14698D01*
G01*
X2758644Y1479575D02*
G03*
X2777925Y1498856I3856J15425D01*
G01*
X2791144Y1512075D02*
G03*
X2810425Y1531356I3856J15425D01*
G01*
X2831174Y1542198D02*
G03*
X2812802Y1523826I-3674J-14698D01*
G01*
X2823644Y1512075D02*
G03*
X2842925Y1531356I3856J15425D01*
G01*
X2863674Y1542198D02*
G03*
X2845302Y1523826I-3674J-14698D01*
G01*
X2856144Y1512075D02*
G03*
X2875425Y1531356I3856J15425D01*
G01*
X2896174Y1542198D02*
G03*
X2877802Y1523826I-3674J-14698D01*
G01*
X2888644Y1512075D02*
G03*
X2907925Y1531356I3856J15425D01*
G01*
X2928674Y1542198D02*
G03*
X2910302Y1523826I-3674J-14698D01*
G01*
X2921144Y1512075D02*
G03*
X2940425Y1531356I3856J15425D01*
G01*
X2921144Y1544575D02*
G03*
X2940425Y1563856I3856J15425D01*
G01*
X2928674Y1574698D02*
G03*
X2910302Y1556326I-3674J-14698D01*
G01*
X2888644Y1544575D02*
G03*
X2907925Y1563856I3856J15425D01*
G01*
X2896174Y1574698D02*
G03*
X2877802Y1556326I-3674J-14698D01*
G01*
X2856144Y1544575D02*
G03*
X2875425Y1563856I3856J15425D01*
G01*
X2863674Y1574698D02*
G03*
X2845302Y1556326I-3674J-14698D01*
G01*
X2823644Y1544575D02*
G03*
X2842925Y1563856I3856J15425D01*
G01*
X2831174Y1574698D02*
G03*
X2812802Y1556326I-3674J-14698D01*
G01*
X2791144Y1544575D02*
G03*
X2810425Y1563856I3856J15425D01*
G01*
X2798674Y1574698D02*
G03*
X2780302Y1556326I-3674J-14698D01*
G01*
X2758644Y1544575D02*
G03*
X2777925Y1563856I3856J15425D01*
G01*
X2791144Y1577075D02*
G03*
X2810425Y1596356I3856J15425D01*
G01*
X2798674Y1607198D02*
G03*
X2780302Y1588826I-3674J-14698D01*
G01*
X2831174Y1607198D02*
G03*
X2812802Y1588826I-3674J-14698D01*
G01*
X2823644Y1577075D02*
G03*
X2842925Y1596356I3856J15425D01*
G01*
X2856144Y1609575D02*
G03*
X2875425Y1628856I3856J15425D01*
G01*
X2896174Y1639698D02*
G03*
X2877802Y1621326I-3674J-14698D01*
G01*
X2888644Y1609575D02*
G03*
X2907925Y1628856I3856J15425D01*
G01*
X2888644Y1577075D02*
G03*
X2907925Y1596356I3856J15425D01*
G01*
X2896174Y1607198D02*
G03*
X2877802Y1588826I-3674J-14698D01*
G01*
X2863674Y1607198D02*
G03*
X2845302Y1588826I-3674J-14698D01*
G01*
X2856144Y1577075D02*
G03*
X2875425Y1596356I3856J15425D01*
G01*
X2863674Y1639698D02*
G03*
X2845302Y1621326I-3674J-14698D01*
G01*
X2823644Y1609575D02*
G03*
X2842925Y1628856I3856J15425D01*
G01*
X2831174Y1639698D02*
G03*
X2812802Y1621326I-3674J-14698D01*
G01*
X2791144Y1609575D02*
G03*
X2810425Y1628856I3856J15425D01*
G01*
X2798674Y1639698D02*
G03*
X2780302Y1621326I-3674J-14698D01*
G01*
X2758644Y1609575D02*
G03*
X2777925Y1628856I3856J15425D01*
G01*
X2791144Y1642075D02*
G03*
X2810425Y1661356I3856J15425D01*
G01*
X2831174Y1672198D02*
G03*
X2812802Y1653826I-3674J-14698D01*
G01*
X2823644Y1674575D02*
G03*
X2842925Y1693856I3856J15425D01*
G01*
X2831174Y1704698D02*
G03*
X2812802Y1686326I-3674J-14698D01*
G01*
X2791144Y1674575D02*
G03*
X2810425Y1693856I3856J15425D01*
G01*
X2798674Y1704698D02*
G03*
X2780302Y1686326I-3674J-14698D01*
G01*
X2758644Y1674575D02*
G03*
X2777925Y1693856I3856J15425D01*
G01*
X2791144Y1707075D02*
G03*
X2810425Y1726356I3856J15425D01*
G01*
X2798674Y1737198D02*
G03*
X2780302Y1718826I-3674J-14698D01*
G01*
X2758644Y1707075D02*
G03*
X2777925Y1726356I3856J15425D01*
G01*
X2758644Y1642075D02*
G03*
X2777925Y1661356I3856J15425D01*
G01*
X2798674Y1672198D02*
G03*
X2780302Y1653826I-3674J-14698D01*
G01*
X2823644Y1642075D02*
G03*
X2842925Y1661356I3856J15425D01*
G01*
X2863674Y1672198D02*
G03*
X2845302Y1653826I-3674J-14698D01*
G01*
X2856144Y1642075D02*
G03*
X2875425Y1661356I3856J15425D01*
G01*
X2758644Y1577075D02*
G03*
X2777925Y1596356I3856J15425D01*
G01*
X2798674Y1542198D02*
G03*
X2780302Y1523826I-3674J-14698D01*
G01*
X2758644Y1512075D02*
G03*
X2777925Y1531356I3856J15425D01*
G01*
X2798674Y1477198D02*
G03*
X2780302Y1458826I-3674J-14698D01*
G01*
X2758644Y1447075D02*
G03*
X2777925Y1466356I3856J15425D01*
G01*
X2758644Y1382075D02*
G03*
X2777925Y1401356I3856J15425D01*
G01*
X2798674Y1412198D02*
G03*
X2780302Y1393826I-3674J-14698D01*
G01*
X2791144Y1382075D02*
G03*
X2810425Y1401356I3856J15425D01*
G01*
X2831174Y1412198D02*
G03*
X2812802Y1393826I-3674J-14698D01*
G01*
X2798674Y1379698D02*
G03*
X2780302Y1361326I-3674J-14698D01*
G01*
X2758644Y1349575D02*
G03*
X2777925Y1368856I3856J15425D01*
G01*
X2823644Y1349575D02*
G03*
X2842925Y1368856I3856J15425D01*
G01*
X2863674Y1379698D02*
G03*
X2845302Y1361326I-3674J-14698D01*
G01*
X2856144Y1349575D02*
G03*
X2875425Y1368856I3856J15425D01*
G01*
X2823644Y1317075D02*
G03*
X2842925Y1336356I3856J15425D01*
G01*
X2758644Y1284575D02*
G03*
X2777925Y1303856I3856J15425D01*
G01*
X2766174Y1379698D02*
G03*
X2747802Y1361326I-3674J-14698D01*
G01*
X2726144Y1349575D02*
G03*
X2745425Y1368856I3856J15425D01*
G01*
X2733674Y1379698D02*
G03*
X2715302Y1361326I-3674J-14698D01*
G01*
X2693644Y1349575D02*
G03*
X2712925Y1368856I3856J15425D01*
G01*
X2726144Y1382075D02*
G03*
X2745425Y1401356I3856J15425D01*
G01*
X2766174Y1412198D02*
G03*
X2747802Y1393826I-3674J-14698D01*
G01*
X2733674Y1412198D02*
G03*
X2715302Y1393826I-3674J-14698D01*
G01*
X2693644Y1382075D02*
G03*
X2712925Y1401356I3856J15425D01*
G01*
X2726144Y1414575D02*
G03*
X2745425Y1433856I3856J15425D01*
G01*
X2766174Y1444698D02*
G03*
X2747802Y1426326I-3674J-14698D01*
G01*
X2733674Y1444698D02*
G03*
X2715302Y1426326I-3674J-14698D01*
G01*
X2693644Y1414575D02*
G03*
X2712925Y1433856I3856J15425D01*
G01*
X2726144Y1447075D02*
G03*
X2745425Y1466356I3856J15425D01*
G01*
X2766174Y1477198D02*
G03*
X2747802Y1458826I-3674J-14698D01*
G01*
X2733674Y1477198D02*
G03*
X2715302Y1458826I-3674J-14698D01*
G01*
X2693644Y1447075D02*
G03*
X2712925Y1466356I3856J15425D01*
G01*
X2726144Y1479575D02*
G03*
X2745425Y1498856I3856J15425D01*
G01*
X2766174Y1509698D02*
G03*
X2747802Y1491326I-3674J-14698D01*
G01*
X2733674Y1509698D02*
G03*
X2715302Y1491326I-3674J-14698D01*
G01*
X2693644Y1479575D02*
G03*
X2712925Y1498856I3856J15425D01*
G01*
X2726144Y1512075D02*
G03*
X2745425Y1531356I3856J15425D01*
G01*
X2766174Y1542198D02*
G03*
X2747802Y1523826I-3674J-14698D01*
G01*
X2733674Y1542198D02*
G03*
X2715302Y1523826I-3674J-14698D01*
G01*
X2693644Y1512075D02*
G03*
X2712925Y1531356I3856J15425D01*
G01*
X2726144Y1544575D02*
G03*
X2745425Y1563856I3856J15425D01*
G01*
X2766174Y1574698D02*
G03*
X2747802Y1556326I-3674J-14698D01*
G01*
X2766174Y1607198D02*
G03*
X2747802Y1588826I-3674J-14698D01*
G01*
X2733674Y1574698D02*
G03*
X2715302Y1556326I-3674J-14698D01*
G01*
X2693644Y1544575D02*
G03*
X2712925Y1563856I3856J15425D01*
G01*
X2726144Y1577075D02*
G03*
X2745425Y1596356I3856J15425D01*
G01*
X2733674Y1607198D02*
G03*
X2715302Y1588826I-3674J-14698D01*
G01*
X2693644Y1577075D02*
G03*
X2712925Y1596356I3856J15425D01*
G01*
X2726144Y1609575D02*
G03*
X2745425Y1628856I3856J15425D01*
G01*
X2766174Y1639698D02*
G03*
X2747802Y1621326I-3674J-14698D01*
G01*
X2733674Y1639698D02*
G03*
X2715302Y1621326I-3674J-14698D01*
G01*
X2693644Y1609575D02*
G03*
X2712925Y1628856I3856J15425D01*
G01*
X2726144Y1642075D02*
G03*
X2745425Y1661356I3856J15425D01*
G01*
X2766174Y1672198D02*
G03*
X2747802Y1653826I-3674J-14698D01*
G01*
X2733674Y1672198D02*
G03*
X2715302Y1653826I-3674J-14698D01*
G01*
X2693644Y1642075D02*
G03*
X2712925Y1661356I3856J15425D01*
G01*
X2726144Y1674575D02*
G03*
X2745425Y1693856I3856J15425D01*
G01*
X2766174Y1704698D02*
G03*
X2747802Y1686326I-3674J-14698D01*
G01*
X2733674Y1704698D02*
G03*
X2715302Y1686326I-3674J-14698D01*
G01*
X2693644Y1674575D02*
G03*
X2712925Y1693856I3856J15425D01*
G01*
X2726144Y1707075D02*
G03*
X2745425Y1726356I3856J15425D01*
G01*
X2766174Y1737198D02*
G03*
X2747802Y1718826I-3674J-14698D01*
G01*
X2733674Y1737198D02*
G03*
X2715302Y1718826I-3674J-14698D01*
G01*
X2693644Y1707075D02*
G03*
X2712925Y1726356I3856J15425D01*
G01*
X2726144Y1739575D02*
G03*
X2745425Y1758856I3856J15425D01*
G01*
X2693644Y1739575D02*
G03*
X2712925Y1758856I3856J15425D01*
G01*
X2733674Y1769698D02*
G03*
X2715302Y1751326I-3674J-14698D01*
G01*
X2701174Y1769698D02*
G03*
X2682802Y1751326I-3674J-14698D01*
G01*
X2661144Y1739575D02*
G03*
X2680425Y1758856I3856J15425D01*
G01*
X2661144Y1707075D02*
G03*
X2680425Y1726356I3856J15425D01*
G01*
X2701174Y1737198D02*
G03*
X2682802Y1718826I-3674J-14698D01*
G01*
X2668674Y1737198D02*
G03*
X2650302Y1718826I-3674J-14698D01*
G01*
X2628644Y1707075D02*
G03*
X2647925Y1726356I3856J15425D01*
G01*
X2636174Y1737198D02*
G03*
X2617802Y1718826I-3674J-14698D01*
G01*
X2596144Y1707075D02*
G03*
X2615425Y1726356I3856J15425D01*
G01*
X2603674Y1737198D02*
G03*
X2585302Y1718826I-3674J-14698D01*
G01*
X2563644Y1707075D02*
G03*
X2582925Y1726356I3856J15425D01*
G01*
X2571174Y1737198D02*
G03*
X2552802Y1718826I-3674J-14698D01*
G01*
X2531144Y1674575D02*
G03*
X2550425Y1693856I3856J15425D01*
G01*
X2571174Y1704698D02*
G03*
X2552802Y1686326I-3674J-14698D01*
G01*
X2563644Y1674575D02*
G03*
X2582925Y1693856I3856J15425D01*
G01*
X2603674Y1704698D02*
G03*
X2585302Y1686326I-3674J-14698D01*
G01*
X2563644Y1642075D02*
G03*
X2582925Y1661356I3856J15425D01*
G01*
X2603674Y1672198D02*
G03*
X2585302Y1653826I-3674J-14698D01*
G01*
X2571174Y1672198D02*
G03*
X2552802Y1653826I-3674J-14698D01*
G01*
X2531144Y1642075D02*
G03*
X2550425Y1661356I3856J15425D01*
G01*
X2538674Y1672198D02*
G03*
X2520302Y1653826I-3674J-14698D01*
G01*
X2498644Y1642075D02*
G03*
X2517925Y1661356I3856J15425D01*
G01*
X2506174Y1672198D02*
G03*
X2487802Y1653826I-3674J-14698D01*
G01*
X2466144Y1642075D02*
G03*
X2485425Y1661356I3856J15425D01*
G01*
X2498644Y1674575D02*
G03*
X2517925Y1693856I3856J15425D01*
G01*
X2538674Y1704698D02*
G03*
X2520302Y1686326I-3674J-14698D01*
G01*
X2506174Y1704698D02*
G03*
X2487802Y1686326I-3674J-14698D01*
G01*
X2466144Y1674575D02*
G03*
X2485425Y1693856I3856J15425D01*
G01*
X2466144Y1609575D02*
G03*
X2485425Y1628856I3856J15425D01*
G01*
X2506174Y1639698D02*
G03*
X2487802Y1621326I-3674J-14698D01*
G01*
X2498644Y1609575D02*
G03*
X2517925Y1628856I3856J15425D01*
G01*
X2538674Y1639698D02*
G03*
X2520302Y1621326I-3674J-14698D01*
G01*
X2531144Y1609575D02*
G03*
X2550425Y1628856I3856J15425D01*
G01*
X2571174Y1639698D02*
G03*
X2552802Y1621326I-3674J-14698D01*
G01*
X2563644Y1609575D02*
G03*
X2582925Y1628856I3856J15425D01*
G01*
X2603674Y1639698D02*
G03*
X2585302Y1621326I-3674J-14698D01*
G01*
X2563644Y1577075D02*
G03*
X2582925Y1596356I3856J15425D01*
G01*
X2571174Y1607198D02*
G03*
X2552802Y1588826I-3674J-14698D01*
G01*
X2531144Y1544575D02*
G03*
X2550425Y1563856I3856J15425D01*
G01*
X2571174Y1574698D02*
G03*
X2552802Y1556326I-3674J-14698D01*
G01*
X2563644Y1544575D02*
G03*
X2582925Y1563856I3856J15425D01*
G01*
X2603674Y1574698D02*
G03*
X2585302Y1556326I-3674J-14698D01*
G01*
X2571174Y1542198D02*
G03*
X2552802Y1523826I-3674J-14698D01*
G01*
X2531144Y1512075D02*
G03*
X2550425Y1531356I3856J15425D01*
G01*
X2563644Y1512075D02*
G03*
X2582925Y1531356I3856J15425D01*
G01*
X2603674Y1542198D02*
G03*
X2585302Y1523826I-3674J-14698D01*
G01*
X2563644Y1479575D02*
G03*
X2582925Y1498856I3856J15425D01*
G01*
X2603674Y1509698D02*
G03*
X2585302Y1491326I-3674J-14698D01*
G01*
X2571174Y1477198D02*
G03*
X2552802Y1458826I-3674J-14698D01*
G01*
X2531144Y1447075D02*
G03*
X2550425Y1466356I3856J15425D01*
G01*
X2563644Y1447075D02*
G03*
X2582925Y1466356I3856J15425D01*
G01*
X2603674Y1477198D02*
G03*
X2585302Y1458826I-3674J-14698D01*
G01*
X2563644Y1414575D02*
G03*
X2582925Y1433856I3856J15425D01*
G01*
X2603674Y1444698D02*
G03*
X2585302Y1426326I-3674J-14698D01*
G01*
X2571174Y1444698D02*
G03*
X2552802Y1426326I-3674J-14698D01*
G01*
X2531144Y1414575D02*
G03*
X2550425Y1433856I3856J15425D01*
G01*
X2538674Y1444698D02*
G03*
X2520302Y1426326I-3674J-14698D01*
G01*
X2498644Y1414575D02*
G03*
X2517925Y1433856I3856J15425D01*
G01*
X2506174Y1444698D02*
G03*
X2487802Y1426326I-3674J-14698D01*
G01*
X2466144Y1414575D02*
G03*
X2485425Y1433856I3856J15425D01*
G01*
X2498644Y1447075D02*
G03*
X2517925Y1466356I3856J15425D01*
G01*
X2538674Y1477198D02*
G03*
X2520302Y1458826I-3674J-14698D01*
G01*
X2506174Y1477198D02*
G03*
X2487802Y1458826I-3674J-14698D01*
G01*
X2466144Y1447075D02*
G03*
X2485425Y1466356I3856J15425D01*
G01*
X2466144Y1382075D02*
G03*
X2485425Y1401356I3856J15425D01*
G01*
X2506174Y1412198D02*
G03*
X2487802Y1393826I-3674J-14698D01*
G01*
X2498644Y1382075D02*
G03*
X2517925Y1401356I3856J15425D01*
G01*
X2538674Y1412198D02*
G03*
X2520302Y1393826I-3674J-14698D01*
G01*
X2531144Y1382075D02*
G03*
X2550425Y1401356I3856J15425D01*
G01*
X2571174Y1412198D02*
G03*
X2552802Y1393826I-3674J-14698D01*
G01*
X2563644Y1382075D02*
G03*
X2582925Y1401356I3856J15425D01*
G01*
X2603674Y1412198D02*
G03*
X2585302Y1393826I-3674J-14698D01*
G01*
X2563644Y1349575D02*
G03*
X2582925Y1368856I3856J15425D01*
G01*
X2603674Y1379698D02*
G03*
X2585302Y1361326I-3674J-14698D01*
G01*
X2571174Y1379698D02*
G03*
X2552802Y1361326I-3674J-14698D01*
G01*
X2531144Y1349575D02*
G03*
X2550425Y1368856I3856J15425D01*
G01*
X2538674Y1379698D02*
G03*
X2520302Y1361326I-3674J-14698D01*
G01*
X2498644Y1349575D02*
G03*
X2517925Y1368856I3856J15425D01*
G01*
X2506174Y1379698D02*
G03*
X2487802Y1361326I-3674J-14698D01*
G01*
X2466144Y1349575D02*
G03*
X2485425Y1368856I3856J15425D01*
G01*
X2466144Y1317075D02*
G03*
X2485425Y1336356I3856J15425D01*
G01*
X2506174Y1347198D02*
G03*
X2487802Y1328826I-3674J-14698D01*
G01*
X2498644Y1317075D02*
G03*
X2517925Y1336356I3856J15425D01*
G01*
X2538674Y1347198D02*
G03*
X2520302Y1328826I-3674J-14698D01*
G01*
X2531144Y1317075D02*
G03*
X2550425Y1336356I3856J15425D01*
G01*
X2571174Y1347198D02*
G03*
X2552802Y1328826I-3674J-14698D01*
G01*
X2563644Y1317075D02*
G03*
X2582925Y1336356I3856J15425D01*
G01*
X2603674Y1347198D02*
G03*
X2585302Y1328826I-3674J-14698D01*
G01*
X2563644Y1284575D02*
G03*
X2582925Y1303856I3856J15425D01*
G01*
X2571174Y1314698D02*
G03*
X2552802Y1296326I-3674J-14698D01*
G01*
X2531144Y1252075D02*
G03*
X2550425Y1271356I3856J15425D01*
G01*
X2571174Y1282198D02*
G03*
X2552802Y1263826I-3674J-14698D01*
G01*
X2563644Y1252075D02*
G03*
X2582925Y1271356I3856J15425D01*
G01*
X2603674Y1282198D02*
G03*
X2585302Y1263826I-3674J-14698D01*
G01*
X2563644Y1219575D02*
G03*
X2582925Y1238856I3856J15425D01*
G01*
X2571174Y1249698D02*
G03*
X2552802Y1231326I-3674J-14698D01*
G01*
X2531144Y1187075D02*
G03*
X2550425Y1206356I3856J15425D01*
G01*
X2571174Y1217198D02*
G03*
X2552802Y1198826I-3674J-14698D01*
G01*
X2563644Y1187075D02*
G03*
X2582925Y1206356I3856J15425D01*
G01*
X2603674Y1217198D02*
G03*
X2585302Y1198826I-3674J-14698D01*
G01*
X2603674Y1249698D02*
G03*
X2585302Y1231326I-3674J-14698D01*
G01*
X2538674Y1217198D02*
G03*
X2520302Y1198826I-3674J-14698D01*
G01*
X2498644Y1187075D02*
G03*
X2517925Y1206356I3856J15425D01*
G01*
X2506174Y1217198D02*
G03*
X2487802Y1198826I-3674J-14698D01*
G01*
X2466144Y1187075D02*
G03*
X2485425Y1206356I3856J15425D01*
G01*
X2498644Y1219575D02*
G03*
X2517925Y1238856I3856J15425D01*
G01*
X2506174Y1249698D02*
G03*
X2487802Y1231326I-3674J-14698D01*
G01*
X2538674Y1249698D02*
G03*
X2520302Y1231326I-3674J-14698D01*
G01*
X2531144Y1219575D02*
G03*
X2550425Y1238856I3856J15425D01*
G01*
X2538674Y1282198D02*
G03*
X2520302Y1263826I-3674J-14698D01*
G01*
X2498644Y1252075D02*
G03*
X2517925Y1271356I3856J15425D01*
G01*
X2506174Y1282198D02*
G03*
X2487802Y1263826I-3674J-14698D01*
G01*
X2466144Y1252075D02*
G03*
X2485425Y1271356I3856J15425D01*
G01*
X2498644Y1284575D02*
G03*
X2517925Y1303856I3856J15425D01*
G01*
X2506174Y1314698D02*
G03*
X2487802Y1296326I-3674J-14698D01*
G01*
X2538674Y1314698D02*
G03*
X2520302Y1296326I-3674J-14698D01*
G01*
X2531144Y1284575D02*
G03*
X2550425Y1303856I3856J15425D01*
G01*
X2603674Y1314698D02*
G03*
X2585302Y1296326I-3674J-14698D01*
G01*
X2596144Y1219575D02*
G03*
X2615425Y1238856I3856J15425D01*
G01*
X2628644Y1252075D02*
G03*
X2647925Y1271356I3856J15425D01*
G01*
X2668674Y1282198D02*
G03*
X2650302Y1263826I-3674J-14698D01*
G01*
X2628644Y1219575D02*
G03*
X2647925Y1238856I3856J15425D01*
G01*
X2636174Y1249698D02*
G03*
X2617802Y1231326I-3674J-14698D01*
G01*
X2596144Y1187075D02*
G03*
X2615425Y1206356I3856J15425D01*
G01*
X2636174Y1217198D02*
G03*
X2617802Y1198826I-3674J-14698D01*
G01*
X2628644Y1187075D02*
G03*
X2647925Y1206356I3856J15425D01*
G01*
X2668674Y1217198D02*
G03*
X2650302Y1198826I-3674J-14698D01*
G01*
X2636174Y1184698D02*
G03*
X2617802Y1166326I-3674J-14698D01*
G01*
X2596144Y1154575D02*
G03*
X2615425Y1173856I3856J15425D01*
G01*
X2628644Y1154575D02*
G03*
X2647925Y1173856I3856J15425D01*
G01*
X2668674Y1184698D02*
G03*
X2650302Y1166326I-3674J-14698D01*
G01*
X2628644Y1122075D02*
G03*
X2647925Y1141356I3856J15425D01*
G01*
X2636174Y1152198D02*
G03*
X2617802Y1133826I-3674J-14698D01*
G01*
X2596144Y1122075D02*
G03*
X2615425Y1141356I3856J15425D01*
G01*
X2661144Y1187075D02*
G03*
X2680425Y1206356I3856J15425D01*
G01*
X2701174Y1217198D02*
G03*
X2682802Y1198826I-3674J-14698D01*
G01*
X2693644Y1219575D02*
G03*
X2712925Y1238856I3856J15425D01*
G01*
X2726144Y1252075D02*
G03*
X2745425Y1271356I3856J15425D01*
G01*
X2766174Y1282198D02*
G03*
X2747802Y1263826I-3674J-14698D01*
G01*
X2766174Y1314698D02*
G03*
X2747802Y1296326I-3674J-14698D01*
G01*
X2733674Y1282198D02*
G03*
X2715302Y1263826I-3674J-14698D01*
G01*
X2693644Y1252075D02*
G03*
X2712925Y1271356I3856J15425D01*
G01*
X2726144Y1284575D02*
G03*
X2745425Y1303856I3856J15425D01*
G01*
X2733674Y1314698D02*
G03*
X2715302Y1296326I-3674J-14698D01*
G01*
X2693644Y1284575D02*
G03*
X2712925Y1303856I3856J15425D01*
G01*
X2726144Y1317075D02*
G03*
X2745425Y1336356I3856J15425D01*
G01*
X2766174Y1347198D02*
G03*
X2747802Y1328826I-3674J-14698D01*
G01*
X2733674Y1347198D02*
G03*
X2715302Y1328826I-3674J-14698D01*
G01*
X2693644Y1317075D02*
G03*
X2712925Y1336356I3856J15425D01*
G01*
X2701174Y1379698D02*
G03*
X2682802Y1361326I-3674J-14698D01*
G01*
X2661144Y1349575D02*
G03*
X2680425Y1368856I3856J15425D01*
G01*
X2668674Y1379698D02*
G03*
X2650302Y1361326I-3674J-14698D01*
G01*
X2628644Y1349575D02*
G03*
X2647925Y1368856I3856J15425D01*
G01*
X2636174Y1379698D02*
G03*
X2617802Y1361326I-3674J-14698D01*
G01*
X2596144Y1349575D02*
G03*
X2615425Y1368856I3856J15425D01*
G01*
X2628644Y1382075D02*
G03*
X2647925Y1401356I3856J15425D01*
G01*
X2668674Y1412198D02*
G03*
X2650302Y1393826I-3674J-14698D01*
G01*
X2636174Y1412198D02*
G03*
X2617802Y1393826I-3674J-14698D01*
G01*
X2596144Y1382075D02*
G03*
X2615425Y1401356I3856J15425D01*
G01*
X2628644Y1414575D02*
G03*
X2647925Y1433856I3856J15425D01*
G01*
X2668674Y1444698D02*
G03*
X2650302Y1426326I-3674J-14698D01*
G01*
X2636174Y1444698D02*
G03*
X2617802Y1426326I-3674J-14698D01*
G01*
X2596144Y1414575D02*
G03*
X2615425Y1433856I3856J15425D01*
G01*
X2628644Y1447075D02*
G03*
X2647925Y1466356I3856J15425D01*
G01*
X2668674Y1477198D02*
G03*
X2650302Y1458826I-3674J-14698D01*
G01*
X2636174Y1477198D02*
G03*
X2617802Y1458826I-3674J-14698D01*
G01*
X2596144Y1447075D02*
G03*
X2615425Y1466356I3856J15425D01*
G01*
X2661144Y1414575D02*
G03*
X2680425Y1433856I3856J15425D01*
G01*
X2701174Y1444698D02*
G03*
X2682802Y1426326I-3674J-14698D01*
G01*
X2701174Y1477198D02*
G03*
X2682802Y1458826I-3674J-14698D01*
G01*
X2661144Y1447075D02*
G03*
X2680425Y1466356I3856J15425D01*
G01*
X2661144Y1382075D02*
G03*
X2680425Y1401356I3856J15425D01*
G01*
X2701174Y1412198D02*
G03*
X2682802Y1393826I-3674J-14698D01*
G01*
X2661144Y1317075D02*
G03*
X2680425Y1336356I3856J15425D01*
G01*
X2701174Y1347198D02*
G03*
X2682802Y1328826I-3674J-14698D01*
G01*
X2661144Y1284575D02*
G03*
X2680425Y1303856I3856J15425D01*
G01*
X2668674Y1314698D02*
G03*
X2650302Y1296326I-3674J-14698D01*
G01*
X2636174Y1282198D02*
G03*
X2617802Y1263826I-3674J-14698D01*
G01*
X2596144Y1252075D02*
G03*
X2615425Y1271356I3856J15425D01*
G01*
X2628644Y1284575D02*
G03*
X2647925Y1303856I3856J15425D01*
G01*
X2636174Y1314698D02*
G03*
X2617802Y1296326I-3674J-14698D01*
G01*
X2596144Y1284575D02*
G03*
X2615425Y1303856I3856J15425D01*
G01*
X2628644Y1317075D02*
G03*
X2647925Y1336356I3856J15425D01*
G01*
X2668674Y1347198D02*
G03*
X2650302Y1328826I-3674J-14698D01*
G01*
X2636174Y1347198D02*
G03*
X2617802Y1328826I-3674J-14698D01*
G01*
X2596144Y1317075D02*
G03*
X2615425Y1336356I3856J15425D01*
G01*
X2701174Y1314698D02*
G03*
X2682802Y1296326I-3674J-14698D01*
G01*
X2661144Y1252075D02*
G03*
X2680425Y1271356I3856J15425D01*
G01*
X2701174Y1282198D02*
G03*
X2682802Y1263826I-3674J-14698D01*
G01*
X2661144Y1219575D02*
G03*
X2680425Y1238856I3856J15425D01*
G01*
X2668674Y1249698D02*
G03*
X2650302Y1231326I-3674J-14698D01*
G01*
X2701174Y1249698D02*
G03*
X2682802Y1231326I-3674J-14698D01*
G01*
X2466144Y1284575D02*
G03*
X2485425Y1303856I3856J15425D01*
G01*
X2466144Y1219575D02*
G03*
X2485425Y1238856I3856J15425D01*
G01*
X2473674Y1314698D02*
G03*
X2455302Y1296326I-3674J-14698D01*
G01*
X2433644Y1252075D02*
G03*
X2452925Y1271356I3856J15425D01*
G01*
X2473674Y1282198D02*
G03*
X2455302Y1263826I-3674J-14698D01*
G01*
X2433644Y1219575D02*
G03*
X2452925Y1238856I3856J15425D01*
G01*
X2441174Y1249698D02*
G03*
X2422802Y1231326I-3674J-14698D01*
G01*
X2401144Y1187075D02*
G03*
X2420425Y1206356I3856J15425D01*
G01*
X2441174Y1217198D02*
G03*
X2422802Y1198826I-3674J-14698D01*
G01*
X2433644Y1187075D02*
G03*
X2452925Y1206356I3856J15425D01*
G01*
X2473674Y1217198D02*
G03*
X2455302Y1198826I-3674J-14698D01*
G01*
X2473674Y1249698D02*
G03*
X2455302Y1231326I-3674J-14698D01*
G01*
X2433644Y1122075D02*
G03*
X2452925Y1141356I3856J15425D01*
G01*
X2473674Y1152198D02*
G03*
X2455302Y1133826I-3674J-14698D01*
G01*
X2441174Y1152198D02*
G03*
X2422802Y1133826I-3674J-14698D01*
G01*
X2401144Y1122075D02*
G03*
X2420425Y1141356I3856J15425D01*
G01*
X2441174Y1119698D02*
G03*
X2422802Y1101326I-3674J-14698D01*
G01*
X2433644Y1089575D02*
G03*
X2452925Y1108856I3856J15425D01*
G01*
X2473674Y1119698D02*
G03*
X2455302Y1101326I-3674J-14698D01*
G01*
X2473674Y1087198D02*
G03*
X2455302Y1068826I-3674J-14698D01*
G01*
X2408674Y1152198D02*
G03*
X2390302Y1133826I-3674J-14698D01*
G01*
X2408674Y1217198D02*
G03*
X2390302Y1198826I-3674J-14698D01*
G01*
X2368644Y1187075D02*
G03*
X2387925Y1206356I3856J15425D01*
G01*
X2376174Y1217198D02*
G03*
X2357802Y1198826I-3674J-14698D01*
G01*
X2336144Y1187075D02*
G03*
X2355425Y1206356I3856J15425D01*
G01*
X2343674Y1217198D02*
G03*
X2325302Y1198826I-3674J-14698D01*
G01*
X2336144Y1219575D02*
G03*
X2355425Y1238856I3856J15425D01*
G01*
X2343674Y1249698D02*
G03*
X2325302Y1231326I-3674J-14698D01*
G01*
X2376174Y1249698D02*
G03*
X2357802Y1231326I-3674J-14698D01*
G01*
X2303644Y1219575D02*
G03*
X2322925Y1238856I3856J15425D01*
G01*
X2336144Y1252075D02*
G03*
X2355425Y1271356I3856J15425D01*
G01*
X2376174Y1282198D02*
G03*
X2357802Y1263826I-3674J-14698D01*
G01*
X2343674Y1282198D02*
G03*
X2325302Y1263826I-3674J-14698D01*
G01*
X2303644Y1252075D02*
G03*
X2322925Y1271356I3856J15425D01*
G01*
X2336144Y1284575D02*
G03*
X2355425Y1303856I3856J15425D01*
G01*
X2343674Y1314698D02*
G03*
X2325302Y1296326I-3674J-14698D01*
G01*
X2376174Y1314698D02*
G03*
X2357802Y1296326I-3674J-14698D01*
G01*
X2303644Y1284575D02*
G03*
X2322925Y1303856I3856J15425D01*
G01*
X2336144Y1317075D02*
G03*
X2355425Y1336356I3856J15425D01*
G01*
X2376174Y1347198D02*
G03*
X2357802Y1328826I-3674J-14698D01*
G01*
X2343674Y1347198D02*
G03*
X2325302Y1328826I-3674J-14698D01*
G01*
X2303644Y1317075D02*
G03*
X2322925Y1336356I3856J15425D01*
G01*
X2336144Y1349575D02*
G03*
X2355425Y1368856I3856J15425D01*
G01*
X2376174Y1379698D02*
G03*
X2357802Y1361326I-3674J-14698D01*
G01*
X2343674Y1379698D02*
G03*
X2325302Y1361326I-3674J-14698D01*
G01*
X2303644Y1349575D02*
G03*
X2322925Y1368856I3856J15425D01*
G01*
X2336144Y1382075D02*
G03*
X2355425Y1401356I3856J15425D01*
G01*
X2376174Y1412198D02*
G03*
X2357802Y1393826I-3674J-14698D01*
G01*
X2343674Y1412198D02*
G03*
X2325302Y1393826I-3674J-14698D01*
G01*
X2303644Y1382075D02*
G03*
X2322925Y1401356I3856J15425D01*
G01*
X2336144Y1414575D02*
G03*
X2355425Y1433856I3856J15425D01*
G01*
X2376174Y1444698D02*
G03*
X2357802Y1426326I-3674J-14698D01*
G01*
X2343674Y1444698D02*
G03*
X2325302Y1426326I-3674J-14698D01*
G01*
X2303644Y1414575D02*
G03*
X2322925Y1433856I3856J15425D01*
G01*
X2336144Y1447075D02*
G03*
X2355425Y1466356I3856J15425D01*
G01*
X2376174Y1477198D02*
G03*
X2357802Y1458826I-3674J-14698D01*
G01*
X2343674Y1477198D02*
G03*
X2325302Y1458826I-3674J-14698D01*
G01*
X2303644Y1447075D02*
G03*
X2322925Y1466356I3856J15425D01*
G01*
X2368644Y1414575D02*
G03*
X2387925Y1433856I3856J15425D01*
G01*
X2408674Y1444698D02*
G03*
X2390302Y1426326I-3674J-14698D01*
G01*
X2401144Y1447075D02*
G03*
X2420425Y1466356I3856J15425D01*
G01*
X2441174Y1477198D02*
G03*
X2422802Y1458826I-3674J-14698D01*
G01*
X2433644Y1447075D02*
G03*
X2452925Y1466356I3856J15425D01*
G01*
X2473674Y1477198D02*
G03*
X2455302Y1458826I-3674J-14698D01*
G01*
X2433644Y1414575D02*
G03*
X2452925Y1433856I3856J15425D01*
G01*
X2473674Y1444698D02*
G03*
X2455302Y1426326I-3674J-14698D01*
G01*
X2441174Y1444698D02*
G03*
X2422802Y1426326I-3674J-14698D01*
G01*
X2401144Y1414575D02*
G03*
X2420425Y1433856I3856J15425D01*
G01*
X2401144Y1382075D02*
G03*
X2420425Y1401356I3856J15425D01*
G01*
X2441174Y1412198D02*
G03*
X2422802Y1393826I-3674J-14698D01*
G01*
X2433644Y1382075D02*
G03*
X2452925Y1401356I3856J15425D01*
G01*
X2473674Y1412198D02*
G03*
X2455302Y1393826I-3674J-14698D01*
G01*
X2433644Y1349575D02*
G03*
X2452925Y1368856I3856J15425D01*
G01*
X2473674Y1379698D02*
G03*
X2455302Y1361326I-3674J-14698D01*
G01*
X2441174Y1379698D02*
G03*
X2422802Y1361326I-3674J-14698D01*
G01*
X2401144Y1349575D02*
G03*
X2420425Y1368856I3856J15425D01*
G01*
X2401144Y1317075D02*
G03*
X2420425Y1336356I3856J15425D01*
G01*
X2441174Y1347198D02*
G03*
X2422802Y1328826I-3674J-14698D01*
G01*
X2433644Y1317075D02*
G03*
X2452925Y1336356I3856J15425D01*
G01*
X2473674Y1347198D02*
G03*
X2455302Y1328826I-3674J-14698D01*
G01*
X2433644Y1284575D02*
G03*
X2452925Y1303856I3856J15425D01*
G01*
X2441174Y1314698D02*
G03*
X2422802Y1296326I-3674J-14698D01*
G01*
X2401144Y1252075D02*
G03*
X2420425Y1271356I3856J15425D01*
G01*
X2441174Y1282198D02*
G03*
X2422802Y1263826I-3674J-14698D01*
G01*
X2401144Y1219575D02*
G03*
X2420425Y1238856I3856J15425D01*
G01*
X2401144Y1284575D02*
G03*
X2420425Y1303856I3856J15425D01*
G01*
X2408674Y1379698D02*
G03*
X2390302Y1361326I-3674J-14698D01*
G01*
X2368644Y1349575D02*
G03*
X2387925Y1368856I3856J15425D01*
G01*
X2408674Y1412198D02*
G03*
X2390302Y1393826I-3674J-14698D01*
G01*
X2368644Y1382075D02*
G03*
X2387925Y1401356I3856J15425D01*
G01*
X2368644Y1317075D02*
G03*
X2387925Y1336356I3856J15425D01*
G01*
X2408674Y1347198D02*
G03*
X2390302Y1328826I-3674J-14698D01*
G01*
X2368644Y1284575D02*
G03*
X2387925Y1303856I3856J15425D01*
G01*
X2408674Y1314698D02*
G03*
X2390302Y1296326I-3674J-14698D01*
G01*
X2368644Y1252075D02*
G03*
X2387925Y1271356I3856J15425D01*
G01*
X2408674Y1282198D02*
G03*
X2390302Y1263826I-3674J-14698D01*
G01*
X2368644Y1219575D02*
G03*
X2387925Y1238856I3856J15425D01*
G01*
X2408674Y1249698D02*
G03*
X2390302Y1231326I-3674J-14698D01*
G01*
X2238644Y1284575D02*
G03*
X2257925Y1303856I3856J15425D01*
G01*
X2246174Y1314698D02*
G03*
X2227802Y1296326I-3674J-14698D01*
G01*
X2181174Y1379698D02*
G03*
X2162802Y1361326I-3674J-14698D01*
G01*
X2181174Y1412198D02*
G03*
X2162802Y1393826I-3674J-14698D01*
G01*
X2141144Y1382075D02*
G03*
X2160425Y1401356I3856J15425D01*
G01*
X2148674Y1412198D02*
G03*
X2130302Y1393826I-3674J-14698D01*
G01*
X2141144Y1414575D02*
G03*
X2160425Y1433856I3856J15425D01*
G01*
X2181174Y1444698D02*
G03*
X2162802Y1426326I-3674J-14698D01*
G01*
X2148674Y1444698D02*
G03*
X2130302Y1426326I-3674J-14698D01*
G01*
X2206144Y1479575D02*
G03*
X2225425Y1498856I3856J15425D01*
G01*
X2246174Y1509698D02*
G03*
X2227802Y1491326I-3674J-14698D01*
G01*
X2238644Y1479575D02*
G03*
X2257925Y1498856I3856J15425D01*
G01*
X2278674Y1509698D02*
G03*
X2260302Y1491326I-3674J-14698D01*
G01*
X2271144Y1479575D02*
G03*
X2290425Y1498856I3856J15425D01*
G01*
X2311174Y1509698D02*
G03*
X2292802Y1491326I-3674J-14698D01*
G01*
X2311174Y1542198D02*
G03*
X2292802Y1523826I-3674J-14698D01*
G01*
X2271144Y1512075D02*
G03*
X2290425Y1531356I3856J15425D01*
G01*
X2238644Y1512075D02*
G03*
X2257925Y1531356I3856J15425D01*
G01*
X2278674Y1542198D02*
G03*
X2260302Y1523826I-3674J-14698D01*
G01*
X2303644Y1512075D02*
G03*
X2322925Y1531356I3856J15425D01*
G01*
X2343674Y1542198D02*
G03*
X2325302Y1523826I-3674J-14698D01*
G01*
X2336144Y1512075D02*
G03*
X2355425Y1531356I3856J15425D01*
G01*
X2376174Y1542198D02*
G03*
X2357802Y1523826I-3674J-14698D01*
G01*
X2336144Y1479575D02*
G03*
X2355425Y1498856I3856J15425D01*
G01*
X2376174Y1509698D02*
G03*
X2357802Y1491326I-3674J-14698D01*
G01*
X2343674Y1509698D02*
G03*
X2325302Y1491326I-3674J-14698D01*
G01*
X2303644Y1479575D02*
G03*
X2322925Y1498856I3856J15425D01*
G01*
X2368644Y1447075D02*
G03*
X2387925Y1466356I3856J15425D01*
G01*
X2408674Y1477198D02*
G03*
X2390302Y1458826I-3674J-14698D01*
G01*
X2433644Y1479575D02*
G03*
X2452925Y1498856I3856J15425D01*
G01*
X2473674Y1509698D02*
G03*
X2455302Y1491326I-3674J-14698D01*
G01*
X2466144Y1479575D02*
G03*
X2485425Y1498856I3856J15425D01*
G01*
X2506174Y1509698D02*
G03*
X2487802Y1491326I-3674J-14698D01*
G01*
X2498644Y1479575D02*
G03*
X2517925Y1498856I3856J15425D01*
G01*
X2538674Y1509698D02*
G03*
X2520302Y1491326I-3674J-14698D01*
G01*
X2531144Y1479575D02*
G03*
X2550425Y1498856I3856J15425D01*
G01*
X2571174Y1509698D02*
G03*
X2552802Y1491326I-3674J-14698D01*
G01*
X2596144Y1479575D02*
G03*
X2615425Y1498856I3856J15425D01*
G01*
X2636174Y1509698D02*
G03*
X2617802Y1491326I-3674J-14698D01*
G01*
X2628644Y1479575D02*
G03*
X2647925Y1498856I3856J15425D01*
G01*
X2668674Y1509698D02*
G03*
X2650302Y1491326I-3674J-14698D01*
G01*
X2668674Y1542198D02*
G03*
X2650302Y1523826I-3674J-14698D01*
G01*
X2628644Y1512075D02*
G03*
X2647925Y1531356I3856J15425D01*
G01*
X2596144Y1512075D02*
G03*
X2615425Y1531356I3856J15425D01*
G01*
X2636174Y1542198D02*
G03*
X2617802Y1523826I-3674J-14698D01*
G01*
X2661144Y1512075D02*
G03*
X2680425Y1531356I3856J15425D01*
G01*
X2701174Y1542198D02*
G03*
X2682802Y1523826I-3674J-14698D01*
G01*
X2661144Y1479575D02*
G03*
X2680425Y1498856I3856J15425D01*
G01*
X2701174Y1509698D02*
G03*
X2682802Y1491326I-3674J-14698D01*
G01*
X2701174Y1574698D02*
G03*
X2682802Y1556326I-3674J-14698D01*
G01*
X2661144Y1544575D02*
G03*
X2680425Y1563856I3856J15425D01*
G01*
X2668674Y1574698D02*
G03*
X2650302Y1556326I-3674J-14698D01*
G01*
X2628644Y1544575D02*
G03*
X2647925Y1563856I3856J15425D01*
G01*
X2636174Y1574698D02*
G03*
X2617802Y1556326I-3674J-14698D01*
G01*
X2596144Y1544575D02*
G03*
X2615425Y1563856I3856J15425D01*
G01*
X2628644Y1577075D02*
G03*
X2647925Y1596356I3856J15425D01*
G01*
X2636174Y1607198D02*
G03*
X2617802Y1588826I-3674J-14698D01*
G01*
X2668674Y1607198D02*
G03*
X2650302Y1588826I-3674J-14698D01*
G01*
X2596144Y1577075D02*
G03*
X2615425Y1596356I3856J15425D01*
G01*
X2603674Y1607198D02*
G03*
X2585302Y1588826I-3674J-14698D01*
G01*
X2538674Y1574698D02*
G03*
X2520302Y1556326I-3674J-14698D01*
G01*
X2498644Y1544575D02*
G03*
X2517925Y1563856I3856J15425D01*
G01*
X2506174Y1574698D02*
G03*
X2487802Y1556326I-3674J-14698D01*
G01*
X2466144Y1544575D02*
G03*
X2485425Y1563856I3856J15425D01*
G01*
X2498644Y1577075D02*
G03*
X2517925Y1596356I3856J15425D01*
G01*
X2506174Y1607198D02*
G03*
X2487802Y1588826I-3674J-14698D01*
G01*
X2538674Y1607198D02*
G03*
X2520302Y1588826I-3674J-14698D01*
G01*
X2531144Y1577075D02*
G03*
X2550425Y1596356I3856J15425D01*
G01*
X2538674Y1542198D02*
G03*
X2520302Y1523826I-3674J-14698D01*
G01*
X2498644Y1512075D02*
G03*
X2517925Y1531356I3856J15425D01*
G01*
X2466144Y1512075D02*
G03*
X2485425Y1531356I3856J15425D01*
G01*
X2506174Y1542198D02*
G03*
X2487802Y1523826I-3674J-14698D01*
G01*
X2473674Y1542198D02*
G03*
X2455302Y1523826I-3674J-14698D01*
G01*
X2433644Y1512075D02*
G03*
X2452925Y1531356I3856J15425D01*
G01*
X2401144Y1512075D02*
G03*
X2420425Y1531356I3856J15425D01*
G01*
X2441174Y1542198D02*
G03*
X2422802Y1523826I-3674J-14698D01*
G01*
X2401144Y1479575D02*
G03*
X2420425Y1498856I3856J15425D01*
G01*
X2441174Y1509698D02*
G03*
X2422802Y1491326I-3674J-14698D01*
G01*
X2433644Y1544575D02*
G03*
X2452925Y1563856I3856J15425D01*
G01*
X2473674Y1574698D02*
G03*
X2455302Y1556326I-3674J-14698D01*
G01*
X2466144Y1577075D02*
G03*
X2485425Y1596356I3856J15425D01*
G01*
X2473674Y1672198D02*
G03*
X2455302Y1653826I-3674J-14698D01*
G01*
X2433644Y1642075D02*
G03*
X2452925Y1661356I3856J15425D01*
G01*
X2441174Y1672198D02*
G03*
X2422802Y1653826I-3674J-14698D01*
G01*
X2401144Y1642075D02*
G03*
X2420425Y1661356I3856J15425D01*
G01*
X2433644Y1674575D02*
G03*
X2452925Y1693856I3856J15425D01*
G01*
X2473674Y1704698D02*
G03*
X2455302Y1686326I-3674J-14698D01*
G01*
X2466144Y1707075D02*
G03*
X2485425Y1726356I3856J15425D01*
G01*
X2473674Y1737198D02*
G03*
X2455302Y1718826I-3674J-14698D01*
G01*
X2433644Y1707075D02*
G03*
X2452925Y1726356I3856J15425D01*
G01*
X2441174Y1737198D02*
G03*
X2422802Y1718826I-3674J-14698D01*
G01*
X2401144Y1707075D02*
G03*
X2420425Y1726356I3856J15425D01*
G01*
X2401144Y1739575D02*
G03*
X2420425Y1758856I3856J15425D01*
G01*
X2401144Y1674575D02*
G03*
X2420425Y1693856I3856J15425D01*
G01*
X2441174Y1704698D02*
G03*
X2422802Y1686326I-3674J-14698D01*
G01*
X2401144Y1609575D02*
G03*
X2420425Y1628856I3856J15425D01*
G01*
X2441174Y1639698D02*
G03*
X2422802Y1621326I-3674J-14698D01*
G01*
X2433644Y1609575D02*
G03*
X2452925Y1628856I3856J15425D01*
G01*
X2473674Y1639698D02*
G03*
X2455302Y1621326I-3674J-14698D01*
G01*
X2433644Y1577075D02*
G03*
X2452925Y1596356I3856J15425D01*
G01*
X2441174Y1607198D02*
G03*
X2422802Y1588826I-3674J-14698D01*
G01*
X2401144Y1544575D02*
G03*
X2420425Y1563856I3856J15425D01*
G01*
X2441174Y1574698D02*
G03*
X2422802Y1556326I-3674J-14698D01*
G01*
X2473674Y1607198D02*
G03*
X2455302Y1588826I-3674J-14698D01*
G01*
X2401144Y1577075D02*
G03*
X2420425Y1596356I3856J15425D01*
G01*
X2408674Y1672198D02*
G03*
X2390302Y1653826I-3674J-14698D01*
G01*
X2368644Y1642075D02*
G03*
X2387925Y1661356I3856J15425D01*
G01*
X2376174Y1672198D02*
G03*
X2357802Y1653826I-3674J-14698D01*
G01*
X2336144Y1642075D02*
G03*
X2355425Y1661356I3856J15425D01*
G01*
X2343674Y1672198D02*
G03*
X2325302Y1653826I-3674J-14698D01*
G01*
X2303644Y1642075D02*
G03*
X2322925Y1661356I3856J15425D01*
G01*
X2311174Y1672198D02*
G03*
X2292802Y1653826I-3674J-14698D01*
G01*
X2271144Y1642075D02*
G03*
X2290425Y1661356I3856J15425D01*
G01*
X2278674Y1672198D02*
G03*
X2260302Y1653826I-3674J-14698D01*
G01*
X2238644Y1642075D02*
G03*
X2257925Y1661356I3856J15425D01*
G01*
X2246174Y1672198D02*
G03*
X2227802Y1653826I-3674J-14698D01*
G01*
X2206144Y1642075D02*
G03*
X2225425Y1661356I3856J15425D01*
G01*
X2213674Y1672198D02*
G03*
X2195302Y1653826I-3674J-14698D01*
G01*
X2173644Y1642075D02*
G03*
X2192925Y1661356I3856J15425D01*
G01*
X2206144Y1674575D02*
G03*
X2225425Y1693856I3856J15425D01*
G01*
X2246174Y1704698D02*
G03*
X2227802Y1686326I-3674J-14698D01*
G01*
X2238644Y1674575D02*
G03*
X2257925Y1693856I3856J15425D01*
G01*
X2278674Y1704698D02*
G03*
X2260302Y1686326I-3674J-14698D01*
G01*
X2271144Y1674575D02*
G03*
X2290425Y1693856I3856J15425D01*
G01*
X2311174Y1704698D02*
G03*
X2292802Y1686326I-3674J-14698D01*
G01*
X2271144Y1707075D02*
G03*
X2290425Y1726356I3856J15425D01*
G01*
X2311174Y1737198D02*
G03*
X2292802Y1718826I-3674J-14698D01*
G01*
X2278674Y1737198D02*
G03*
X2260302Y1718826I-3674J-14698D01*
G01*
X2238644Y1707075D02*
G03*
X2257925Y1726356I3856J15425D01*
G01*
X2246174Y1737198D02*
G03*
X2227802Y1718826I-3674J-14698D01*
G01*
X2213674Y1704698D02*
G03*
X2195302Y1686326I-3674J-14698D01*
G01*
X2173644Y1609575D02*
G03*
X2192925Y1628856I3856J15425D01*
G01*
X2213674Y1639698D02*
G03*
X2195302Y1621326I-3674J-14698D01*
G01*
X2206144Y1609575D02*
G03*
X2225425Y1628856I3856J15425D01*
G01*
X2246174Y1639698D02*
G03*
X2227802Y1621326I-3674J-14698D01*
G01*
X2238644Y1609575D02*
G03*
X2257925Y1628856I3856J15425D01*
G01*
X2278674Y1639698D02*
G03*
X2260302Y1621326I-3674J-14698D01*
G01*
X2271144Y1609575D02*
G03*
X2290425Y1628856I3856J15425D01*
G01*
X2311174Y1639698D02*
G03*
X2292802Y1621326I-3674J-14698D01*
G01*
X2271144Y1577075D02*
G03*
X2290425Y1596356I3856J15425D01*
G01*
X2278674Y1607198D02*
G03*
X2260302Y1588826I-3674J-14698D01*
G01*
X2238644Y1544575D02*
G03*
X2257925Y1563856I3856J15425D01*
G01*
X2278674Y1574698D02*
G03*
X2260302Y1556326I-3674J-14698D01*
G01*
X2271144Y1544575D02*
G03*
X2290425Y1563856I3856J15425D01*
G01*
X2311174Y1574698D02*
G03*
X2292802Y1556326I-3674J-14698D01*
G01*
X2311174Y1607198D02*
G03*
X2292802Y1588826I-3674J-14698D01*
G01*
X2246174Y1574698D02*
G03*
X2227802Y1556326I-3674J-14698D01*
G01*
X2206144Y1544575D02*
G03*
X2225425Y1563856I3856J15425D01*
G01*
X2213674Y1574698D02*
G03*
X2195302Y1556326I-3674J-14698D01*
G01*
X2173644Y1544575D02*
G03*
X2192925Y1563856I3856J15425D01*
G01*
X2206144Y1577075D02*
G03*
X2225425Y1596356I3856J15425D01*
G01*
X2213674Y1607198D02*
G03*
X2195302Y1588826I-3674J-14698D01*
G01*
X2246174Y1607198D02*
G03*
X2227802Y1588826I-3674J-14698D01*
G01*
X2238644Y1577075D02*
G03*
X2257925Y1596356I3856J15425D01*
G01*
X2246174Y1542198D02*
G03*
X2227802Y1523826I-3674J-14698D01*
G01*
X2206144Y1512075D02*
G03*
X2225425Y1531356I3856J15425D01*
G01*
X2173644Y1512075D02*
G03*
X2192925Y1531356I3856J15425D01*
G01*
X2213674Y1542198D02*
G03*
X2195302Y1523826I-3674J-14698D01*
G01*
X2173644Y1479575D02*
G03*
X2192925Y1498856I3856J15425D01*
G01*
X2213674Y1509698D02*
G03*
X2195302Y1491326I-3674J-14698D01*
G01*
X2181174Y1542198D02*
G03*
X2162802Y1523826I-3674J-14698D01*
G01*
X2141144Y1512075D02*
G03*
X2160425Y1531356I3856J15425D01*
G01*
X2108644Y1512075D02*
G03*
X2127925Y1531356I3856J15425D01*
G01*
X2148674Y1542198D02*
G03*
X2130302Y1523826I-3674J-14698D01*
G01*
X2108644Y1479575D02*
G03*
X2127925Y1498856I3856J15425D01*
G01*
X2148674Y1509698D02*
G03*
X2130302Y1491326I-3674J-14698D01*
G01*
X2141144Y1479575D02*
G03*
X2160425Y1498856I3856J15425D01*
G01*
X2181174Y1509698D02*
G03*
X2162802Y1491326I-3674J-14698D01*
G01*
X2181174Y1574698D02*
G03*
X2162802Y1556326I-3674J-14698D01*
G01*
X2141144Y1544575D02*
G03*
X2160425Y1563856I3856J15425D01*
G01*
X2148674Y1574698D02*
G03*
X2130302Y1556326I-3674J-14698D01*
G01*
X2108644Y1544575D02*
G03*
X2127925Y1563856I3856J15425D01*
G01*
X2141144Y1577075D02*
G03*
X2160425Y1596356I3856J15425D01*
G01*
X2148674Y1607198D02*
G03*
X2130302Y1588826I-3674J-14698D01*
G01*
X2181174Y1607198D02*
G03*
X2162802Y1588826I-3674J-14698D01*
G01*
X2173644Y1577075D02*
G03*
X2192925Y1596356I3856J15425D01*
G01*
X2181174Y1672198D02*
G03*
X2162802Y1653826I-3674J-14698D01*
G01*
X2141144Y1609575D02*
G03*
X2160425Y1628856I3856J15425D01*
G01*
X2181174Y1639698D02*
G03*
X2162802Y1621326I-3674J-14698D01*
G01*
X2148674Y1639698D02*
G03*
X2130302Y1621326I-3674J-14698D01*
G01*
X2116174Y1574698D02*
G03*
X2097802Y1556326I-3674J-14698D01*
G01*
X2116174Y1542198D02*
G03*
X2097802Y1523826I-3674J-14698D01*
G01*
X2116174Y1509698D02*
G03*
X2097802Y1491326I-3674J-14698D01*
G01*
X2116174Y1477198D02*
G03*
X2097802Y1458826I-3674J-14698D01*
G01*
X2303644Y1544575D02*
G03*
X2322925Y1563856I3856J15425D01*
G01*
X2343674Y1574698D02*
G03*
X2325302Y1556326I-3674J-14698D01*
G01*
X2336144Y1544575D02*
G03*
X2355425Y1563856I3856J15425D01*
G01*
X2376174Y1574698D02*
G03*
X2357802Y1556326I-3674J-14698D01*
G01*
X2376174Y1607198D02*
G03*
X2357802Y1588826I-3674J-14698D01*
G01*
X2343674Y1607198D02*
G03*
X2325302Y1588826I-3674J-14698D01*
G01*
X2336144Y1577075D02*
G03*
X2355425Y1596356I3856J15425D01*
G01*
X2376174Y1639698D02*
G03*
X2357802Y1621326I-3674J-14698D01*
G01*
X2336144Y1609575D02*
G03*
X2355425Y1628856I3856J15425D01*
G01*
X2343674Y1639698D02*
G03*
X2325302Y1621326I-3674J-14698D01*
G01*
X2303644Y1609575D02*
G03*
X2322925Y1628856I3856J15425D01*
G01*
X2303644Y1577075D02*
G03*
X2322925Y1596356I3856J15425D01*
G01*
X2368644Y1577075D02*
G03*
X2387925Y1596356I3856J15425D01*
G01*
X2408674Y1639698D02*
G03*
X2390302Y1621326I-3674J-14698D01*
G01*
X2368644Y1609575D02*
G03*
X2387925Y1628856I3856J15425D01*
G01*
X2408674Y1607198D02*
G03*
X2390302Y1588826I-3674J-14698D01*
G01*
X2368644Y1544575D02*
G03*
X2387925Y1563856I3856J15425D01*
G01*
X2408674Y1574698D02*
G03*
X2390302Y1556326I-3674J-14698D01*
G01*
X2408674Y1542198D02*
G03*
X2390302Y1523826I-3674J-14698D01*
G01*
X2368644Y1512075D02*
G03*
X2387925Y1531356I3856J15425D01*
G01*
X2368644Y1479575D02*
G03*
X2387925Y1498856I3856J15425D01*
G01*
X2408674Y1509698D02*
G03*
X2390302Y1491326I-3674J-14698D01*
G01*
X2408674Y1704698D02*
G03*
X2390302Y1686326I-3674J-14698D01*
G01*
X2368644Y1674575D02*
G03*
X2387925Y1693856I3856J15425D01*
G01*
X2376174Y1704698D02*
G03*
X2357802Y1686326I-3674J-14698D01*
G01*
X2336144Y1674575D02*
G03*
X2355425Y1693856I3856J15425D01*
G01*
X2343674Y1704698D02*
G03*
X2325302Y1686326I-3674J-14698D01*
G01*
X2303644Y1674575D02*
G03*
X2322925Y1693856I3856J15425D01*
G01*
X2336144Y1707075D02*
G03*
X2355425Y1726356I3856J15425D01*
G01*
X2376174Y1737198D02*
G03*
X2357802Y1718826I-3674J-14698D01*
G01*
X2343674Y1737198D02*
G03*
X2325302Y1718826I-3674J-14698D01*
G01*
X2303644Y1707075D02*
G03*
X2322925Y1726356I3856J15425D01*
G01*
X2336144Y1739575D02*
G03*
X2355425Y1758856I3856J15425D01*
G01*
X2376174Y1769698D02*
G03*
X2357802Y1751326I-3674J-14698D01*
G01*
X2343674Y1769698D02*
G03*
X2325302Y1751326I-3674J-14698D01*
G01*
X2303644Y1739575D02*
G03*
X2322925Y1758856I3856J15425D01*
G01*
X2368644Y1707075D02*
G03*
X2387925Y1726356I3856J15425D01*
G01*
X2408674Y1737198D02*
G03*
X2390302Y1718826I-3674J-14698D01*
G01*
X2408674Y1769698D02*
G03*
X2390302Y1751326I-3674J-14698D01*
G01*
X2368644Y1739575D02*
G03*
X2387925Y1758856I3856J15425D01*
G01*
X2311174Y1769698D02*
G03*
X2292802Y1751326I-3674J-14698D01*
G01*
X2596144Y1642075D02*
G03*
X2615425Y1661356I3856J15425D01*
G01*
X2636174Y1672198D02*
G03*
X2617802Y1653826I-3674J-14698D01*
G01*
X2628644Y1674575D02*
G03*
X2647925Y1693856I3856J15425D01*
G01*
X2668674Y1704698D02*
G03*
X2650302Y1686326I-3674J-14698D01*
G01*
X2628644Y1642075D02*
G03*
X2647925Y1661356I3856J15425D01*
G01*
X2668674Y1672198D02*
G03*
X2650302Y1653826I-3674J-14698D01*
G01*
X2636174Y1704698D02*
G03*
X2617802Y1686326I-3674J-14698D01*
G01*
X2596144Y1674575D02*
G03*
X2615425Y1693856I3856J15425D01*
G01*
X2596144Y1609575D02*
G03*
X2615425Y1628856I3856J15425D01*
G01*
X2636174Y1639698D02*
G03*
X2617802Y1621326I-3674J-14698D01*
G01*
X2628644Y1609575D02*
G03*
X2647925Y1628856I3856J15425D01*
G01*
X2668674Y1639698D02*
G03*
X2650302Y1621326I-3674J-14698D01*
G01*
X2661144Y1577075D02*
G03*
X2680425Y1596356I3856J15425D01*
G01*
X2701174Y1639698D02*
G03*
X2682802Y1621326I-3674J-14698D01*
G01*
X2661144Y1609575D02*
G03*
X2680425Y1628856I3856J15425D01*
G01*
X2661144Y1642075D02*
G03*
X2680425Y1661356I3856J15425D01*
G01*
X2701174Y1672198D02*
G03*
X2682802Y1653826I-3674J-14698D01*
G01*
X2701174Y1704698D02*
G03*
X2682802Y1686326I-3674J-14698D01*
G01*
X2661144Y1674575D02*
G03*
X2680425Y1693856I3856J15425D01*
G01*
X2701174Y1607198D02*
G03*
X2682802Y1588826I-3674J-14698D01*
G01*
X2668674Y1769698D02*
G03*
X2650302Y1751326I-3674J-14698D01*
G01*
X2628644Y1739575D02*
G03*
X2647925Y1758856I3856J15425D01*
G01*
X2636174Y1769698D02*
G03*
X2617802Y1751326I-3674J-14698D01*
G01*
D13*
X2101893Y1466036D02*
X2116036Y1451893D01*
X2108965Y1458965D02*
X2123107D01*
X2108965Y1473107D01*
Y1458965D01*
X2108965Y1458965D01*
X2134393Y1401036D02*
X2148536Y1386893D01*
X2141465Y1393965D02*
X2155607D01*
X2141464Y1408107D01*
Y1393965D01*
X2141465Y1393965D01*
X2166893Y1401036D02*
X2181036Y1386893D01*
X2173965Y1393965D02*
X2188107D01*
X2173965Y1408107D01*
Y1393965D01*
X2173965Y1393965D01*
X2173965Y1375607D02*
X2188107Y1361465D01*
X2173965D01*
X2173965Y1361465D01*
Y1375607D01*
X2166893Y1368536D02*
X2181036Y1354393D01*
X2238965Y1296465D02*
Y1310607D01*
X2253107Y1296465D01*
X2238965D01*
X2238965Y1296465D01*
X2246036Y1289393D02*
X2231893Y1303536D01*
Y1336036D02*
X2246036Y1321893D01*
X2253107Y1328965D02*
X2238965D01*
X2238965Y1328965D01*
Y1343107D01*
X2253107Y1328965D01*
X2264393Y1336036D02*
X2278535Y1321893D01*
X2271465Y1328965D02*
X2285607D01*
X2271464Y1343107D01*
Y1328965D01*
X2271465Y1328965D01*
X2271464Y1310607D02*
X2285607Y1296465D01*
X2271465D01*
X2271464Y1296465D01*
Y1310607D01*
X2264393Y1303536D02*
X2278535Y1289393D01*
X2271464Y1278107D02*
X2285607Y1263964D01*
X2271465D01*
X2271464Y1263964D01*
Y1278107D01*
X2264393Y1271036D02*
X2278535Y1256893D01*
X2296893Y1271036D02*
X2311036Y1256893D01*
X2303965Y1263964D02*
X2318107D01*
X2303965Y1278107D01*
Y1263964D01*
X2303965Y1263964D01*
X2303965Y1245607D02*
X2318107Y1231464D01*
X2303965D01*
X2303965Y1231464D01*
Y1245607D01*
X2329393Y1238536D02*
X2343535Y1224393D01*
X2336465Y1231464D02*
X2350607D01*
X2336464Y1245607D01*
Y1231464D01*
X2336465Y1231464D01*
X2336465Y1213107D02*
X2350607Y1198964D01*
X2336465D01*
X2336465Y1198964D01*
Y1213107D01*
X2329393Y1206036D02*
X2343536Y1191893D01*
X2311036Y1224393D02*
X2296893Y1238536D01*
X2303965Y1296465D02*
Y1310607D01*
X2318107Y1296465D01*
X2303965D01*
X2303965Y1296465D01*
X2311036Y1289393D02*
X2296893Y1303536D01*
Y1336036D02*
X2311036Y1321893D01*
X2303965Y1328965D02*
X2318107D01*
X2303965Y1343107D01*
Y1328965D01*
X2303965Y1328965D01*
X2311036Y1354393D02*
X2296893Y1368536D01*
X2285607Y1361465D02*
X2271465D01*
X2271464Y1361465D01*
Y1375607D01*
X2285607Y1361465D01*
X2264393Y1368536D02*
X2278535Y1354393D01*
X2246036D02*
X2231893Y1368536D01*
X2238965Y1361465D02*
Y1375607D01*
X2253107Y1361465D01*
X2238965D01*
X2238965Y1361465D01*
X2220607Y1361465D02*
X2206465D01*
X2206464Y1361465D01*
Y1375607D01*
X2220607Y1361465D01*
X2199393Y1368536D02*
X2213536Y1354393D01*
X2206464Y1343107D02*
X2220607Y1328965D01*
X2206465D01*
X2206464Y1328965D01*
Y1343107D01*
X2199393Y1336036D02*
X2213536Y1321893D01*
X2246036Y1386893D02*
X2231893Y1401036D01*
X2238965Y1393965D02*
Y1408107D01*
X2253107Y1393965D01*
X2238965D01*
X2238965Y1393965D01*
X2220607Y1393965D02*
X2206465D01*
X2206464Y1393965D01*
Y1408107D01*
X2220607Y1393965D01*
X2213536Y1386893D02*
X2199393Y1401036D01*
X2264393D02*
X2278535Y1386893D01*
X2271465Y1393965D02*
X2285607D01*
X2271464Y1408107D01*
Y1393965D01*
X2271465Y1393965D01*
X2296893Y1401036D02*
X2311036Y1386893D01*
X2303965Y1393965D02*
X2318107D01*
X2303965Y1408107D01*
Y1393965D01*
X2303965Y1393965D01*
X2303965Y1375607D02*
X2318107Y1361465D01*
X2303965D01*
X2303965Y1361465D01*
Y1375607D01*
X2329393Y1368536D02*
X2343536Y1354393D01*
X2336465Y1343107D02*
X2350607Y1328965D01*
X2336465D01*
X2336465Y1328965D01*
Y1343107D01*
X2329393Y1336036D02*
X2343536Y1321893D01*
X2336465Y1310607D02*
X2350607Y1296465D01*
X2336465D01*
X2336465Y1296465D01*
Y1310607D01*
X2329393Y1303536D02*
X2343536Y1289393D01*
X2336465Y1278107D02*
X2350607Y1263964D01*
X2336465D01*
X2336465Y1263964D01*
Y1278107D01*
X2329393Y1271036D02*
X2343536Y1256893D01*
X2368965Y1231464D02*
Y1245607D01*
X2383107Y1231464D01*
X2368965D01*
X2368965Y1231464D01*
X2376036Y1224393D02*
X2361893Y1238536D01*
X2394393D02*
X2408535Y1224393D01*
X2401465Y1231464D02*
X2415607D01*
X2401464Y1245607D01*
Y1231464D01*
X2401465Y1231464D01*
X2401465Y1213107D02*
X2415607Y1198964D01*
X2401465D01*
X2401465Y1198964D01*
Y1213107D01*
X2394393Y1206036D02*
X2408536Y1191893D01*
X2401465Y1180607D02*
X2415607Y1166464D01*
X2401465D01*
X2401465Y1166464D01*
Y1180607D01*
X2368965D02*
X2383107Y1166464D01*
X2368965D01*
X2368965Y1166464D01*
Y1180607D01*
Y1198964D02*
Y1213107D01*
X2383107Y1198964D01*
X2368965D01*
X2368965Y1198964D01*
X2361893Y1206036D02*
X2376036Y1191893D01*
X2361893Y1173536D02*
X2376036Y1159393D01*
X2394393Y1173536D02*
X2408536Y1159393D01*
X2401465Y1148107D02*
X2415607Y1133964D01*
X2401465D01*
X2401465Y1133964D01*
Y1148107D01*
X2394393Y1141036D02*
X2408536Y1126893D01*
X2426893Y1108536D02*
X2441036Y1094393D01*
X2433965Y1101464D02*
X2448107D01*
X2433964Y1115607D01*
Y1101464D01*
X2433965Y1101464D01*
X2459393Y1108536D02*
X2473536Y1094393D01*
X2466465Y1101464D02*
X2480607D01*
X2466465Y1115607D01*
Y1101464D01*
X2466465Y1101464D01*
X2466465Y1083107D02*
X2480607Y1068964D01*
X2466465D01*
X2466465Y1068964D01*
Y1083107D01*
X2459393Y1076036D02*
X2473536Y1061893D01*
X2491893Y1043536D02*
X2506036Y1029393D01*
X2498965Y1036464D02*
X2513107D01*
X2498964Y1050607D01*
Y1036464D01*
X2498965Y1036464D01*
X2524393Y1043536D02*
X2538536Y1029393D01*
X2545607Y1036464D02*
X2531465D01*
X2531465Y1036464D01*
Y1050607D01*
X2545607Y1036464D01*
X2596465Y1101464D02*
Y1115607D01*
X2610607Y1101464D01*
X2596465D01*
X2596465Y1101464D01*
X2603535Y1094393D02*
X2589393Y1108536D01*
X2578107Y1101464D02*
X2563965D01*
X2563965Y1101464D01*
Y1115607D01*
X2578107Y1101464D01*
X2571035Y1094393D02*
X2556893Y1108536D01*
X2545607Y1101464D02*
X2531465D01*
X2531465Y1101464D01*
Y1115607D01*
X2545607Y1101464D01*
X2538536Y1094393D02*
X2524393Y1108536D01*
X2513107Y1101464D02*
X2498965D01*
X2498964Y1101464D01*
Y1115607D01*
X2513107Y1101464D01*
X2506036Y1094393D02*
X2491893Y1108536D01*
Y1076036D02*
X2506036Y1061893D01*
X2498965Y1068964D02*
X2513107D01*
X2498964Y1083107D01*
Y1068964D01*
X2498965Y1068964D01*
X2524393Y1076036D02*
X2538536Y1061893D01*
X2545607Y1068964D02*
X2531465D01*
X2531465Y1068964D01*
Y1083107D01*
X2545607Y1068964D01*
X2556893Y1076036D02*
X2571035Y1061893D01*
X2563965Y1068964D02*
X2578107D01*
X2563965Y1083107D01*
Y1068964D01*
X2563965Y1068964D01*
X2596465Y1133964D02*
Y1148107D01*
X2610607Y1133964D01*
X2596465D01*
X2596465Y1133964D01*
X2603535Y1126893D02*
X2589393Y1141036D01*
X2578107Y1133964D02*
X2563965D01*
X2563965Y1133964D01*
Y1148107D01*
X2578107Y1133964D01*
X2571035Y1126893D02*
X2556893Y1141036D01*
X2545607Y1133964D02*
X2531465D01*
X2531465Y1133964D01*
Y1148107D01*
X2545607Y1133964D01*
X2538536Y1126893D02*
X2524393Y1141036D01*
X2513107Y1133964D02*
X2498965D01*
X2498964Y1133964D01*
Y1148107D01*
X2513107Y1133964D01*
X2506036Y1126893D02*
X2491893Y1141036D01*
X2480607Y1133964D02*
X2466465D01*
X2466465Y1133964D01*
Y1148107D01*
X2480607Y1133964D01*
Y1166464D02*
X2466465D01*
X2466465Y1166464D01*
Y1180607D01*
X2480607Y1166464D01*
X2491893Y1173536D02*
X2506036Y1159393D01*
X2498965Y1166464D02*
X2513107D01*
X2498964Y1180607D01*
Y1166464D01*
X2498965Y1166464D01*
X2524393Y1173536D02*
X2538536Y1159393D01*
X2545607Y1166464D02*
X2531465D01*
X2531465Y1166464D01*
Y1180607D01*
X2545607Y1166464D01*
X2556893Y1173536D02*
X2571035Y1159393D01*
X2563965Y1166464D02*
X2578107D01*
X2563965Y1180607D01*
Y1166464D01*
X2563965Y1166464D01*
X2589393Y1173536D02*
X2603535Y1159393D01*
X2596465Y1166464D02*
X2610607D01*
X2596465Y1180607D01*
Y1166464D01*
X2596465Y1166464D01*
X2621893Y1173536D02*
X2636035Y1159393D01*
X2628965Y1166464D02*
X2643107D01*
X2628965Y1180607D01*
Y1166464D01*
X2628965Y1166464D01*
X2628965Y1148107D02*
X2643107Y1133964D01*
X2628965D01*
X2628965Y1133964D01*
Y1148107D01*
X2621893Y1141036D02*
X2636035Y1126893D01*
X2654393Y1173536D02*
X2668535Y1159393D01*
X2661465Y1166464D02*
X2675607D01*
X2661465Y1180607D01*
Y1166464D01*
X2661465Y1166464D01*
X2726465Y1231464D02*
Y1245607D01*
X2740607Y1231464D01*
X2726465D01*
X2726465Y1231464D01*
X2733535Y1224393D02*
X2719393Y1238536D01*
Y1271036D02*
X2733535Y1256893D01*
X2726465Y1263964D02*
X2740607D01*
X2726465Y1278107D01*
Y1263964D01*
X2726465Y1263964D01*
Y1296465D02*
X2740607D01*
X2726465Y1310607D01*
Y1296465D01*
X2726465Y1296465D01*
X2733535Y1289393D02*
X2719393Y1303536D01*
Y1336036D02*
X2733535Y1321893D01*
X2726465Y1328965D02*
X2740607D01*
X2726465Y1343107D01*
Y1328965D01*
X2726465Y1328965D01*
X2733535Y1354393D02*
X2719393Y1368536D01*
X2726465Y1361465D02*
Y1375607D01*
X2740607Y1361465D01*
X2726465D01*
X2726465Y1361465D01*
Y1393965D02*
Y1408107D01*
X2740607Y1393965D01*
X2726465D01*
X2726465Y1393965D01*
X2719393Y1401036D02*
X2733535Y1386893D01*
X2751893Y1401036D02*
X2766035Y1386893D01*
X2758965Y1393965D02*
X2773107D01*
X2758965Y1408107D01*
Y1393965D01*
X2758965Y1393965D01*
X2758965Y1375607D02*
X2773107Y1361465D01*
X2758965D01*
X2758965Y1361465D01*
Y1375607D01*
X2751893Y1368536D02*
X2766035Y1354393D01*
X2758965Y1343107D02*
X2773107Y1328965D01*
X2758965D01*
X2758965Y1328965D01*
Y1343107D01*
X2751893Y1336036D02*
X2766035Y1321893D01*
X2758965Y1310607D02*
X2773107Y1296465D01*
X2758965D01*
X2758965Y1296465D01*
Y1310607D01*
X2751893Y1303536D02*
X2766035Y1289393D01*
X2758965Y1278107D02*
X2773107Y1263964D01*
X2758965D01*
X2758965Y1263964D01*
Y1278107D01*
X2751893Y1271036D02*
X2766035Y1256893D01*
X2791465Y1296465D02*
Y1310607D01*
X2805607Y1296465D01*
X2791465D01*
X2791465Y1296465D01*
X2798535Y1289393D02*
X2784393Y1303536D01*
Y1336036D02*
X2798535Y1321893D01*
X2791465Y1328965D02*
X2805607D01*
X2791465Y1343107D01*
Y1328965D01*
X2791465Y1328965D01*
X2798535Y1354393D02*
X2784393Y1368536D01*
X2791465Y1361465D02*
Y1375607D01*
X2805607Y1361465D01*
X2791465D01*
X2791465Y1361465D01*
Y1393965D02*
Y1408107D01*
X2805607Y1393965D01*
X2791465D01*
X2791465Y1393965D01*
X2784393Y1401036D02*
X2798535Y1386893D01*
X2816893Y1401036D02*
X2831035Y1386893D01*
X2838107Y1393965D02*
X2823965D01*
X2823965Y1393965D01*
Y1408107D01*
X2838107Y1393965D01*
X2849393Y1401036D02*
X2863535Y1386893D01*
X2856465Y1393965D02*
X2870607D01*
X2856465Y1408107D01*
Y1393965D01*
X2856465Y1393965D01*
X2856465Y1375607D02*
X2870607Y1361465D01*
X2856465D01*
X2856465Y1361465D01*
Y1375607D01*
X2849393Y1368536D02*
X2863535Y1354393D01*
X2831035D02*
X2816893Y1368536D01*
X2823965Y1361465D02*
Y1375607D01*
X2838107Y1361465D01*
X2823965D01*
X2823965Y1361465D01*
Y1343107D02*
X2838107Y1328965D01*
X2823965D01*
X2823965Y1328965D01*
Y1343107D01*
X2816893Y1336036D02*
X2831035Y1321893D01*
X2896035Y1386893D02*
X2881893Y1401036D01*
X2888965Y1393965D02*
Y1408107D01*
X2903107Y1393965D01*
X2888965D01*
X2888965Y1393965D01*
X2896035Y1419393D02*
X2881893Y1433536D01*
X2888965Y1426465D02*
Y1440607D01*
X2903107Y1426465D01*
X2888965D01*
X2888965Y1426465D01*
X2870607Y1426465D02*
X2856465D01*
X2856465Y1426465D01*
Y1440607D01*
X2870607Y1426465D01*
X2863535Y1419393D02*
X2849393Y1433536D01*
X2838107Y1426465D02*
X2823965D01*
X2823965Y1426465D01*
Y1440607D01*
X2838107Y1426465D01*
X2831035Y1419393D02*
X2816893Y1433536D01*
X2805607Y1426465D02*
X2791465D01*
X2791465Y1426465D01*
Y1440607D01*
X2805607Y1426465D01*
X2798535Y1419393D02*
X2784393Y1433536D01*
X2773107Y1426465D02*
X2758965D01*
X2758965Y1426465D01*
Y1440607D01*
X2773107Y1426465D01*
Y1458965D02*
X2758965D01*
X2758965Y1458965D01*
Y1473107D01*
X2773107Y1458965D01*
X2784393Y1466036D02*
X2798535Y1451893D01*
X2791465Y1458965D02*
X2805607D01*
X2791465Y1473107D01*
Y1458965D01*
X2791465Y1458965D01*
X2816893Y1466036D02*
X2831035Y1451893D01*
X2838107Y1458965D02*
X2823965D01*
X2823965Y1458965D01*
Y1473107D01*
X2838107Y1458965D01*
X2849393Y1466036D02*
X2863535Y1451893D01*
X2856465Y1458965D02*
X2870607D01*
X2856465Y1473107D01*
Y1458965D01*
X2856465Y1458965D01*
X2881893Y1466036D02*
X2896035Y1451893D01*
X2903107Y1458965D02*
X2888965D01*
X2888965Y1458965D01*
Y1473107D01*
X2903107Y1458965D01*
X2914393Y1466036D02*
X2928535Y1451893D01*
X2921465Y1458965D02*
X2935607D01*
X2921465Y1473107D01*
Y1458965D01*
X2921465Y1458965D01*
Y1491465D02*
X2935607D01*
X2921465Y1505607D01*
Y1491465D01*
X2921465Y1491465D01*
X2928535Y1484393D02*
X2914393Y1498536D01*
X2903107Y1491465D02*
X2888965D01*
X2888965Y1491465D01*
Y1505607D01*
X2903107Y1491465D01*
X2896035Y1484393D02*
X2881893Y1498536D01*
X2870607Y1491465D02*
X2856465D01*
X2856465Y1491465D01*
Y1505607D01*
X2870607Y1491465D01*
X2863535Y1484393D02*
X2849393Y1498536D01*
X2838107Y1491465D02*
X2823965D01*
X2823965Y1491465D01*
Y1505607D01*
X2838107Y1491465D01*
X2831035Y1484393D02*
X2816893Y1498536D01*
X2805607Y1491465D02*
X2791465D01*
X2791465Y1491465D01*
Y1505607D01*
X2805607Y1491465D01*
X2798535Y1484393D02*
X2784393Y1498536D01*
X2773107Y1491465D02*
X2758965D01*
X2758965Y1491465D01*
Y1505607D01*
X2773107Y1491465D01*
Y1523965D02*
X2758965D01*
X2758965Y1523965D01*
Y1538107D01*
X2773107Y1523965D01*
X2784393Y1531036D02*
X2798535Y1516893D01*
X2791465Y1523965D02*
X2805607D01*
X2791465Y1538107D01*
Y1523965D01*
X2791465Y1523965D01*
X2816893Y1531036D02*
X2831035Y1516893D01*
X2838107Y1523965D02*
X2823965D01*
X2823965Y1523965D01*
Y1538107D01*
X2838107Y1523965D01*
X2849393Y1531036D02*
X2863535Y1516893D01*
X2856465Y1523965D02*
X2870607D01*
X2856465Y1538107D01*
Y1523965D01*
X2856465Y1523965D01*
X2881893Y1531036D02*
X2896035Y1516893D01*
X2903107Y1523965D02*
X2888965D01*
X2888965Y1523965D01*
Y1538107D01*
X2903107Y1523965D01*
X2914393Y1531036D02*
X2928535Y1516893D01*
X2921465Y1523965D02*
X2935607D01*
X2921465Y1538107D01*
Y1523965D01*
X2921465Y1523965D01*
Y1556465D02*
X2935607D01*
X2921465Y1570607D01*
Y1556465D01*
X2921465Y1556465D01*
X2928535Y1549393D02*
X2914393Y1563536D01*
X2903107Y1556465D02*
X2888965D01*
X2888965Y1556465D01*
Y1570607D01*
X2903107Y1556465D01*
X2896035Y1549393D02*
X2881893Y1563536D01*
X2870607Y1556465D02*
X2856465D01*
X2856465Y1556465D01*
Y1570607D01*
X2870607Y1556465D01*
X2863535Y1549393D02*
X2849393Y1563536D01*
X2838107Y1556465D02*
X2823965D01*
X2823965Y1556465D01*
Y1570607D01*
X2838107Y1556465D01*
X2831035Y1549393D02*
X2816893Y1563536D01*
X2805607Y1556465D02*
X2791465D01*
X2791465Y1556465D01*
Y1570607D01*
X2805607Y1556465D01*
X2798535Y1549393D02*
X2784393Y1563536D01*
X2773107Y1556465D02*
X2758965D01*
X2758965Y1556465D01*
Y1570607D01*
X2773107Y1556465D01*
Y1588965D02*
X2758965D01*
X2758965Y1588965D01*
Y1603107D01*
X2773107Y1588965D01*
X2791465Y1588965D02*
Y1603107D01*
X2805607Y1588965D01*
X2791465D01*
X2791465Y1588965D01*
X2798535Y1581893D02*
X2784393Y1596036D01*
X2791465Y1621465D02*
X2791465Y1635607D01*
X2805607Y1621465D01*
X2791465Y1621465D01*
X2791465Y1621465D01*
X2784393Y1628536D02*
X2798535Y1614393D01*
Y1646893D02*
X2784393Y1661036D01*
X2791465Y1653965D02*
X2791465Y1668107D01*
X2805607Y1653965D01*
X2791465Y1653965D01*
X2791465Y1653965D01*
X2773107Y1653965D02*
X2758965Y1653965D01*
X2758965Y1653965D01*
X2758965Y1668107D01*
X2773107Y1653965D01*
Y1686465D02*
X2758965Y1686465D01*
X2758965Y1686465D01*
X2758965Y1700607D01*
X2773107Y1686465D01*
X2784393Y1693536D02*
X2798535Y1679393D01*
X2791465Y1686465D02*
X2805607Y1686465D01*
X2791465Y1700607D01*
X2791465Y1686465D01*
X2791465Y1686465D01*
X2816893Y1693536D02*
X2831035Y1679393D01*
X2838107Y1686465D02*
X2823965Y1686465D01*
X2823965Y1686465D01*
X2823965Y1700607D01*
X2838107Y1686465D01*
Y1653965D02*
X2823965Y1653965D01*
X2823965Y1653965D01*
X2823965Y1668107D01*
X2838107Y1653965D01*
X2849393Y1661036D02*
X2863535Y1646893D01*
X2856465Y1635607D02*
X2870607Y1621465D01*
X2856465Y1621465D01*
X2856465Y1621465D01*
X2856465Y1635607D01*
X2849393Y1628536D02*
X2863535Y1614393D01*
X2856465Y1603107D02*
X2870607Y1588965D01*
X2856465D01*
X2856465Y1588965D01*
Y1603107D01*
X2849393Y1596036D02*
X2863535Y1581893D01*
X2888965Y1588965D02*
Y1603107D01*
X2903107Y1588965D01*
X2888965D01*
X2888965Y1588965D01*
X2838107Y1588965D02*
X2823965D01*
X2823965Y1588965D01*
Y1603107D01*
X2838107Y1588965D01*
X2831035Y1581893D02*
X2816893Y1596036D01*
X2823965Y1621465D02*
X2823965Y1635607D01*
X2838107Y1621465D01*
X2823965Y1621465D01*
X2823965Y1621465D01*
X2816893Y1628536D02*
X2831035Y1614393D01*
Y1646893D02*
X2816893Y1661036D01*
X2773107Y1621465D02*
X2758965Y1621465D01*
X2758965Y1621465D01*
X2758965Y1635607D01*
X2773107Y1621465D01*
X2881893Y1628536D02*
X2896035Y1614393D01*
X2903107Y1621465D02*
X2888965Y1621465D01*
X2888965Y1621465D01*
X2888965Y1635607D01*
X2903107Y1621465D01*
X2896035Y1581893D02*
X2881893Y1596036D01*
X2870607Y1653965D02*
X2856465Y1653965D01*
X2856465Y1653965D01*
X2856465Y1668107D01*
X2870607Y1653965D01*
X2798535Y1711893D02*
X2784393Y1726036D01*
X2791465Y1718965D02*
X2791465Y1733107D01*
X2805607Y1718965D01*
X2791465Y1718965D01*
X2791465Y1718965D01*
X2773107Y1718965D02*
X2758965Y1718965D01*
X2758965Y1718965D01*
X2758965Y1733107D01*
X2773107Y1718965D01*
X2766035Y1711893D02*
X2751893Y1726036D01*
X2740607Y1718965D02*
X2726465Y1718965D01*
X2726465Y1718965D01*
X2726465Y1733107D01*
X2740607Y1718965D01*
X2733535Y1711893D02*
X2719393Y1726036D01*
Y1758536D02*
X2733535Y1744393D01*
X2726465Y1751465D02*
X2740607Y1751465D01*
X2726465Y1765607D01*
X2726465Y1751465D01*
X2726465Y1751465D01*
X2726465Y1700607D02*
X2740607Y1686465D01*
X2726465Y1686465D01*
X2726465Y1686465D01*
X2726465Y1700607D01*
X2719393Y1693536D02*
X2733535Y1679393D01*
X2726465Y1668107D02*
X2740607Y1653965D01*
X2726465Y1653965D01*
X2726465Y1653965D01*
X2726465Y1668107D01*
X2719393Y1661036D02*
X2733535Y1646893D01*
X2726465Y1635607D02*
X2740607Y1621465D01*
X2726465Y1621465D01*
X2726465Y1621465D01*
X2726465Y1635607D01*
X2719393Y1628536D02*
X2733535Y1614393D01*
X2726465Y1603107D02*
X2740607Y1588965D01*
X2726465D01*
X2726465Y1588965D01*
Y1603107D01*
X2719393Y1596036D02*
X2733535Y1581893D01*
X2726465Y1570607D02*
X2740607Y1556465D01*
X2726465D01*
X2726465Y1556465D01*
Y1570607D01*
X2719393Y1563536D02*
X2733535Y1549393D01*
X2726465Y1538107D02*
X2740607Y1523965D01*
X2726465D01*
X2726465Y1523965D01*
Y1538107D01*
X2751893Y1563536D02*
X2766035Y1549393D01*
Y1581893D02*
X2751893Y1596036D01*
X2766035Y1614393D02*
X2751893Y1628536D01*
X2766035Y1646893D02*
X2751893Y1661036D01*
Y1693536D02*
X2766035Y1679393D01*
X2701035Y1711893D02*
X2686893Y1726036D01*
X2693965Y1718965D02*
X2693965Y1733107D01*
X2708107Y1718965D01*
X2693965Y1718965D01*
X2693965Y1718965D01*
X2675607Y1718965D02*
X2661465Y1718965D01*
X2661465Y1718965D01*
X2661465Y1733107D01*
X2675607Y1718965D01*
X2668535Y1711893D02*
X2654393Y1726036D01*
Y1758536D02*
X2668535Y1744393D01*
X2661465Y1751465D02*
X2675607Y1751465D01*
X2661465Y1765607D01*
X2661465Y1751465D01*
X2661465Y1751465D01*
X2686893Y1758536D02*
X2701035Y1744393D01*
X2693965Y1751465D02*
X2708107Y1751465D01*
X2693965Y1765607D01*
X2693965Y1751465D01*
X2693965Y1751465D01*
X2693965Y1700607D02*
X2708107Y1686465D01*
X2693965Y1686465D01*
X2693965Y1686465D01*
X2693965Y1700607D01*
X2686893Y1693536D02*
X2701035Y1679393D01*
X2693965Y1668107D02*
X2708107Y1653965D01*
X2693965Y1653965D01*
X2693965Y1653965D01*
X2693965Y1668107D01*
X2686893Y1661036D02*
X2701035Y1646893D01*
X2693965Y1635607D02*
X2708107Y1621465D01*
X2693965Y1621465D01*
X2693965Y1621465D01*
X2693965Y1635607D01*
X2686893Y1628536D02*
X2701035Y1614393D01*
X2693965Y1603107D02*
X2708107Y1588965D01*
X2693965D01*
X2693965Y1588965D01*
Y1603107D01*
X2686893Y1596036D02*
X2701035Y1581893D01*
X2693965Y1570607D02*
X2708107Y1556465D01*
X2693965D01*
X2693965Y1556465D01*
Y1570607D01*
X2686893Y1563536D02*
X2701035Y1549393D01*
X2693965Y1538107D02*
X2708107Y1523965D01*
X2693965D01*
X2693965Y1523965D01*
Y1538107D01*
X2661465D02*
X2675607Y1523965D01*
X2661465D01*
X2661465Y1523965D01*
Y1538107D01*
Y1556465D02*
Y1570607D01*
X2675607Y1556465D01*
X2661465D01*
X2661465Y1556465D01*
X2654393Y1563536D02*
X2668535Y1549393D01*
Y1581893D02*
X2654393Y1596036D01*
X2661465Y1603107D02*
X2675607Y1588965D01*
X2661465D01*
X2661465Y1588965D01*
Y1603107D01*
X2668535Y1614393D02*
X2654393Y1628536D01*
X2661465Y1621465D02*
X2661465Y1635607D01*
X2675607Y1621465D01*
X2661465Y1621465D01*
X2661465Y1621465D01*
X2668535Y1646893D02*
X2654393Y1661036D01*
X2661465Y1653965D02*
X2661465Y1668107D01*
X2675607Y1653965D01*
X2661465Y1653965D01*
X2661465Y1653965D01*
Y1686465D02*
X2661465Y1700607D01*
X2675607Y1686465D01*
X2661465Y1686465D01*
X2661465Y1686465D01*
X2654393Y1693536D02*
X2668535Y1679393D01*
X2636035Y1711893D02*
X2621893Y1726036D01*
X2628965Y1718965D02*
X2628965Y1733107D01*
X2643107Y1718965D01*
X2628965Y1718965D01*
X2628965Y1718965D01*
X2610607Y1718965D02*
X2596465Y1718965D01*
X2596465Y1718965D01*
X2596465Y1733107D01*
X2610607Y1718965D01*
X2603535Y1711893D02*
X2589393Y1726036D01*
X2578107Y1718965D02*
X2563965Y1718965D01*
X2563965Y1718965D01*
X2563965Y1733107D01*
X2578107Y1718965D01*
X2571035Y1711893D02*
X2556893Y1726036D01*
Y1693536D02*
X2571035Y1679393D01*
X2563965Y1686465D02*
X2578107Y1686465D01*
X2563965Y1700607D01*
X2563965Y1686465D01*
X2563965Y1686465D01*
X2563965Y1668107D02*
X2578107Y1653965D01*
X2563965Y1653965D01*
X2563965Y1653965D01*
X2563965Y1668107D01*
X2556893Y1661036D02*
X2571035Y1646893D01*
X2563965Y1635607D02*
X2578107Y1621465D01*
X2563965Y1621465D01*
X2563965Y1621465D01*
X2563965Y1635607D01*
X2556893Y1628536D02*
X2571035Y1614393D01*
X2563965Y1603107D02*
X2578107Y1588965D01*
X2563965D01*
X2563965Y1588965D01*
Y1603107D01*
X2556893Y1596036D02*
X2571035Y1581893D01*
X2563965Y1570607D02*
X2578107Y1556465D01*
X2563965D01*
X2563965Y1556465D01*
Y1570607D01*
X2556893Y1563536D02*
X2571035Y1549393D01*
X2563965Y1538107D02*
X2578107Y1523965D01*
X2563965D01*
X2563965Y1523965D01*
Y1538107D01*
X2538536Y1549393D02*
X2524393Y1563536D01*
X2531465Y1556465D02*
Y1570607D01*
X2545607Y1556465D01*
X2531465D01*
X2531465Y1556465D01*
Y1538107D02*
X2545607Y1523965D01*
X2531465D01*
X2531465Y1523965D01*
Y1538107D01*
X2498964D02*
X2513107Y1523965D01*
X2498965D01*
X2498964Y1523965D01*
Y1538107D01*
Y1556465D02*
Y1570607D01*
X2513107Y1556465D01*
X2498965D01*
X2498964Y1556465D01*
X2491893Y1563536D02*
X2506036Y1549393D01*
Y1581893D02*
X2491893Y1596036D01*
X2498964Y1603107D02*
X2513107Y1588965D01*
X2498965D01*
X2498964Y1588965D01*
Y1603107D01*
X2506035Y1614393D02*
X2491893Y1628536D01*
X2498964Y1621465D02*
X2498964Y1635607D01*
X2513107Y1621465D01*
X2498965Y1621465D01*
X2498964Y1621465D01*
X2480607Y1621465D02*
X2466465Y1621465D01*
X2466464Y1621465D01*
X2466465Y1635607D01*
X2480607Y1621465D01*
X2524393Y1628536D02*
X2538535Y1614393D01*
X2545607Y1621465D02*
X2531465Y1621465D01*
X2531464Y1621465D01*
X2531465Y1635607D01*
X2545607Y1621465D01*
X2538535Y1646893D02*
X2524393Y1661036D01*
X2531464Y1653965D02*
X2531465Y1668107D01*
X2545607Y1653965D01*
X2531465Y1653965D01*
X2531464Y1653965D01*
X2513107Y1653965D02*
X2498965D01*
X2498964Y1653965D01*
Y1668107D01*
X2513107Y1653965D01*
X2491893Y1661036D02*
X2506036Y1646893D01*
X2524393Y1596036D02*
X2538536Y1581893D01*
X2545607Y1588965D02*
X2531465D01*
X2531465Y1588965D01*
Y1603107D01*
X2545607Y1588965D01*
X2589393Y1563536D02*
X2603535Y1549393D01*
X2596465Y1556465D02*
X2610607D01*
X2596465Y1570607D01*
Y1556465D01*
X2596465Y1556465D01*
X2596465Y1538107D02*
X2610607Y1523965D01*
X2596465D01*
X2596465Y1523965D01*
Y1538107D01*
X2628965D02*
X2643107Y1523965D01*
X2628965D01*
X2628965Y1523965D01*
Y1538107D01*
Y1556465D02*
Y1570607D01*
X2643107Y1556465D01*
X2628965D01*
X2628965Y1556465D01*
X2621893Y1563536D02*
X2636035Y1549393D01*
Y1581893D02*
X2621893Y1596036D01*
X2628965Y1603107D02*
X2643107Y1588965D01*
X2628965D01*
X2628965Y1588965D01*
Y1603107D01*
X2636035Y1614393D02*
X2621893Y1628536D01*
X2628965Y1621465D02*
X2628965Y1635607D01*
X2643107Y1621465D01*
X2628965Y1621465D01*
X2628965Y1621465D01*
X2610607Y1621465D02*
X2596465Y1621465D01*
X2596465Y1621465D01*
X2596465Y1635607D01*
X2610607Y1621465D01*
X2603535Y1614393D02*
X2589393Y1628536D01*
X2589393Y1596036D02*
X2603535Y1581893D01*
X2596465Y1588965D02*
X2610607D01*
X2596465Y1603107D01*
Y1588965D01*
X2596465Y1588965D01*
X2603535Y1516893D02*
X2589393Y1531036D01*
X2556893D02*
X2571035Y1516893D01*
X2563965Y1505607D02*
X2578107Y1491465D01*
X2563965D01*
X2563965Y1491465D01*
Y1505607D01*
X2556893Y1498536D02*
X2571035Y1484393D01*
X2538536D02*
X2524393Y1498536D01*
X2531465Y1491465D02*
Y1505607D01*
X2545607Y1491465D01*
X2531465D01*
X2531465Y1491465D01*
X2513107Y1491465D02*
X2498965D01*
X2498964Y1491465D01*
Y1505607D01*
X2513107Y1491465D01*
X2506036Y1484393D02*
X2491893Y1498536D01*
X2480607Y1491465D02*
X2466465D01*
X2466465Y1491465D01*
Y1505607D01*
X2480607Y1491465D01*
Y1523965D02*
X2466465D01*
X2466465Y1523965D01*
Y1538107D01*
X2480607Y1523965D01*
X2491893Y1531036D02*
X2506036Y1516893D01*
X2524393Y1531036D02*
X2538536Y1516893D01*
X2589393Y1498536D02*
X2603535Y1484393D01*
X2596465Y1491465D02*
X2610607D01*
X2596465Y1505607D01*
Y1491465D01*
X2596465Y1491465D01*
X2621893Y1498536D02*
X2636035Y1484393D01*
X2628965Y1491465D02*
X2643107D01*
X2628965Y1505607D01*
Y1491465D01*
X2628965Y1491465D01*
X2636035Y1516893D02*
X2621893Y1531036D01*
Y1466036D02*
X2636035Y1451893D01*
X2628965Y1458965D02*
X2643107D01*
X2628965Y1473107D01*
Y1458965D01*
X2628965Y1458965D01*
X2628965Y1440607D02*
X2643107Y1426465D01*
X2628965D01*
X2628965Y1426465D01*
Y1440607D01*
X2621893Y1433536D02*
X2636035Y1419393D01*
X2603535D02*
X2589393Y1433536D01*
X2578107Y1426465D02*
X2563965D01*
X2563965Y1426465D01*
Y1440607D01*
X2578107Y1426465D01*
X2571035Y1419393D02*
X2556893Y1433536D01*
X2545607Y1426465D02*
X2531465D01*
X2531465Y1426465D01*
Y1440607D01*
X2545607Y1426465D01*
X2538536Y1419393D02*
X2524393Y1433536D01*
X2513107Y1426465D02*
X2498965D01*
X2498964Y1426465D01*
Y1440607D01*
X2513107Y1426465D01*
X2506036Y1419393D02*
X2491893Y1433536D01*
X2480607Y1426465D02*
X2466465D01*
X2466465Y1426465D01*
Y1440607D01*
X2480607Y1426465D01*
Y1458965D02*
X2466465D01*
X2466465Y1458965D01*
Y1473107D01*
X2480607Y1458965D01*
X2491893Y1466036D02*
X2506036Y1451893D01*
X2498965Y1458965D02*
X2513107D01*
X2498964Y1473107D01*
Y1458965D01*
X2498965Y1458965D01*
X2524393Y1466036D02*
X2538536Y1451893D01*
X2545607Y1458965D02*
X2531465D01*
X2531465Y1458965D01*
Y1473107D01*
X2545607Y1458965D01*
X2556893Y1466036D02*
X2571035Y1451893D01*
X2563965Y1458965D02*
X2578107D01*
X2563965Y1473107D01*
Y1458965D01*
X2563965Y1458965D01*
X2589393Y1466036D02*
X2603535Y1451893D01*
X2596465Y1458965D02*
X2610607D01*
X2596465Y1473107D01*
Y1458965D01*
X2596465Y1458965D01*
X2596465Y1440607D02*
X2610607Y1426465D01*
X2596465D01*
X2596465Y1426465D01*
Y1440607D01*
Y1408107D02*
X2610607Y1393965D01*
X2596465D01*
X2596465Y1393965D01*
Y1408107D01*
X2603535Y1386893D02*
X2589393Y1401036D01*
X2578107Y1393965D02*
X2563965D01*
X2563965Y1393965D01*
Y1408107D01*
X2578107Y1393965D01*
X2571035Y1386893D02*
X2556893Y1401036D01*
X2545607Y1393965D02*
X2531465D01*
X2531465Y1393965D01*
Y1408107D01*
X2545607Y1393965D01*
X2538536Y1386893D02*
X2524393Y1401036D01*
X2513107Y1393965D02*
X2498965D01*
X2498964Y1393965D01*
Y1408107D01*
X2513107Y1393965D01*
X2506036Y1386893D02*
X2491893Y1401036D01*
X2480607Y1393965D02*
X2466465D01*
X2466465Y1393965D01*
Y1408107D01*
X2480607Y1393965D01*
Y1361465D02*
X2466465D01*
X2466465Y1361465D01*
Y1375607D01*
X2480607Y1361465D01*
X2491893Y1368536D02*
X2506036Y1354393D01*
X2498964Y1343107D02*
X2513107Y1328965D01*
X2498965D01*
X2498964Y1328965D01*
Y1343107D01*
X2491893Y1336036D02*
X2506036Y1321893D01*
X2498964Y1310607D02*
X2513107Y1296465D01*
X2498965D01*
X2498964Y1296465D01*
Y1310607D01*
X2491893Y1303536D02*
X2506036Y1289393D01*
X2498964Y1278107D02*
X2513107Y1263964D01*
X2498965D01*
X2498964Y1263964D01*
Y1278107D01*
X2491893Y1271036D02*
X2506036Y1256893D01*
X2498964Y1245607D02*
X2513107Y1231464D01*
X2498965D01*
X2498964Y1231464D01*
Y1245607D01*
X2491893Y1238536D02*
X2506036Y1224393D01*
X2498964Y1213107D02*
X2513107Y1198964D01*
X2498965D01*
X2498964Y1198964D01*
Y1213107D01*
X2491893Y1206036D02*
X2506036Y1191893D01*
X2480607Y1198964D02*
X2466465D01*
X2466465Y1198964D01*
Y1213107D01*
X2480607Y1198964D01*
X2480607Y1231464D02*
X2466465D01*
X2466464Y1231464D01*
Y1245607D01*
X2480607Y1231464D01*
X2531464Y1231464D02*
Y1245607D01*
X2545607Y1231464D01*
X2531465D01*
X2531464Y1231464D01*
X2531465Y1213107D02*
X2545607Y1198964D01*
X2531465D01*
X2531465Y1198964D01*
Y1213107D01*
X2524393Y1206036D02*
X2538536Y1191893D01*
X2556893Y1206036D02*
X2571035Y1191893D01*
X2563965Y1198964D02*
X2578107D01*
X2563965Y1213107D01*
Y1198964D01*
X2563965Y1198964D01*
Y1231464D02*
X2578107D01*
X2563965Y1245607D01*
Y1231464D01*
X2563965Y1231464D01*
X2571035Y1224393D02*
X2556893Y1238536D01*
Y1271036D02*
X2571035Y1256893D01*
X2563965Y1263964D02*
X2578107D01*
X2563965Y1278107D01*
Y1263964D01*
X2563965Y1263964D01*
X2545607D02*
X2531465D01*
X2531465Y1263964D01*
Y1278107D01*
X2545607Y1263964D01*
X2538536Y1256893D02*
X2524393Y1271036D01*
X2531465Y1296465D02*
Y1310607D01*
X2545607Y1296465D01*
X2531465D01*
X2531465Y1296465D01*
X2480607Y1296465D02*
X2466465D01*
X2466465Y1296465D01*
Y1310607D01*
X2480607Y1296465D01*
Y1263964D02*
X2466465D01*
X2466465Y1263964D01*
Y1278107D01*
X2480607Y1263964D01*
X2524393Y1238536D02*
X2538535Y1224393D01*
X2589393Y1206036D02*
X2603535Y1191893D01*
X2596465Y1198964D02*
X2610607D01*
X2596465Y1213107D01*
Y1198964D01*
X2596465Y1198964D01*
Y1231464D02*
X2610607D01*
X2596465Y1245607D01*
Y1231464D01*
X2596465Y1231464D01*
X2603535Y1224393D02*
X2589393Y1238536D01*
Y1271036D02*
X2603535Y1256893D01*
X2596465Y1263964D02*
X2610607D01*
X2596465Y1278107D01*
Y1263964D01*
X2596465Y1263964D01*
Y1296465D02*
X2610607D01*
X2596465Y1310607D01*
Y1296465D01*
X2596465Y1296465D01*
X2603535Y1289393D02*
X2589393Y1303536D01*
Y1336036D02*
X2603535Y1321893D01*
X2596465Y1328965D02*
X2610607D01*
X2596465Y1343107D01*
Y1328965D01*
X2596465Y1328965D01*
X2603535Y1354393D02*
X2589393Y1368536D01*
X2578107Y1361465D02*
X2563965D01*
X2563965Y1361465D01*
Y1375607D01*
X2578107Y1361465D01*
X2556893Y1368536D02*
X2571035Y1354393D01*
X2563965Y1343107D02*
X2578107Y1328965D01*
X2563965D01*
X2563965Y1328965D01*
Y1343107D01*
X2556893Y1336036D02*
X2571035Y1321893D01*
X2563965Y1310607D02*
X2578107Y1296465D01*
X2563965D01*
X2563965Y1296465D01*
Y1310607D01*
X2556893Y1303536D02*
X2571035Y1289393D01*
X2538536D02*
X2524393Y1303536D01*
Y1336036D02*
X2538536Y1321893D01*
X2545607Y1328965D02*
X2531465D01*
X2531465Y1328965D01*
Y1343107D01*
X2545607Y1328965D01*
X2538536Y1354393D02*
X2524393Y1368536D01*
X2531465Y1361465D02*
Y1375607D01*
X2545607Y1361465D01*
X2531465D01*
X2531465Y1361465D01*
X2513107Y1361465D02*
X2498965D01*
X2498964Y1361465D01*
Y1375607D01*
X2513107Y1361465D01*
X2480607Y1328965D02*
X2466465D01*
X2466465Y1328965D01*
Y1343107D01*
X2480607Y1328965D01*
X2459393Y1368536D02*
X2473536Y1354393D01*
X2459393Y1336036D02*
X2473536Y1321893D01*
X2459393Y1303536D02*
X2473536Y1289393D01*
X2459393Y1271036D02*
X2473536Y1256893D01*
X2441036D02*
X2426893Y1271036D01*
X2433964Y1263964D02*
Y1278107D01*
X2448107Y1263964D01*
X2433965D01*
X2433964Y1263964D01*
Y1245607D02*
X2448107Y1231464D01*
X2433965D01*
X2433964Y1231464D01*
Y1245607D01*
X2426893Y1238536D02*
X2441036Y1224393D01*
X2433964Y1213107D02*
X2448107Y1198964D01*
X2433965D01*
X2433964Y1198964D01*
Y1213107D01*
X2426893Y1206036D02*
X2441036Y1191893D01*
X2433964Y1180607D02*
X2448107Y1166464D01*
X2433965D01*
X2433964Y1166464D01*
Y1180607D01*
X2459393Y1206036D02*
X2473536Y1191893D01*
X2473535Y1224393D02*
X2459393Y1238536D01*
X2441036Y1289393D02*
X2426893Y1303536D01*
X2433964Y1310607D02*
X2448107Y1296465D01*
X2433965D01*
X2433964Y1296465D01*
Y1310607D01*
Y1328965D02*
Y1343107D01*
X2448107Y1328965D01*
X2433965D01*
X2433964Y1328965D01*
X2426893Y1336036D02*
X2441036Y1321893D01*
Y1354393D02*
X2426893Y1368536D01*
X2433964Y1361465D02*
Y1375607D01*
X2448107Y1361465D01*
X2433965D01*
X2433964Y1361465D01*
Y1393965D02*
Y1408107D01*
X2448107Y1393965D01*
X2433965D01*
X2433964Y1393965D01*
X2426893Y1401036D02*
X2441036Y1386893D01*
X2459393Y1401036D02*
X2473536Y1386893D01*
Y1419393D02*
X2459393Y1433536D01*
X2448107Y1426465D02*
X2433965D01*
X2433964Y1426465D01*
Y1440607D01*
X2448107Y1426465D01*
X2441036Y1419393D02*
X2426893Y1433536D01*
Y1466036D02*
X2441036Y1451893D01*
X2433965Y1458965D02*
X2448107D01*
X2433964Y1473107D01*
Y1458965D01*
X2433965Y1458965D01*
X2459393Y1466036D02*
X2473536Y1451893D01*
Y1484393D02*
X2459393Y1498536D01*
X2448107Y1491465D02*
X2433965D01*
X2433964Y1491465D01*
Y1505607D01*
X2448107Y1491465D01*
X2441036Y1484393D02*
X2426893Y1498536D01*
Y1531036D02*
X2441036Y1516893D01*
X2433965Y1523965D02*
X2448107D01*
X2433964Y1538107D01*
Y1523965D01*
X2433965Y1523965D01*
X2459393Y1531036D02*
X2473536Y1516893D01*
X2480607Y1556465D02*
X2466465D01*
X2466465Y1556465D01*
Y1570607D01*
X2480607Y1556465D01*
Y1588965D02*
X2466465D01*
X2466465Y1588965D01*
Y1603107D01*
X2480607Y1588965D01*
X2459393Y1596036D02*
X2473536Y1581893D01*
X2459393Y1563536D02*
X2473536Y1549393D01*
X2441036D02*
X2426893Y1563536D01*
X2433964Y1556465D02*
Y1570607D01*
X2448107Y1556465D01*
X2433965D01*
X2433964Y1556465D01*
Y1588965D02*
Y1603107D01*
X2448107Y1588965D01*
X2433965D01*
X2433964Y1588965D01*
X2441036Y1581893D02*
X2426893Y1596036D01*
Y1628536D02*
X2441036Y1614393D01*
X2433965Y1621465D02*
X2448107D01*
X2433964Y1635607D01*
Y1621465D01*
X2433965Y1621465D01*
X2441035Y1646893D02*
X2426893Y1661036D01*
X2433964Y1653965D02*
X2433964Y1668107D01*
X2448107Y1653965D01*
X2433965Y1653965D01*
X2433964Y1653965D01*
Y1686465D02*
X2433964Y1700607D01*
X2448107Y1686465D01*
X2433965Y1686465D01*
X2433964Y1686465D01*
X2426893Y1693536D02*
X2441035Y1679393D01*
X2459393Y1693536D02*
X2473535Y1679393D01*
X2466465Y1686465D02*
X2480607Y1686465D01*
X2466465Y1700607D01*
X2466464Y1686465D01*
X2466465Y1686465D01*
X2466465Y1668107D02*
X2480607Y1653965D01*
X2466465Y1653965D01*
X2466464Y1653965D01*
X2466465Y1668107D01*
X2459393Y1661036D02*
X2473535Y1646893D01*
X2459393Y1628536D02*
X2473535Y1614393D01*
X2491893Y1693536D02*
X2506035Y1679393D01*
X2498965Y1686465D02*
X2513107Y1686465D01*
X2498964Y1700607D01*
X2498964Y1686465D01*
X2498965Y1686465D01*
X2524393Y1693536D02*
X2538535Y1679393D01*
X2545607Y1686465D02*
X2531465Y1686465D01*
X2531464Y1686465D01*
X2531465Y1700607D01*
X2545607Y1686465D01*
X2589393Y1693536D02*
X2603535Y1679393D01*
X2596465Y1686465D02*
X2610607Y1686465D01*
X2596465Y1700607D01*
X2596465Y1686465D01*
X2596465Y1686465D01*
X2596465Y1668107D02*
X2610607Y1653965D01*
X2596465Y1653965D01*
X2596465Y1653965D01*
X2596465Y1668107D01*
X2621893Y1661036D02*
X2636035Y1646893D01*
X2603535D02*
X2589393Y1661036D01*
X2628965Y1653965D02*
X2628965Y1668107D01*
X2643107Y1653965D01*
X2628965Y1653965D01*
X2628965Y1653965D01*
X2628965Y1686465D02*
Y1700607D01*
X2643107Y1686465D01*
X2628965D01*
X2628965Y1686465D01*
X2621893Y1693536D02*
X2636035Y1679393D01*
X2636035Y1744393D02*
X2621893Y1758536D01*
X2628965Y1751465D02*
X2628965Y1765607D01*
X2643107Y1751465D01*
X2628965Y1751465D01*
X2628965Y1751465D01*
X2480607Y1718965D02*
X2466465Y1718965D01*
X2466464Y1718965D01*
X2466465Y1733107D01*
X2480607Y1718965D01*
X2473535Y1711893D02*
X2459393Y1726036D01*
X2448107Y1718965D02*
X2433965Y1718965D01*
X2433964Y1718965D01*
X2433964Y1733107D01*
X2448107Y1718965D01*
X2441035Y1711893D02*
X2426893Y1726036D01*
X2415607Y1718965D02*
X2401465Y1718965D01*
X2401464Y1718965D01*
X2401465Y1733107D01*
X2415607Y1718965D01*
X2408535Y1711893D02*
X2394393Y1726036D01*
X2383107Y1718965D02*
X2368965Y1718965D01*
X2368964Y1718965D01*
X2368965Y1733107D01*
X2383107Y1718965D01*
X2376035Y1711893D02*
X2361893Y1726036D01*
Y1758536D02*
X2376035Y1744393D01*
X2368965Y1751465D02*
X2383107Y1751465D01*
X2368965Y1765607D01*
X2368964Y1751465D01*
X2368965Y1751465D01*
X2394393Y1758536D02*
X2408535Y1744393D01*
X2401465Y1751465D02*
X2415607Y1751465D01*
X2401465Y1765607D01*
X2401464Y1751465D01*
X2401465Y1751465D01*
X2401465Y1700607D02*
X2415607Y1686465D01*
X2401465Y1686465D01*
X2401464Y1686465D01*
X2401465Y1700607D01*
X2394393Y1693536D02*
X2408535Y1679393D01*
X2401465Y1668107D02*
X2415607Y1653965D01*
X2401465Y1653965D01*
X2401464Y1653965D01*
X2401465Y1668107D01*
X2394393Y1661036D02*
X2408535Y1646893D01*
X2401465Y1635607D02*
X2415607Y1621465D01*
X2401465Y1621465D01*
X2401464Y1621465D01*
X2401465Y1635607D01*
X2394393Y1628536D02*
X2408535Y1614393D01*
X2401465Y1603107D02*
X2415607Y1588965D01*
X2401465D01*
X2401465Y1588965D01*
Y1603107D01*
X2394393Y1596036D02*
X2408536Y1581893D01*
X2401465Y1570607D02*
X2415607Y1556465D01*
X2401465D01*
X2401465Y1556465D01*
Y1570607D01*
X2394393Y1563536D02*
X2408536Y1549393D01*
X2401465Y1538107D02*
X2415607Y1523965D01*
X2401465D01*
X2401465Y1523965D01*
Y1538107D01*
X2368965D02*
X2383107Y1523965D01*
X2368965D01*
X2368965Y1523965D01*
Y1538107D01*
Y1556465D02*
Y1570607D01*
X2383107Y1556465D01*
X2368965D01*
X2368965Y1556465D01*
X2361893Y1563536D02*
X2376036Y1549393D01*
Y1581893D02*
X2361893Y1596036D01*
X2368965Y1603107D02*
X2383107Y1588965D01*
X2368965D01*
X2368965Y1588965D01*
Y1603107D01*
X2376035Y1614393D02*
X2361893Y1628536D01*
X2368964Y1621465D02*
X2368965Y1635607D01*
X2383107Y1621465D01*
X2368965Y1621465D01*
X2368964Y1621465D01*
X2376035Y1646893D02*
X2361893Y1661036D01*
X2368964Y1653965D02*
X2368965Y1668107D01*
X2383107Y1653965D01*
X2368965Y1653965D01*
X2368964Y1653965D01*
Y1686465D02*
X2368965Y1700607D01*
X2383107Y1686465D01*
X2368965Y1686465D01*
X2368964Y1686465D01*
X2361893Y1693536D02*
X2376035Y1679393D01*
X2343535Y1711893D02*
X2329393Y1726036D01*
X2336464Y1718965D02*
X2336465Y1733107D01*
X2350607Y1718965D01*
X2336465Y1718965D01*
X2336464Y1718965D01*
X2318107Y1718965D02*
X2303965Y1718965D01*
X2303964Y1718965D01*
X2303965Y1733107D01*
X2318107Y1718965D01*
X2311035Y1711893D02*
X2296893Y1726036D01*
X2285607Y1718965D02*
X2271465Y1718965D01*
X2271464Y1718965D01*
X2271464Y1733107D01*
X2285607Y1718965D01*
X2278535Y1711893D02*
X2264393Y1726036D01*
X2253107Y1718965D02*
X2238965Y1718965D01*
X2238964Y1718965D01*
X2238965Y1733107D01*
X2253107Y1718965D01*
X2246035Y1711893D02*
X2231893Y1726036D01*
Y1693536D02*
X2246035Y1679393D01*
X2253107Y1686465D02*
X2238965Y1686465D01*
X2238964Y1686465D01*
X2238965Y1700607D01*
X2253107Y1686465D01*
X2264393Y1693536D02*
X2278535Y1679393D01*
X2271465Y1686465D02*
X2285607Y1686465D01*
X2271464Y1700607D01*
X2271464Y1686465D01*
X2271465Y1686465D01*
X2271464Y1668107D02*
X2285607Y1653965D01*
X2271465Y1653965D01*
X2271464Y1653965D01*
X2271464Y1668107D01*
X2264393Y1661036D02*
X2278535Y1646893D01*
X2271464Y1635607D02*
X2285607Y1621465D01*
X2271465Y1621465D01*
X2271464Y1621465D01*
X2271464Y1635607D01*
X2264393Y1628536D02*
X2278535Y1614393D01*
X2271464Y1603107D02*
X2285607Y1588965D01*
X2271465D01*
X2271464Y1588965D01*
Y1603107D01*
X2264393Y1596036D02*
X2278535Y1581893D01*
X2271464Y1570607D02*
X2285607Y1556465D01*
X2271465D01*
X2271464Y1556465D01*
Y1570607D01*
X2264393Y1563536D02*
X2278535Y1549393D01*
X2271464Y1538107D02*
X2285607Y1523965D01*
X2271465D01*
X2271464Y1523965D01*
Y1538107D01*
X2246036Y1549393D02*
X2231893Y1563536D01*
X2238965Y1556465D02*
Y1570607D01*
X2253107Y1556465D01*
X2238965D01*
X2238965Y1556465D01*
Y1538107D02*
X2253107Y1523965D01*
X2238965D01*
X2238965Y1523965D01*
Y1538107D01*
X2206464D02*
X2220607Y1523965D01*
X2206465D01*
X2206464Y1523965D01*
Y1538107D01*
Y1556465D02*
Y1570607D01*
X2220607Y1556465D01*
X2206465D01*
X2206464Y1556465D01*
X2199393Y1563536D02*
X2213536Y1549393D01*
Y1581893D02*
X2199393Y1596036D01*
X2206464Y1603107D02*
X2220607Y1588965D01*
X2206465D01*
X2206464Y1588965D01*
Y1603107D01*
X2213535Y1614393D02*
X2199393Y1628536D01*
X2206464Y1621465D02*
X2206464Y1635607D01*
X2220607Y1621465D01*
X2206465Y1621465D01*
X2206464Y1621465D01*
X2188107Y1621465D02*
X2173965Y1621465D01*
X2173964Y1621465D01*
X2173964Y1635607D01*
X2188107Y1621465D01*
X2231893Y1628536D02*
X2246035Y1614393D01*
X2253107Y1621465D02*
X2238965Y1621465D01*
X2238964Y1621465D01*
X2238964Y1635607D01*
X2253107Y1621465D01*
X2246035Y1646893D02*
X2231893Y1661036D01*
X2238964Y1653965D02*
X2238965Y1668107D01*
X2253107Y1653965D01*
X2238965Y1653965D01*
X2238964Y1653965D01*
X2220607Y1653965D02*
X2206465Y1653965D01*
X2206464Y1653965D01*
X2206464Y1668107D01*
X2220607Y1653965D01*
X2199393Y1661036D02*
X2213535Y1646893D01*
X2231893Y1596036D02*
X2246036Y1581893D01*
X2253107Y1588965D02*
X2238965D01*
X2238965Y1588965D01*
Y1603107D01*
X2253107Y1588965D01*
X2296893Y1563536D02*
X2311036Y1549393D01*
X2303965Y1556465D02*
X2318107D01*
X2303965Y1570607D01*
Y1556465D01*
X2303965Y1556465D01*
X2303965Y1538107D02*
X2318107Y1523965D01*
X2303965D01*
X2303965Y1523965D01*
Y1538107D01*
X2336465D02*
X2350607Y1523965D01*
X2336465D01*
X2336465Y1523965D01*
Y1538107D01*
Y1556465D02*
Y1570607D01*
X2350607Y1556465D01*
X2336465D01*
X2336465Y1556465D01*
X2329393Y1563536D02*
X2343536Y1549393D01*
Y1581893D02*
X2329393Y1596036D01*
X2336465Y1603107D02*
X2350607Y1588965D01*
X2336465D01*
X2336465Y1588965D01*
Y1603107D01*
X2343535Y1614393D02*
X2329393Y1628536D01*
X2336464Y1621465D02*
X2336464Y1635607D01*
X2350607Y1621465D01*
X2336465Y1621465D01*
X2336464Y1621465D01*
X2318107Y1621465D02*
X2303965Y1621465D01*
X2303964Y1621465D01*
X2303965Y1635607D01*
X2318107Y1621465D01*
X2311035Y1614393D02*
X2296893Y1628536D01*
X2296893Y1596036D02*
X2311036Y1581893D01*
X2303965Y1588965D02*
X2318107D01*
X2303965Y1603107D01*
Y1588965D01*
X2303965Y1588965D01*
X2311036Y1516893D02*
X2296893Y1531036D01*
X2264393D02*
X2278535Y1516893D01*
X2271464Y1505607D02*
X2285607Y1491465D01*
X2271465D01*
X2271464Y1491465D01*
Y1505607D01*
X2264393Y1498536D02*
X2278535Y1484393D01*
X2246036D02*
X2231893Y1498536D01*
X2238965Y1491465D02*
Y1505607D01*
X2253107Y1491465D01*
X2238965D01*
X2238965Y1491465D01*
X2220607Y1491465D02*
X2206465D01*
X2206464Y1491465D01*
Y1505607D01*
X2220607Y1491465D01*
X2213536Y1484393D02*
X2199393Y1498536D01*
X2188107Y1491465D02*
X2173965D01*
X2173965Y1491465D01*
Y1505607D01*
X2188107Y1491465D01*
Y1523965D02*
X2173965D01*
X2173965Y1523965D01*
Y1538107D01*
X2188107Y1523965D01*
X2199393Y1531036D02*
X2213536Y1516893D01*
X2231893Y1531036D02*
X2246036Y1516893D01*
X2296893Y1498536D02*
X2311036Y1484393D01*
X2303965Y1491465D02*
X2318107D01*
X2303965Y1505607D01*
Y1491465D01*
X2303965Y1491465D01*
X2329393Y1498536D02*
X2343536Y1484393D01*
X2336465Y1491465D02*
X2350607D01*
X2336465Y1505607D01*
Y1491465D01*
X2336465Y1491465D01*
X2343536Y1516893D02*
X2329393Y1531036D01*
Y1466036D02*
X2343536Y1451893D01*
X2336465Y1458965D02*
X2350607D01*
X2336465Y1473107D01*
Y1458965D01*
X2336465Y1458965D01*
X2336465Y1440607D02*
X2350607Y1426465D01*
X2336465D01*
X2336465Y1426465D01*
Y1440607D01*
X2329393Y1433536D02*
X2343536Y1419393D01*
X2311036D02*
X2296893Y1433536D01*
X2285607Y1426465D02*
X2271465D01*
X2271464Y1426465D01*
Y1440607D01*
X2285607Y1426465D01*
X2278535Y1419393D02*
X2264393Y1433536D01*
X2253107Y1426465D02*
X2238965D01*
X2238965Y1426465D01*
Y1440607D01*
X2253107Y1426465D01*
X2246036Y1419393D02*
X2231893Y1433536D01*
X2220607Y1426465D02*
X2206465D01*
X2206464Y1426465D01*
Y1440607D01*
X2220607Y1426465D01*
X2213536Y1419393D02*
X2199393Y1433536D01*
X2188107Y1426465D02*
X2173965D01*
X2173965Y1426465D01*
Y1440607D01*
X2188107Y1426465D01*
Y1458965D02*
X2173965D01*
X2173965Y1458965D01*
Y1473107D01*
X2188107Y1458965D01*
X2199393Y1466036D02*
X2213536Y1451893D01*
X2206465Y1458965D02*
X2220607D01*
X2206464Y1473107D01*
Y1458965D01*
X2206465Y1458965D01*
X2231893Y1466036D02*
X2246036Y1451893D01*
X2253107Y1458965D02*
X2238965D01*
X2238965Y1458965D01*
Y1473107D01*
X2253107Y1458965D01*
X2264393Y1466036D02*
X2278535Y1451893D01*
X2271465Y1458965D02*
X2285607D01*
X2271464Y1473107D01*
Y1458965D01*
X2271465Y1458965D01*
X2296893Y1466036D02*
X2311036Y1451893D01*
X2303965Y1458965D02*
X2318107D01*
X2303965Y1473107D01*
Y1458965D01*
X2303965Y1458965D01*
X2303965Y1440607D02*
X2318107Y1426465D01*
X2303965D01*
X2303965Y1426465D01*
Y1440607D01*
X2329393Y1401036D02*
X2343536Y1386893D01*
X2336465Y1393965D02*
X2350607D01*
X2336465Y1408107D01*
Y1393965D01*
X2336465Y1393965D01*
X2336465Y1375607D02*
X2350607Y1361465D01*
X2336465D01*
X2336465Y1361465D01*
Y1375607D01*
X2376036Y1354393D02*
X2361893Y1368536D01*
X2368965Y1361465D02*
Y1375607D01*
X2383107Y1361465D01*
X2368965D01*
X2368965Y1361465D01*
Y1393965D02*
Y1408107D01*
X2383107Y1393965D01*
X2368965D01*
X2368965Y1393965D01*
X2361893Y1401036D02*
X2376036Y1386893D01*
X2394393Y1401036D02*
X2408536Y1386893D01*
X2401465Y1393965D02*
X2415607D01*
X2401465Y1408107D01*
Y1393965D01*
X2401465Y1393965D01*
X2401465Y1375607D02*
X2415607Y1361465D01*
X2401465D01*
X2401465Y1361465D01*
Y1375607D01*
X2394393Y1368536D02*
X2408536Y1354393D01*
X2401465Y1343107D02*
X2415607Y1328965D01*
X2401465D01*
X2401465Y1328965D01*
Y1343107D01*
X2394393Y1336036D02*
X2408536Y1321893D01*
X2401465Y1310607D02*
X2415607Y1296465D01*
X2401465D01*
X2401465Y1296465D01*
Y1310607D01*
X2394393Y1303536D02*
X2408536Y1289393D01*
X2401465Y1278107D02*
X2415607Y1263964D01*
X2401465D01*
X2401465Y1263964D01*
Y1278107D01*
X2394393Y1271036D02*
X2408536Y1256893D01*
X2376036D02*
X2361893Y1271036D01*
X2368965Y1263964D02*
Y1278107D01*
X2383107Y1263964D01*
X2368965D01*
X2368965Y1263964D01*
Y1296465D02*
Y1310607D01*
X2383107Y1296465D01*
X2368965D01*
X2368965Y1296465D01*
X2376036Y1289393D02*
X2361893Y1303536D01*
Y1336036D02*
X2376036Y1321893D01*
X2368965Y1328965D02*
X2383107D01*
X2368965Y1343107D01*
Y1328965D01*
X2368965Y1328965D01*
Y1426465D02*
X2383107D01*
X2368965Y1440607D01*
Y1426465D01*
X2368965Y1426465D01*
X2376036Y1419393D02*
X2361893Y1433536D01*
Y1466036D02*
X2376036Y1451893D01*
X2368965Y1458965D02*
X2383107D01*
X2368965Y1473107D01*
Y1458965D01*
X2368965Y1458965D01*
X2394393Y1466036D02*
X2408536Y1451893D01*
X2401465Y1458965D02*
X2415607D01*
X2401465Y1473107D01*
Y1458965D01*
X2401465Y1458965D01*
X2401465Y1440607D02*
X2415607Y1426465D01*
X2401465D01*
X2401465Y1426465D01*
Y1440607D01*
X2394393Y1433536D02*
X2408536Y1419393D01*
Y1484393D02*
X2394393Y1498536D01*
X2401465Y1491465D02*
Y1505607D01*
X2415607Y1491465D01*
X2401465D01*
X2401465Y1491465D01*
X2383107Y1491465D02*
X2368965D01*
X2368965Y1491465D01*
Y1505607D01*
X2383107Y1491465D01*
X2376036Y1484393D02*
X2361893Y1498536D01*
Y1531036D02*
X2376036Y1516893D01*
X2394393Y1531036D02*
X2408536Y1516893D01*
X2343535Y1646893D02*
X2329393Y1661036D01*
X2336464Y1653965D02*
X2336465Y1668107D01*
X2350607Y1653965D01*
X2336465Y1653965D01*
X2336464Y1653965D01*
X2318107Y1653965D02*
X2303965Y1653965D01*
X2303964Y1653965D01*
X2303965Y1668107D01*
X2318107Y1653965D01*
X2311035Y1679393D02*
X2296893Y1693536D01*
Y1661036D02*
X2311035Y1646893D01*
X2303965Y1686465D02*
X2318107Y1686465D01*
X2303965Y1700607D01*
X2303964Y1686465D01*
X2303965Y1686465D01*
X2329393Y1693536D02*
X2343535Y1679393D01*
X2336465Y1686465D02*
X2350607Y1686465D01*
X2336465Y1700607D01*
X2336464Y1686465D01*
X2336465Y1686465D01*
X2343535Y1744393D02*
X2329393Y1758536D01*
X2336464Y1751465D02*
X2336465Y1765607D01*
X2350607Y1751465D01*
X2336465Y1751465D01*
X2336464Y1751465D01*
X2318107Y1751465D02*
X2303965Y1751465D01*
X2303964Y1751465D01*
X2303965Y1765607D01*
X2318107Y1751465D01*
X2311035Y1744393D02*
X2296893Y1758536D01*
X2206464Y1700607D02*
X2220607Y1686465D01*
X2206465Y1686465D01*
X2206464Y1686465D01*
X2206464Y1700607D01*
X2199393Y1693536D02*
X2213535Y1679393D01*
X2188107Y1653965D02*
X2173965Y1653965D01*
X2173964Y1653965D01*
X2173965Y1668107D01*
X2188107Y1653965D01*
X2166893Y1661036D02*
X2181035Y1646893D01*
X2166893Y1628536D02*
X2181035Y1614393D01*
X2173965Y1603107D02*
X2188107Y1588965D01*
X2173965D01*
X2173965Y1588965D01*
Y1603107D01*
X2166893Y1596036D02*
X2181036Y1581893D01*
X2173965Y1570607D02*
X2188107Y1556465D01*
X2173965D01*
X2173965Y1556465D01*
Y1570607D01*
X2166893Y1563536D02*
X2181036Y1549393D01*
X2148536D02*
X2134393Y1563536D01*
X2141464Y1556465D02*
Y1570607D01*
X2155607Y1556465D01*
X2141465D01*
X2141464Y1556465D01*
X2123107Y1556465D02*
X2108965D01*
X2108965Y1556465D01*
Y1570607D01*
X2123107Y1556465D01*
X2141464Y1538107D02*
X2155607Y1523965D01*
X2141465D01*
X2141464Y1523965D01*
Y1538107D01*
Y1588965D02*
Y1603107D01*
X2155607Y1588965D01*
X2141465D01*
X2141464Y1588965D01*
X2148536Y1581893D02*
X2134393Y1596036D01*
X2141464Y1621465D02*
X2141464Y1635607D01*
X2155607Y1621465D01*
X2141465Y1621465D01*
X2141464Y1621465D01*
X2134393Y1628536D02*
X2148535Y1614393D01*
X2101893Y1563536D02*
X2116036Y1549393D01*
X2108965Y1538107D02*
X2123107Y1523965D01*
X2108965D01*
X2108965Y1523965D01*
Y1538107D01*
X2101893Y1531036D02*
X2116036Y1516893D01*
X2108965Y1505607D02*
X2123107Y1491465D01*
X2108965D01*
X2108965Y1491465D01*
Y1505607D01*
X2101893Y1498536D02*
X2116036Y1484393D01*
X2134393Y1466036D02*
X2148536Y1451893D01*
X2141465Y1458965D02*
X2155607D01*
X2141464Y1473107D01*
Y1458965D01*
X2141465Y1458965D01*
X2141464Y1440607D02*
X2155607Y1426465D01*
X2141465D01*
X2141464Y1426465D01*
Y1440607D01*
X2134393Y1433536D02*
X2148536Y1419393D01*
X2166893Y1433536D02*
X2181036Y1419393D01*
Y1451893D02*
X2166893Y1466036D01*
Y1498536D02*
X2181036Y1484393D01*
Y1516893D02*
X2166893Y1531036D01*
X2134393D02*
X2148536Y1516893D01*
X2141464Y1505607D02*
X2155607Y1491465D01*
X2141465D01*
X2141464Y1491465D01*
Y1505607D01*
X2134393Y1498536D02*
X2148536Y1484393D01*
X2426893Y1173536D02*
X2441036Y1159393D01*
X2433964Y1148107D02*
X2448107Y1133964D01*
X2433965D01*
X2433964Y1133964D01*
Y1148107D01*
X2426893Y1141036D02*
X2441036Y1126893D01*
X2459393Y1141036D02*
X2473536Y1126893D01*
Y1159393D02*
X2459393Y1173536D01*
X2621893Y1206036D02*
X2636035Y1191893D01*
X2628965Y1198964D02*
X2643107D01*
X2628965Y1213107D01*
Y1198964D01*
X2628965Y1198964D01*
X2636035Y1224393D02*
X2621893Y1238536D01*
X2628965Y1245607D02*
X2643107Y1231464D01*
X2628965D01*
X2628965Y1231464D01*
Y1245607D01*
X2628965Y1263964D02*
Y1278107D01*
X2643107Y1263964D01*
X2628965D01*
X2628965Y1263964D01*
X2621893Y1271036D02*
X2636035Y1256893D01*
Y1289393D02*
X2621893Y1303536D01*
X2628965Y1310607D02*
X2643107Y1296465D01*
X2628965D01*
X2628965Y1296465D01*
Y1310607D01*
Y1328965D02*
Y1343107D01*
X2643107Y1328965D01*
X2628965D01*
X2628965Y1328965D01*
X2621893Y1336036D02*
X2636035Y1321893D01*
Y1354393D02*
X2621893Y1368536D01*
X2628965Y1361465D02*
Y1375607D01*
X2643107Y1361465D01*
X2628965D01*
X2628965Y1361465D01*
X2610607Y1361465D02*
X2596465D01*
X2596465Y1361465D01*
Y1375607D01*
X2610607Y1361465D01*
X2621893Y1401036D02*
X2636035Y1386893D01*
X2628965Y1393965D02*
X2643107D01*
X2628965Y1408107D01*
Y1393965D01*
X2628965Y1393965D01*
X2668535Y1354393D02*
X2654393Y1368536D01*
X2661465Y1361465D02*
Y1375607D01*
X2675607Y1361465D01*
X2661465D01*
X2661465Y1361465D01*
Y1393965D02*
Y1408107D01*
X2675607Y1393965D01*
X2661465D01*
X2661465Y1393965D01*
X2654393Y1401036D02*
X2668535Y1386893D01*
X2686893Y1401036D02*
X2701035Y1386893D01*
X2693965Y1393965D02*
X2708107D01*
X2693965Y1408107D01*
Y1393965D01*
X2693965Y1393965D01*
X2693965Y1375607D02*
X2708107Y1361465D01*
X2693965D01*
X2693965Y1361465D01*
Y1375607D01*
X2686893Y1368536D02*
X2701035Y1354393D01*
X2693965Y1343107D02*
X2708107Y1328965D01*
X2693965D01*
X2693965Y1328965D01*
Y1343107D01*
X2686893Y1336036D02*
X2701035Y1321893D01*
X2693965Y1310607D02*
X2708107Y1296465D01*
X2693965D01*
X2693965Y1296465D01*
Y1310607D01*
X2686893Y1303536D02*
X2701035Y1289393D01*
X2693965Y1278107D02*
X2708107Y1263964D01*
X2693965D01*
X2693965Y1263964D01*
Y1278107D01*
X2686893Y1271036D02*
X2701035Y1256893D01*
X2693965Y1245607D02*
X2708107Y1231464D01*
X2693965D01*
X2693965Y1231464D01*
Y1245607D01*
X2686893Y1238536D02*
X2701035Y1224393D01*
X2693965Y1213107D02*
X2708107Y1198964D01*
X2693965D01*
X2693965Y1198964D01*
Y1213107D01*
X2686893Y1206036D02*
X2701035Y1191893D01*
X2668535D02*
X2654393Y1206036D01*
X2661465Y1198964D02*
Y1213107D01*
X2675607Y1198964D01*
X2661465D01*
X2661465Y1198964D01*
Y1231464D02*
Y1245607D01*
X2675607Y1231464D01*
X2661465D01*
X2661465Y1231464D01*
X2668535Y1224393D02*
X2654393Y1238536D01*
Y1271036D02*
X2668535Y1256893D01*
X2661465Y1263964D02*
X2675607D01*
X2661465Y1278107D01*
Y1263964D01*
X2661465Y1263964D01*
Y1296465D02*
X2675607D01*
X2661465Y1310607D01*
Y1296465D01*
X2661465Y1296465D01*
X2668535Y1289393D02*
X2654393Y1303536D01*
Y1336036D02*
X2668535Y1321893D01*
X2661465Y1328965D02*
X2675607D01*
X2661465Y1343107D01*
Y1328965D01*
X2661465Y1328965D01*
X2719393Y1433536D02*
X2733535Y1419393D01*
X2726465Y1426465D02*
X2740607D01*
X2726465Y1440607D01*
Y1426465D01*
X2726465Y1426465D01*
Y1458965D02*
X2740607D01*
X2726465Y1473107D01*
Y1458965D01*
X2726465Y1458965D01*
X2733535Y1451893D02*
X2719393Y1466036D01*
X2751893D02*
X2766035Y1451893D01*
X2751893Y1433536D02*
X2766035Y1419393D01*
Y1484393D02*
X2751893Y1498536D01*
X2740607Y1491465D02*
X2726465D01*
X2726465Y1491465D01*
Y1505607D01*
X2740607Y1491465D01*
X2733535Y1484393D02*
X2719393Y1498536D01*
Y1531036D02*
X2733535Y1516893D01*
X2751893Y1531036D02*
X2766035Y1516893D01*
X2701035D02*
X2686893Y1531036D01*
X2654393D02*
X2668535Y1516893D01*
X2661465Y1505607D02*
X2675607Y1491465D01*
X2661465D01*
X2661465Y1491465D01*
Y1505607D01*
X2654393Y1498536D02*
X2668535Y1484393D01*
X2686893Y1498536D02*
X2701035Y1484393D01*
X2693965Y1491465D02*
X2708107D01*
X2693965Y1505607D01*
Y1491465D01*
X2693965Y1491465D01*
X2693965Y1473107D02*
X2708107Y1458965D01*
X2693965D01*
X2693965Y1458965D01*
Y1473107D01*
X2686893Y1466036D02*
X2701035Y1451893D01*
X2693965Y1440607D02*
X2708107Y1426465D01*
X2693965D01*
X2693965Y1426465D01*
Y1440607D01*
X2686893Y1433536D02*
X2701035Y1419393D01*
X2668535D02*
X2654393Y1433536D01*
X2661465Y1426465D02*
Y1440607D01*
X2675607Y1426465D01*
X2661465D01*
X2661465Y1426465D01*
Y1458965D02*
Y1473107D01*
X2675607Y1458965D01*
X2661465D01*
X2661465Y1458965D01*
X2654393Y1466036D02*
X2668535Y1451893D01*
M02*
