G04 Layer_Color=16711935*
%FSLAX44Y44*%
%MOMM*%
G71*
G01*
G75*
%ADD14C,1.3000*%
D14*
X2103520Y1453520D02*
D03*
X2121480Y1471480D02*
D03*
X2136020Y1388520D02*
D03*
X2168520D02*
D03*
X2153980Y1406480D02*
D03*
X2168520Y1356020D02*
D03*
X2233520Y1291020D02*
D03*
X2298520Y1226020D02*
D03*
X2331020D02*
D03*
X2331020Y1193520D02*
D03*
X2348980Y1211480D02*
D03*
X2363520Y1161020D02*
D03*
X2396020D02*
D03*
X2381480Y1178980D02*
D03*
X2413980D02*
D03*
Y1146480D02*
D03*
X2396020Y1128520D02*
D03*
X2428520Y1096020D02*
D03*
X2461020D02*
D03*
X2446480Y1113980D02*
D03*
X2461020Y1063520D02*
D03*
X2493520Y1031020D02*
D03*
X2526020D02*
D03*
X2511480Y1048980D02*
D03*
X2543980D02*
D03*
X2608980Y1113980D02*
D03*
X2656020Y1161020D02*
D03*
X2673980Y1178980D02*
D03*
X2721020Y1226020D02*
D03*
X2786020Y1291020D02*
D03*
X2836480Y1341480D02*
D03*
X2851020Y1356020D02*
D03*
X2901480Y1406480D02*
D03*
Y1438980D02*
D03*
X2916020Y1453520D02*
D03*
X2901480Y1471480D02*
D03*
X2933980D02*
D03*
X2916020Y1486020D02*
D03*
Y1518520D02*
D03*
X2901480Y1503980D02*
D03*
X2933980D02*
D03*
Y1536480D02*
D03*
X2916020Y1551020D02*
D03*
X2901480Y1536480D02*
D03*
Y1568980D02*
D03*
X2933980D02*
D03*
X2901480Y1601480D02*
D03*
Y1633980D02*
D03*
X2868980Y1666480D02*
D03*
X2836480D02*
D03*
Y1698980D02*
D03*
Y1633980D02*
D03*
X2851020Y1648520D02*
D03*
Y1616020D02*
D03*
X2836480Y1601480D02*
D03*
X2868980D02*
D03*
X2883520Y1616020D02*
D03*
X2868980Y1633980D02*
D03*
X2883520Y1583520D02*
D03*
X2868980Y1568980D02*
D03*
X2851020Y1583520D02*
D03*
X2836480Y1568980D02*
D03*
X2851020Y1551020D02*
D03*
X2836480Y1536480D02*
D03*
X2868980D02*
D03*
X2883520Y1551020D02*
D03*
Y1518520D02*
D03*
X2868980Y1503980D02*
D03*
X2883520Y1486020D02*
D03*
X2851020D02*
D03*
Y1518520D02*
D03*
X2836480Y1503980D02*
D03*
Y1471480D02*
D03*
X2851020Y1453520D02*
D03*
X2836480Y1438980D02*
D03*
X2851020Y1421020D02*
D03*
X2883520D02*
D03*
X2868980Y1438980D02*
D03*
X2883520Y1453520D02*
D03*
X2868980Y1471480D02*
D03*
Y1406480D02*
D03*
X2883520Y1388520D02*
D03*
X2868980Y1373980D02*
D03*
X2851020Y1388520D02*
D03*
X2836480Y1373980D02*
D03*
Y1406480D02*
D03*
X2818520Y1421020D02*
D03*
Y1453520D02*
D03*
X2803980Y1438980D02*
D03*
X2786020Y1453520D02*
D03*
Y1421020D02*
D03*
X2803980Y1471480D02*
D03*
Y1406480D02*
D03*
X2818520Y1388520D02*
D03*
X2803980Y1373980D02*
D03*
X2786020Y1388520D02*
D03*
Y1356020D02*
D03*
Y1323520D02*
D03*
X2818520D02*
D03*
X2803980Y1308980D02*
D03*
Y1341480D02*
D03*
X2818520Y1356020D02*
D03*
X2771480Y1373980D02*
D03*
X2753520Y1388520D02*
D03*
X2738980Y1373980D02*
D03*
X2721020Y1388520D02*
D03*
X2738980Y1406480D02*
D03*
X2771480D02*
D03*
Y1341480D02*
D03*
X2753520Y1356020D02*
D03*
X2738980Y1341480D02*
D03*
X2721020Y1356020D02*
D03*
Y1323520D02*
D03*
X2753520D02*
D03*
X2738980Y1308980D02*
D03*
X2771480D02*
D03*
Y1276480D02*
D03*
X2753520Y1291020D02*
D03*
X2738980Y1276480D02*
D03*
X2721020Y1291020D02*
D03*
Y1258520D02*
D03*
X2753520D02*
D03*
X2738980Y1243980D02*
D03*
X2706480Y1308980D02*
D03*
X2688520Y1323520D02*
D03*
X2673980Y1308980D02*
D03*
X2656020Y1323520D02*
D03*
Y1356020D02*
D03*
X2673980Y1341480D02*
D03*
X2688520Y1356020D02*
D03*
X2706480Y1341480D02*
D03*
Y1276480D02*
D03*
X2688520Y1291020D02*
D03*
X2673980Y1276480D02*
D03*
X2656020Y1291020D02*
D03*
Y1258520D02*
D03*
X2688520D02*
D03*
X2673980Y1243980D02*
D03*
X2706480D02*
D03*
Y1211480D02*
D03*
X2688520Y1226020D02*
D03*
X2673980Y1211480D02*
D03*
X2656020Y1226020D02*
D03*
Y1193520D02*
D03*
X2688520D02*
D03*
X2641480Y1243980D02*
D03*
X2623520Y1258520D02*
D03*
X2608980Y1243980D02*
D03*
Y1276480D02*
D03*
X2623520Y1291020D02*
D03*
X2641480Y1276480D02*
D03*
Y1211480D02*
D03*
X2608980D02*
D03*
X2623520Y1226020D02*
D03*
X2623520Y1193520D02*
D03*
X2608980Y1178980D02*
D03*
X2623520Y1161020D02*
D03*
X2608980Y1146480D02*
D03*
X2623520Y1128520D02*
D03*
X2641480Y1146480D02*
D03*
Y1178980D02*
D03*
X2591020Y1193520D02*
D03*
Y1226020D02*
D03*
X2576480Y1211480D02*
D03*
X2543980D02*
D03*
X2558520Y1226020D02*
D03*
Y1193520D02*
D03*
X2543980Y1178980D02*
D03*
X2558520Y1161020D02*
D03*
X2543980Y1146480D02*
D03*
X2558520Y1128520D02*
D03*
X2591020D02*
D03*
Y1161020D02*
D03*
X2576480Y1146480D02*
D03*
Y1178980D02*
D03*
Y1113980D02*
D03*
X2543980D02*
D03*
X2558520Y1096020D02*
D03*
X2543980Y1081480D02*
D03*
X2558520Y1063520D02*
D03*
X2576480Y1081480D02*
D03*
X2591020Y1096020D02*
D03*
X2526020Y1128520D02*
D03*
Y1161020D02*
D03*
X2511480Y1146480D02*
D03*
X2478980D02*
D03*
X2493520Y1161020D02*
D03*
X2478980Y1178980D02*
D03*
X2511480D02*
D03*
X2493520Y1128520D02*
D03*
X2478980Y1113980D02*
D03*
X2493520Y1096020D02*
D03*
X2478980Y1081480D02*
D03*
X2493520Y1063520D02*
D03*
X2526020D02*
D03*
Y1096020D02*
D03*
X2511480Y1081480D02*
D03*
Y1113980D02*
D03*
X2461020Y1128520D02*
D03*
Y1161020D02*
D03*
X2446480Y1146480D02*
D03*
X2428520Y1161020D02*
D03*
Y1128520D02*
D03*
X2446480Y1178980D02*
D03*
X2493520Y1193520D02*
D03*
X2478980Y1211480D02*
D03*
X2493520Y1226020D02*
D03*
X2526020D02*
D03*
X2511480Y1211480D02*
D03*
X2526020Y1193520D02*
D03*
X2543980Y1243980D02*
D03*
X2558520Y1258520D02*
D03*
Y1291020D02*
D03*
X2543980Y1276480D02*
D03*
X2576480D02*
D03*
X2591020Y1291020D02*
D03*
Y1258520D02*
D03*
X2576480Y1243980D02*
D03*
X2608980Y1308980D02*
D03*
X2623520Y1323520D02*
D03*
Y1356020D02*
D03*
X2608980Y1341480D02*
D03*
X2641480D02*
D03*
Y1308980D02*
D03*
X2656020Y1388520D02*
D03*
X2688520D02*
D03*
X2673980Y1373980D02*
D03*
Y1406480D02*
D03*
X2706480D02*
D03*
Y1373980D02*
D03*
X2721020Y1421020D02*
D03*
Y1453520D02*
D03*
X2753520D02*
D03*
X2738980Y1438980D02*
D03*
Y1471480D02*
D03*
X2771480D02*
D03*
Y1438980D02*
D03*
X2753520Y1421020D02*
D03*
X2786020Y1486020D02*
D03*
Y1518520D02*
D03*
X2818520D02*
D03*
X2803980Y1503980D02*
D03*
X2818520Y1486020D02*
D03*
Y1551020D02*
D03*
X2803980Y1536480D02*
D03*
X2786020Y1551020D02*
D03*
Y1583520D02*
D03*
X2803980Y1568980D02*
D03*
X2818520Y1583520D02*
D03*
Y1616020D02*
D03*
X2803980Y1601480D02*
D03*
X2786020Y1616020D02*
D03*
Y1648520D02*
D03*
X2803980Y1633980D02*
D03*
X2818520Y1648520D02*
D03*
Y1681020D02*
D03*
X2803980Y1666480D02*
D03*
X2786020Y1681020D02*
D03*
X2803980Y1698980D02*
D03*
X2786020Y1713520D02*
D03*
X2803980Y1731480D02*
D03*
X2771480D02*
D03*
X2738980D02*
D03*
X2721020Y1746020D02*
D03*
Y1713520D02*
D03*
X2753520D02*
D03*
X2738980Y1763980D02*
D03*
Y1698980D02*
D03*
X2753520Y1681020D02*
D03*
X2738980Y1666480D02*
D03*
X2721020Y1681020D02*
D03*
X2771480Y1666480D02*
D03*
Y1698980D02*
D03*
Y1633980D02*
D03*
X2753520Y1648520D02*
D03*
X2738980Y1633980D02*
D03*
X2721020Y1648520D02*
D03*
Y1616020D02*
D03*
X2753520D02*
D03*
X2738980Y1601480D02*
D03*
X2771480D02*
D03*
Y1568980D02*
D03*
X2753520Y1583520D02*
D03*
X2738980Y1568980D02*
D03*
X2721020Y1583520D02*
D03*
Y1551020D02*
D03*
X2753520D02*
D03*
X2738980Y1536480D02*
D03*
X2771480D02*
D03*
Y1503980D02*
D03*
X2753520Y1518520D02*
D03*
X2738980Y1503980D02*
D03*
X2721020Y1518520D02*
D03*
Y1486020D02*
D03*
X2753520D02*
D03*
X2706480Y1536480D02*
D03*
X2688520Y1551020D02*
D03*
X2673980Y1536480D02*
D03*
X2656020Y1551020D02*
D03*
Y1583520D02*
D03*
X2673980Y1568980D02*
D03*
X2688520Y1583520D02*
D03*
X2706480Y1568980D02*
D03*
Y1503980D02*
D03*
X2688520Y1518520D02*
D03*
X2673980Y1503980D02*
D03*
X2656020Y1518520D02*
D03*
Y1486020D02*
D03*
X2688520D02*
D03*
X2673980Y1471480D02*
D03*
X2688520Y1453520D02*
D03*
X2673980Y1438980D02*
D03*
X2656020Y1453520D02*
D03*
Y1421020D02*
D03*
X2688520D02*
D03*
X2706480Y1438980D02*
D03*
Y1471480D02*
D03*
X2623520Y1486020D02*
D03*
Y1518520D02*
D03*
X2608980Y1503980D02*
D03*
X2641480D02*
D03*
Y1471480D02*
D03*
X2608980D02*
D03*
X2623520Y1453520D02*
D03*
X2608980Y1438980D02*
D03*
X2623520Y1421020D02*
D03*
X2641480Y1438980D02*
D03*
Y1406480D02*
D03*
X2608980D02*
D03*
X2623520Y1388520D02*
D03*
X2608980Y1373980D02*
D03*
X2641480D02*
D03*
X2591020Y1421020D02*
D03*
Y1453520D02*
D03*
X2576480Y1438980D02*
D03*
X2543980D02*
D03*
X2558520Y1453520D02*
D03*
X2543980Y1471480D02*
D03*
X2576480D02*
D03*
X2558520Y1421020D02*
D03*
X2543980Y1406480D02*
D03*
X2558520Y1388520D02*
D03*
X2543980Y1373980D02*
D03*
X2576480D02*
D03*
X2591020Y1388520D02*
D03*
X2576480Y1406480D02*
D03*
Y1341480D02*
D03*
X2591020Y1356020D02*
D03*
Y1323520D02*
D03*
X2576480Y1308980D02*
D03*
X2543980D02*
D03*
X2558520Y1323520D02*
D03*
Y1356020D02*
D03*
X2543980Y1341480D02*
D03*
X2526020Y1388520D02*
D03*
X2511480Y1373980D02*
D03*
X2478980D02*
D03*
X2493520Y1388520D02*
D03*
X2478980Y1406480D02*
D03*
X2511480D02*
D03*
Y1341480D02*
D03*
X2526020Y1356020D02*
D03*
Y1323520D02*
D03*
X2511480Y1308980D02*
D03*
X2478980D02*
D03*
X2493520Y1323520D02*
D03*
Y1356020D02*
D03*
X2478980Y1341480D02*
D03*
X2493520Y1291020D02*
D03*
X2478980Y1276480D02*
D03*
X2493520Y1258520D02*
D03*
X2478980Y1243980D02*
D03*
X2511480D02*
D03*
X2526020Y1258520D02*
D03*
Y1291020D02*
D03*
X2511480Y1276480D02*
D03*
X2461020Y1323520D02*
D03*
X2446480Y1308980D02*
D03*
X2428520Y1323520D02*
D03*
Y1356020D02*
D03*
X2446480Y1341480D02*
D03*
X2461020Y1356020D02*
D03*
Y1291020D02*
D03*
X2446480Y1276480D02*
D03*
X2428520Y1291020D02*
D03*
Y1258520D02*
D03*
X2461020D02*
D03*
X2446480Y1243980D02*
D03*
X2461020Y1226020D02*
D03*
X2446480Y1211480D02*
D03*
X2428520Y1226020D02*
D03*
Y1193520D02*
D03*
X2461020D02*
D03*
X2413980Y1243980D02*
D03*
X2396020Y1258520D02*
D03*
X2381480Y1243980D02*
D03*
X2363520Y1258520D02*
D03*
Y1291020D02*
D03*
X2381480Y1276480D02*
D03*
X2396020Y1291020D02*
D03*
X2413980Y1276480D02*
D03*
Y1211480D02*
D03*
X2381480D02*
D03*
X2396020Y1226020D02*
D03*
X2363520D02*
D03*
Y1193520D02*
D03*
X2396020D02*
D03*
X2348980Y1243980D02*
D03*
X2331020Y1258520D02*
D03*
X2316480Y1243980D02*
D03*
Y1276480D02*
D03*
X2331020Y1291020D02*
D03*
X2348980Y1276480D02*
D03*
X2363520Y1323520D02*
D03*
Y1356020D02*
D03*
X2381480Y1341480D02*
D03*
X2396020Y1356020D02*
D03*
Y1323520D02*
D03*
X2381480Y1308980D02*
D03*
X2413980D02*
D03*
Y1341480D02*
D03*
X2428520Y1388520D02*
D03*
X2461020D02*
D03*
X2446480Y1373980D02*
D03*
Y1406480D02*
D03*
X2493520Y1421020D02*
D03*
X2478980Y1438980D02*
D03*
X2493520Y1453520D02*
D03*
X2478980Y1471480D02*
D03*
X2511480D02*
D03*
X2526020Y1453520D02*
D03*
X2511480Y1438980D02*
D03*
X2526020Y1421020D02*
D03*
X2558520Y1486020D02*
D03*
X2543980Y1503980D02*
D03*
X2558520Y1518520D02*
D03*
X2591020D02*
D03*
X2576480Y1503980D02*
D03*
X2591020Y1486020D02*
D03*
X2608980Y1536480D02*
D03*
X2623520Y1551020D02*
D03*
Y1583520D02*
D03*
X2608980Y1568980D02*
D03*
X2641480D02*
D03*
Y1536480D02*
D03*
X2656020Y1616020D02*
D03*
Y1648520D02*
D03*
X2673980Y1633980D02*
D03*
X2688520Y1648520D02*
D03*
Y1616020D02*
D03*
X2673980Y1601480D02*
D03*
X2706480D02*
D03*
Y1633980D02*
D03*
Y1666480D02*
D03*
X2688520Y1681020D02*
D03*
X2673980Y1666480D02*
D03*
X2656020Y1681020D02*
D03*
X2673980Y1698980D02*
D03*
X2706480D02*
D03*
X2688520Y1713520D02*
D03*
Y1746020D02*
D03*
X2673980Y1731480D02*
D03*
X2656020Y1746020D02*
D03*
Y1713520D02*
D03*
X2673980Y1763980D02*
D03*
X2706480D02*
D03*
Y1731480D02*
D03*
X2641480D02*
D03*
X2623520Y1746020D02*
D03*
X2608980Y1731480D02*
D03*
X2623520Y1713520D02*
D03*
X2641480Y1763980D02*
D03*
Y1698980D02*
D03*
X2608980D02*
D03*
X2623520Y1681020D02*
D03*
X2608980Y1666480D02*
D03*
X2641480D02*
D03*
Y1633980D02*
D03*
X2623520Y1648520D02*
D03*
X2608980Y1633980D02*
D03*
X2623520Y1616020D02*
D03*
X2608980Y1601480D02*
D03*
X2641480D02*
D03*
X2591020Y1681020D02*
D03*
X2576480Y1666480D02*
D03*
X2543980D02*
D03*
X2558520Y1681020D02*
D03*
X2543980Y1698980D02*
D03*
X2576480D02*
D03*
Y1633980D02*
D03*
X2591020Y1648520D02*
D03*
Y1616020D02*
D03*
X2576480Y1601480D02*
D03*
X2543980D02*
D03*
X2558520Y1616020D02*
D03*
Y1648520D02*
D03*
X2543980Y1633980D02*
D03*
X2558520Y1583520D02*
D03*
X2543980Y1568980D02*
D03*
X2558520Y1551020D02*
D03*
X2543980Y1536480D02*
D03*
X2576480D02*
D03*
X2591020Y1551020D02*
D03*
Y1583520D02*
D03*
X2576480Y1568980D02*
D03*
X2526020Y1616020D02*
D03*
X2511480Y1601480D02*
D03*
X2478980D02*
D03*
X2493520Y1616020D02*
D03*
Y1648520D02*
D03*
X2478980Y1633980D02*
D03*
X2511480D02*
D03*
X2526020Y1648520D02*
D03*
Y1583520D02*
D03*
X2511480Y1568980D02*
D03*
X2493520Y1583520D02*
D03*
X2478980Y1568980D02*
D03*
X2493520Y1551020D02*
D03*
X2478980Y1536480D02*
D03*
X2511480D02*
D03*
X2526020Y1551020D02*
D03*
Y1518520D02*
D03*
X2511480Y1503980D02*
D03*
X2478980D02*
D03*
X2493520Y1518520D02*
D03*
Y1486020D02*
D03*
X2526020D02*
D03*
X2461020Y1551020D02*
D03*
X2446480Y1536480D02*
D03*
X2428520Y1551020D02*
D03*
Y1583520D02*
D03*
X2446480Y1568980D02*
D03*
X2461020Y1583520D02*
D03*
Y1518520D02*
D03*
X2446480Y1503980D02*
D03*
X2428520Y1518520D02*
D03*
Y1486020D02*
D03*
X2461020D02*
D03*
X2446480Y1471480D02*
D03*
X2461020Y1453520D02*
D03*
X2446480Y1438980D02*
D03*
X2428520Y1453520D02*
D03*
Y1421020D02*
D03*
X2461020D02*
D03*
X2396020Y1486020D02*
D03*
Y1518520D02*
D03*
X2381480Y1503980D02*
D03*
X2363520Y1518520D02*
D03*
Y1486020D02*
D03*
X2413980Y1503980D02*
D03*
Y1471480D02*
D03*
X2381480D02*
D03*
X2396020Y1453520D02*
D03*
X2381480Y1438980D02*
D03*
X2363520Y1453520D02*
D03*
Y1421020D02*
D03*
X2396020D02*
D03*
X2413980Y1438980D02*
D03*
Y1406480D02*
D03*
X2381480D02*
D03*
X2396020Y1388520D02*
D03*
X2381480Y1373980D02*
D03*
X2363520Y1388520D02*
D03*
X2413980Y1373980D02*
D03*
X2331020Y1421020D02*
D03*
Y1453520D02*
D03*
X2316480Y1438980D02*
D03*
Y1471480D02*
D03*
X2348980D02*
D03*
Y1438980D02*
D03*
Y1406480D02*
D03*
X2316480D02*
D03*
X2331020Y1388520D02*
D03*
X2316480Y1373980D02*
D03*
X2348980D02*
D03*
Y1341480D02*
D03*
X2331020Y1356020D02*
D03*
X2316480Y1341480D02*
D03*
X2331020Y1323520D02*
D03*
X2316480Y1308980D02*
D03*
X2348980D02*
D03*
X2298520Y1388520D02*
D03*
X2283980Y1373980D02*
D03*
X2251480D02*
D03*
X2266020Y1388520D02*
D03*
X2251480Y1406480D02*
D03*
X2283980D02*
D03*
Y1341480D02*
D03*
X2298520Y1356020D02*
D03*
Y1323520D02*
D03*
X2283980Y1308980D02*
D03*
X2251480D02*
D03*
X2266020Y1323520D02*
D03*
Y1356020D02*
D03*
X2251480Y1341480D02*
D03*
X2266020Y1291020D02*
D03*
Y1258520D02*
D03*
X2298520D02*
D03*
Y1291020D02*
D03*
X2283980Y1276480D02*
D03*
X2233520Y1323520D02*
D03*
Y1356020D02*
D03*
X2218980Y1341480D02*
D03*
X2201020Y1356020D02*
D03*
Y1323520D02*
D03*
X2186480Y1373980D02*
D03*
X2201020Y1388520D02*
D03*
X2186480Y1406480D02*
D03*
X2218980D02*
D03*
X2233520Y1388520D02*
D03*
X2218980Y1373980D02*
D03*
X2266020Y1421020D02*
D03*
X2251480Y1438980D02*
D03*
X2266020Y1453520D02*
D03*
X2251480Y1471480D02*
D03*
X2283980D02*
D03*
X2298520Y1453520D02*
D03*
X2283980Y1438980D02*
D03*
X2298520Y1421020D02*
D03*
X2331020Y1486020D02*
D03*
Y1518520D02*
D03*
X2316480Y1503980D02*
D03*
X2348980D02*
D03*
X2363520Y1551020D02*
D03*
Y1583520D02*
D03*
X2381480Y1568980D02*
D03*
X2396020Y1583520D02*
D03*
Y1551020D02*
D03*
X2381480Y1536480D02*
D03*
X2413980D02*
D03*
Y1568980D02*
D03*
X2428520Y1616020D02*
D03*
Y1648520D02*
D03*
X2446480Y1633980D02*
D03*
X2461020Y1648520D02*
D03*
Y1616020D02*
D03*
X2446480Y1601480D02*
D03*
X2478980Y1666480D02*
D03*
X2493520Y1681020D02*
D03*
X2478980Y1698980D02*
D03*
X2511480D02*
D03*
X2526020Y1681020D02*
D03*
X2511480Y1666480D02*
D03*
X2558520Y1713520D02*
D03*
X2591020D02*
D03*
X2576480Y1731480D02*
D03*
X2478980D02*
D03*
X2446480D02*
D03*
X2461020Y1713520D02*
D03*
X2428520D02*
D03*
Y1681020D02*
D03*
X2461020D02*
D03*
X2446480Y1666480D02*
D03*
Y1698980D02*
D03*
X2396020Y1713520D02*
D03*
Y1746020D02*
D03*
X2381480Y1731480D02*
D03*
X2363520Y1746020D02*
D03*
Y1713520D02*
D03*
X2381480Y1763980D02*
D03*
X2413980D02*
D03*
Y1731480D02*
D03*
Y1698980D02*
D03*
X2381480D02*
D03*
X2396020Y1681020D02*
D03*
X2381480Y1666480D02*
D03*
X2363520Y1681020D02*
D03*
X2413980Y1666480D02*
D03*
Y1633980D02*
D03*
X2396020Y1648520D02*
D03*
X2381480Y1633980D02*
D03*
X2363520Y1648520D02*
D03*
Y1616020D02*
D03*
X2396020D02*
D03*
X2381480Y1601480D02*
D03*
X2413980D02*
D03*
X2348980Y1666480D02*
D03*
X2331020Y1681020D02*
D03*
X2316480Y1666480D02*
D03*
Y1698980D02*
D03*
X2348980D02*
D03*
X2348980Y1633980D02*
D03*
X2331020Y1648520D02*
D03*
X2316480Y1633980D02*
D03*
X2331020Y1616020D02*
D03*
X2316480Y1601480D02*
D03*
X2348980D02*
D03*
Y1568980D02*
D03*
X2331020Y1583520D02*
D03*
X2316480Y1568980D02*
D03*
X2331020Y1551020D02*
D03*
X2316480Y1536480D02*
D03*
X2348980D02*
D03*
X2298520Y1616020D02*
D03*
X2283980Y1601480D02*
D03*
X2251480D02*
D03*
X2266020Y1616020D02*
D03*
Y1648520D02*
D03*
X2251480Y1633980D02*
D03*
X2283980D02*
D03*
X2298520Y1648520D02*
D03*
Y1583520D02*
D03*
X2283980Y1568980D02*
D03*
X2266020Y1583520D02*
D03*
X2251480Y1568980D02*
D03*
X2266020Y1551020D02*
D03*
X2251480Y1536480D02*
D03*
X2283980D02*
D03*
X2298520Y1551020D02*
D03*
Y1518520D02*
D03*
X2283980Y1503980D02*
D03*
X2251480D02*
D03*
X2266020Y1518520D02*
D03*
Y1486020D02*
D03*
X2298520D02*
D03*
X2233520Y1551020D02*
D03*
X2218980Y1536480D02*
D03*
X2186480D02*
D03*
X2201020Y1551020D02*
D03*
Y1583520D02*
D03*
X2186480Y1568980D02*
D03*
X2218980D02*
D03*
X2233520Y1583520D02*
D03*
Y1518520D02*
D03*
X2218980Y1503980D02*
D03*
X2186480D02*
D03*
X2201020Y1518520D02*
D03*
Y1486020D02*
D03*
X2233520D02*
D03*
X2218980Y1471480D02*
D03*
X2186480D02*
D03*
X2201020Y1453520D02*
D03*
X2186480Y1438980D02*
D03*
X2201020Y1421020D02*
D03*
X2233520D02*
D03*
Y1453520D02*
D03*
X2218980Y1438980D02*
D03*
X2168520Y1486020D02*
D03*
Y1518520D02*
D03*
X2153980Y1503980D02*
D03*
X2136020Y1518520D02*
D03*
Y1486020D02*
D03*
Y1453520D02*
D03*
X2168520D02*
D03*
X2153980Y1438980D02*
D03*
Y1471480D02*
D03*
X2168520Y1421020D02*
D03*
X2136020D02*
D03*
X2103520Y1486020D02*
D03*
Y1518520D02*
D03*
X2121480Y1503980D02*
D03*
X2136020Y1551020D02*
D03*
Y1583520D02*
D03*
X2153980Y1568980D02*
D03*
X2168520Y1583520D02*
D03*
Y1551020D02*
D03*
X2153980Y1536480D02*
D03*
X2186480Y1601480D02*
D03*
X2201020Y1616020D02*
D03*
Y1648520D02*
D03*
X2186480Y1633980D02*
D03*
X2218980D02*
D03*
X2233520Y1648520D02*
D03*
X2233520Y1616020D02*
D03*
X2218980Y1601480D02*
D03*
X2251480Y1666480D02*
D03*
X2266020Y1681020D02*
D03*
X2251480Y1698980D02*
D03*
X2283980D02*
D03*
X2298520Y1681020D02*
D03*
X2283980Y1666480D02*
D03*
X2331020Y1713520D02*
D03*
Y1746020D02*
D03*
X2316480Y1731480D02*
D03*
Y1763980D02*
D03*
X2348980D02*
D03*
Y1731480D02*
D03*
X2298520Y1746020D02*
D03*
X2283980Y1731480D02*
D03*
X2251480D02*
D03*
X2266020Y1713520D02*
D03*
X2298520D02*
D03*
X2233520D02*
D03*
X2218980Y1698980D02*
D03*
X2233520Y1681020D02*
D03*
X2218980Y1666480D02*
D03*
X2186480D02*
D03*
X2201020Y1681020D02*
D03*
X2168520Y1648520D02*
D03*
X2153980Y1633980D02*
D03*
X2168520Y1616020D02*
D03*
X2153980Y1601480D02*
D03*
X2136020Y1616020D02*
D03*
X2121480Y1568980D02*
D03*
Y1536480D02*
D03*
X2103520Y1551020D02*
D03*
M02*
